SplineFontDB: 3.0
FontName: CabinSketch-Bold
FullName: CabinSketch Bold
FamilyName: CabinSketch
Weight: Bold
Copyright: Copyright (c) 2011 by Pablo Impallari. www.impallari.com Copyright (c) 2011 by Igino Marini. www.ikern.com All rights reserved.
Version: 001.001
ItalicAngle: 0
UnderlinePosition: -45
UnderlineWidth: 45
Ascent: 800
Descent: 200
sfntRevision: 0x00010083
LayerCount: 2
Layer: 0 0 "Warstwa t+AUIA-a"  1
Layer: 1 0 "Plan pierwszy"  0
XUID: [1021 368 18803 7914]
FSType: 0
OS2Version: 2
OS2_WeightWidthSlopeOnly: 0
OS2_UseTypoMetrics: 1
CreationTime: 1299989674
ModificationTime: 1399234368
PfmFamily: 17
TTFWeight: 700
TTFWidth: 5
LineGap: 0
VLineGap: 0
Panose: 2 11 8 3 5 2 2 2 0 4
OS2TypoAscent: 873
OS2TypoAOffset: 0
OS2TypoDescent: -298
OS2TypoDOffset: 0
OS2TypoLinegap: 0
OS2WinAscent: 873
OS2WinAOffset: 0
OS2WinDescent: 298
OS2WinDOffset: 0
HheadAscent: 873
HheadAOffset: 0
HheadDescent: -298
HheadDOffset: 0
OS2SubXSize: 700
OS2SubYSize: 650
OS2SubXOff: 0
OS2SubYOff: 140
OS2SupXSize: 700
OS2SupYSize: 650
OS2SupXOff: 0
OS2SupYOff: 477
OS2StrikeYSize: 50
OS2StrikeYPos: 250
OS2FamilyClass: 2050
OS2Vendor: 'PYRS'
OS2CodePages: 00000001.00000000
OS2UnicodeRanges: 8000002f.0000000a.00000000.00000000
Lookup: 258 0 0 "'kern' Kerning poziomy w +AUIA-aci+AUQA-skie w tablicy 0"  {"'kern' Kerning poziomy w +AUIA-aci+AUQA-skie w tablicy 0 per glyph data 0"  "Tablica 'kern' Kerning poziomy w +AUIA-aci+AUQA-skie w tablicy 0, klasa kerningu 1"  } ['kern' ('latn' <'dflt' > ) ]
DEI: 91125
KernClass2: 74+ 68 "Tablica 'kern' Kerning poziomy w +AUIA-aci+AUQA-skie w tablicy 0, klasa kerningu 1" 
 9 parenleft
 10 registered
 9 trademark
 5 seven
 5 slash
 20 hyphen emdash endash
 20 quotedbl quotesingle
 8 asterisk
 5 comma
 4 four
 11 bracketleft
 9 backslash
 9 braceleft
 22 quoteleft quotedblleft
 6 period
 27 guilsinglleft guillemotleft
 10 exclamdown
 12 questiondown
 29 guilsinglright guillemotright
 27 quotesinglbase quotedblbase
 24 quoteright quotedblright
 9 ampersand

StartChar: .notdef
Encoding: 65536 -1 0
Width: 216
Flags: MW
HStem: 176 144<36.5 82.5> 177 21G<170.5 179> 259 61<75 101.5> 259 78<94.5 167> 325 20G<70.5 84>
VStem: 21 34<234 288> 21 165<182.5 288>
LayerCount: 2
Fore
SplineSet
21 274 m 0x8a
 21 302 29 316 29 334 c 0
 29 342 66 345 75 345 c 0x8a
 93 345 124 339 146 338 c 2
 163 337 l 2
 171 337 194 270 194 267 c 0
 194 263 187 250 186 245 c 1
 186 186 l 2
 186 179 182 177 176 177 c 0x52
 165 177 147 186 142 186 c 0
 108 186 100 176 45 176 c 0
 28 176 21 252 21 274 c 0x8a
55 241 m 0x6c
 55 227 56 221 60 207 c 1
 62 208 78 212 84 212 c 1
 84 241 136 246 151 267 c 1
 149 267 140 268 137 268 c 0
 123 268 108 259 95 259 c 0
 94 259 87 262 86 263 c 1
 68 250 55 264 55 241 c 0x6c
155 228 m 1
 141 219 123 214 108 211 c 1
 124 211 139 216 155 216 c 1
 155 228 l 1
47 276 m 1
 52 271 l 1
 57 272 127 299 134 306 c 1
 120 309 75 305 75 320 c 1
 90 320 97 319 104 319 c 0
 110 319 116 320 129 323 c 1
 102 327 75 328 47 328 c 1
 47 276 l 1
EndSplineSet
Validated: 1
EndChar

StartChar: k
Encoding: 107 107 4
Width: 484
Flags: MW
HStem: -27 21G -19 23 -19 79<116 149.5> -18 21G<465 470.5> -17 21G -14 21G<215.5 221> -1 21G<353 360 434.5 443> 102 43 297 189<137 209> 377 109 429 57<325 346> 446 20G<330.5 339.5> 452 20G<439 462> 471 20G<94 94.5 137 137 146 146> 483 20G<81 85 85 88> 634 20G<131.5 140.5> 635 20G<127.5 133.5> 652 20G<154 154.5> 697 20G<70.5 92>
VStem: 55 30 73 27 150 21 206 22<106.5 114>
LayerCount: 2
Fore
SplineSet
228 120 m 1x8380b6
 228 93 223 66 223 38 c 0
 223 24 228 17 228 3 c 0x1180b6
 228 -12 225 -14 217 -14 c 0x0580b6
 214 -14 211 -19 88 -19 c 0
 69 -19 67 -16 67 0 c 0
 67 34 73 66 73 100 c 0x4180ae
 73 208 50 313 50 422 c 0
 50 467 55 530 55 590 c 0
 55 596 51 648 50 654 c 1
 53 663 54 672 54 679 c 0
 54 690 51 699 47 706 c 1
 52 714 64 717 77 717 c 0
 107 717 151 717 176 701 c 1
 180 681 181 666 181 648 c 0
 181 582 176 520 176 455 c 0
 176 430 171 413 171 396 c 0
 171 376 173 367 176 343 c 1
 224 382 261 486 339 486 c 0x418136
 379 486 419 472 459 472 c 0
 465 472 472 472 478 473 c 1
 480 471 482 462 482 460 c 1
 481 459 474 457 473 456 c 0
 441 436 422 393 396 366 c 1
 344 322 280 241 280 226 c 0
 280 223 281 216 283 215 c 2
 335 167 l 1
 365 120 l 1
 434 42 l 1
 440 39 478 1 478 -9 c 0
 478 -11 472 -18 469 -18 c 0x110ab6
 461 -18 453 -17 445 -17 c 0x0980b6
 410 -17 373 -22 339 -27 c 1
 311 -24 325 -18 283 34 c 0
 267 54 252 102 228 120 c 1x8380b6
400 29 m 1
 383 21 357 7 353 -1 c 1x8380b6
 367 -1 380 4 393 4 c 0x4180b6
 410 4 426 -1 443 -1 c 1x8380b6
 433 16 417 29 400 29 c 1
159 36 m 0
 159 35 158 34 120 8 c 1
 201 8 l 1
 201 40 206 72 206 105 c 0
 206 123 200 143 193 159 c 1
 171 156 128 118 128 115 c 1
 184 141 l 1
 192 140 193 126 193 124 c 0
 193 114 120 64 116 60 c 1
 163 60 l 2x2180ae
 166 60 174 54 176 51 c 1
 174 46 171 46 167 46 c 0
 159 46 152 51 143 51 c 0
 126 51 93 38 93 19 c 0
 93 16 94 15 97 15 c 0
 108 15 141 43 151 43 c 1
 150 43 159 41 159 36 c 0
326 16 m 0
 326 12 330 11 334 11 c 0
 335 11 387 26 387 34 c 2
 387 38 l 1
 370 37 l 1
 373 45 396 51 396 51 c 1
 390 55 386 55 381 55 c 0
 374 55 348 45 344 37 c 1
 361 37 l 1
 360 33 l 1
 331 21 326 17 326 16 c 0
301 55 m 1
 318 37 l 1
 365 63 l 1
 364 65 358 68 356 68 c 0
 345 68 309 68 301 55 c 1
99 141 m 2
 102 68 l 1
 176 120 l 1
 176 124 l 1
 157 118 140 102 120 102 c 0
 117 102 108 103 107 103 c 1
 115 131 181 164 181 171 c 0
 181 172 180 176 180 176 c 1
 180 176 99 147 99 141 c 2
347 109 m 1
 324 109 302 97 278 97 c 1
 278 97 287 72 294 68 c 1
 304 68 347 102 347 109 c 1
361 94 m 2
 318 72 l 1
 374 72 l 1
 369 75 360 85 360 91 c 0
 360 92 361 93 361 94 c 2
324 128 m 1
 309 124 284 108 283 107 c 1
 285 106 287 106 290 106 c 0
 305 106 333 114 336 118 c 1
 333 122 330 128 324 128 c 1
302 140 m 1
 294 140 256 138 256 125 c 0
 256 120 268 115 268 115 c 1
 278 115 302 126 302 140 c 1
297 168 m 0
 282 168 250 151 245 141 c 1
 274 141 289 145 318 145 c 1
 301 167 l 1
 301 167 298 168 297 168 c 0
217 170 m 1
 217 162 228 153 236 153 c 0
 245 153 285 169 285 182 c 1
 261 182 241 170 217 170 c 1
99 196 m 1
 99 163 l 1
 116 191 150 193 167 219 c 1
 146 213 120 196 99 196 c 1
222 212 m 0
 181 212 141 194 116 163 c 1
 116 163 119 162 120 162 c 0
 127 162 229 202 240 211 c 1
 238 211 225 212 222 212 c 0
223 185 m 1
 227 186 230 186 232 186 c 0
 240 186 232 179 242 179 c 0
 255 179 260 191 276 191 c 1
 276 196 264 202 260 202 c 0
 250 202 228 194 223 185 c 1
301 305 m 1
 280 305 254 293 236 284 c 1
 190 269 139 241 107 202 c 1
 138 220 169 232 202 244 c 0
 216 249 205 261 219 261 c 1
 219 253 l 1
 246 276 277 239 301 305 c 1
120 258 m 1
 102 254 98 246 98 235 c 0
 98 228 100 220 100 211 c 1
 112 233 150 244 150 267 c 1
 138 264 124 255 116 249 c 1
 120 258 l 1
240 236 m 1
 215 227 l 1
 240 227 l 1
 240 236 l 1
85 286 m 0x4180b6
 85 276 89 269 92 258 c 1
 141 301 l 1
 141 314 l 1
 133 309 85 300 85 286 c 0x4180b6
163 289 m 1
 144 289 135 282 123 268 c 1
 126 266 l 1
 135 266 163 285 163 284 c 2
 163 289 l 1
172 288 m 1
 175 288 178 289 181 289 c 0
 187 289 193 288 198 284 c 1
 203 285 227 290 236 296 c 1
 227 296 215 297 203 297 c 0
 191 297 179 295 172 288 c 1
336 368 m 0
 336 349 199 330 176 301 c 1
 211 301 234 308 266 314 c 0
 362 333 362 378 430 439 c 0
 432 440 433 441 433 442 c 0
 433 443 432 444 430 444 c 0
 429 444 427 443 426 443 c 2
 318 404 l 2
 317 404 316 405 315 405 c 0
 313 405 310 402 309 400 c 1
 326 400 343 404 359 404 c 1
 359 399 361 395 361 392 c 0
 361 386 339 380 327 374 c 1
 329 374 336 369 336 368 c 0
141 341 m 1
 129 341 103 310 99 305 c 1
 111 313 127 318 141 322 c 1
 141 341 l 1
141 369 m 1
 131 365 81 350 81 343 c 2
 81 314 l 1
 103 328 141 355 141 365 c 2
 141 369 l 1
202 335 m 1
 202 330 l 1
 209 330 271 349 278 352 c 1
 202 335 l 1
245 383 m 1
 235 374 220 355 215 348 c 1
 248 358 331 385 335 392 c 1
 309 383 288 377 262 377 c 0x4140ae
 258 377 250 378 249 378 c 2
 245 383 l 1
146 409 m 1
 120 401 99 376 81 357 c 1
 130 381 146 366 146 409 c 1
73 395 m 0
 73 393 75 381 76 378 c 1
 103 397 133 413 146 430 c 1
 125 423 100 415 76 413 c 1
 75 410 73 398 73 395 c 0
249 402 m 1
 253 400 254 397 254 394 c 0
 254 392 258 390 258 389 c 1
 287 397 294 414 365 428 c 1
 359 428 351 429 341 429 c 0x4120ae
 309 429 262 424 249 402 c 1
124 451 m 1
 120 449 102 434 99 430 c 0
 98 430 94 426 94 426 c 1
 112 426 129 440 148 440 c 1
 148 460 l 1
 144 459 133 453 124 451 c 1
73 450 m 2
 73 450 73 437 76 430 c 1
 91 449 146 469 146 491 c 1x4114ae
 137 486 l 1x4180b6
 137 491 l 1x4114b6
 118 479 99 477 76 473 c 1
 75 469 73 452 73 450 c 2
369 457 m 1
 369 456 301 446 301 439 c 2
 301 434 l 1
 339 440 401 448 405 451 c 1
 390 456 382 457 369 457 c 1
338 466 m 0
 323 466 292 459 292 447 c 1
 348 460 l 1
 347 466 341 466 338 466 c 0
146 521 m 1
 125 517 113 496 94 491 c 1
 95 491 100 490 100 490 c 1
 100 490 146 496 146 499 c 2
 146 521 l 1
81 538 m 1
 81 503 l 1
 85 503 l 2x410ab6
 91 503 147 544 147 550 c 1
 141 550 l 1
 143 560 150 584 150 586 c 1
 125 586 108 546 81 538 c 1
73 572 m 1x4180ae
 74 569 77 563 77 559 c 0
 77 558 76 556 76 555 c 1
 100 566 134 585 151 607 c 1
 145 606 73 584 73 572 c 1x4180ae
141 641 m 1
 136 636 110 617 94 598 c 1
 99 599 104 602 107 607 c 1
 150 620 l 1
 150 641 l 1
 141 637 l 1
 141 641 l 1
73 637 m 1
 82 627 78 613 81 613 c 0
 98 613 122 654 141 654 c 1x41812e
 140 654 134 655 133 655 c 0
 122 655 87 649 81 637 c 1
 76 641 l 1
 73 637 l 1
68 693 m 1
 72 688 74 680 74 673 c 0
 74 669 73 665 73 663 c 1
 107 689 l 1
 106 690 100 693 99 693 c 0
 96 693 83 690 81 689 c 1
 81 693 l 1
 68 693 l 1
141 689 m 0
 133 689 114 680 114 670 c 1
 116 667 l 1
 154 672 l 2x418076
 155 672 156 675 156 676 c 0
 156 686 150 689 141 689 c 0
EndSplineSet
Validated: 33
EndChar

StartChar: l
Encoding: 108 108 5
Width: 291
Flags: MW
HStem: -27 21G 440 20G<143 144 144 152> 643 20G<127 131.5> 646 20G 699 20G<88 93 93 95.5>
VStem: 58 32<124 133 112 146.5> 58 54 58 217<12 146.5> 94 92<328 424.5> 194 24<96.5 107.5>
LayerCount: 2
Fore
SplineSet
269 -27 m 1xd9
 210 -13 62 -11 62 89 c 1
 58 124 l 1
 58 169 56 205 56 238 c 0
 56 268 58 295 58 326 c 2
 58 337 l 2
 58 457 58 588 88 719 c 1
 93 719 l 2
 98 719 104 719 105 715 c 1
 140 710 174 699 209 698 c 1
 213 693 l 1
 213 666 218 650 218 624 c 1
 193 548 186 465 186 384 c 0
 186 302 203 222 218 141 c 1xdcc0
 218 42 255 98 274 63 c 1
 274 49 275 34 275 20 c 0
 275 4 274 -12 269 -27 c 1xd9
218 21 m 1
 222 13 236 8 243 4 c 1
 251 12 252 27 252 39 c 2
 252 51 l 1
 243 51 l 1
 222 25 l 2
 221 24 218 21 218 21 c 1
166 12 m 1
 171 7 175 7 181 7 c 0
 182 7 186 8 187 8 c 2
 178 16 l 1
 182 15 186 15 189 15 c 0
 207 15 209 25 218 46 c 1
 200 38 177 28 166 12 c 1
112 37 m 1xda40
 112 26 126 24 134 24 c 0
 135 24 143 25 144 25 c 0
 147 45 186 53 192 77 c 1
 171 77 139 37 112 37 c 1xda40
210 61 m 1
 201 61 171 41 171 34 c 0
 171 33 174 31 174 31 c 1
 190 42 210 53 210 61 c 1
79 103 m 1
 101 46 102 46 102 46 c 1
 113 46 142 87 148 94 c 2
 170 120 l 1
 166 124 l 1
 150 112 131 100 111 100 c 1
 111 117 135 140 144 154 c 1
 140 154 l 1
 90 133 l 1
 90 112 l 1xdcc0
 84 115 l 1
 81 112 79 106 79 103 c 1
193 120 m 1
 187 120 l 2
 178 120 145 76 131 55 c 1
 155 71 194 88 194 105 c 0
 194 110 193 115 193 120 c 1
174 167 m 1
 157 152 141 126 122 112 c 1
 123 112 126 111 127 111 c 0
 133 111 136 113 140 120 c 1
 144 115 l 1
 152 126 166 133 178 133 c 0
 180 133 186 129 187 128 c 1
 187 150 l 1
 166 258 l 1
 166 264 167 272 167 280 c 0
 167 302 164 329 157 348 c 1
 146 320 115 296 96 279 c 1
 101 279 l 1
 101 279 140 293 157 296 c 1
 157 292 l 1
 133 268 97 237 93 219 c 1
 98 223 128 238 135 241 c 1
 144 241 152 237 152 228 c 0
 152 214 95 161 95 148 c 1
 123 148 144 171 173 171 c 1
 174 167 l 1
83 186 m 0
 83 177 83 168 88 159 c 1
 111 177 124 204 140 227 c 1
 116 227 83 208 83 186 c 0
79 252 m 0
 79 245 79 241 84 236 c 1
 93 243 117 260 122 275 c 1
 90 261 79 271 79 252 c 0
79 404 m 1
 82 362 84 304 84 284 c 1
 104 300 128 330 131 335 c 1
 105 326 l 2
 103 326 95 328 94 328 c 1
 94 358 152 392 152 404 c 2
 152 409 l 1
 132 394 111 393 88 393 c 1
 88 400 l 1
 152 460 l 1
 144 460 l 2
 142 460 106 441 93 434 c 0
 81 427 83 416 79 404 c 1
125 355 m 1
 125 355 120 357 119 357 c 0
 116 355 109 346 109 342 c 0
 109 341 113 340 113 340 c 1
 126 349 140 356 157 357 c 1
 157 392 l 1
 142 373 125 377 125 355 c 1
157 447 m 1
 153 447 123 420 110 404 c 1
 111 404 114 404 114 404 c 1
 118 405 157 420 157 421 c 2
 157 447 l 1
166 517 m 1
 159 513 103 461 103 455 c 1
 102 455 141 466 157 473 c 1
 166 484 166 505 166 517 c 1
135 513 m 1
 116 513 86 498 86 477 c 0
 86 475 87 467 88 465 c 1
 91 467 135 501 135 508 c 2
 135 513 l 1
140 547 m 1
 135 532 119 528 110 517 c 1
 125 517 133 529 151 529 c 0
 152 529 156 526 157 525 c 1
 162 539 175 548 175 565 c 1
 163 565 150 550 144 542 c 1
 140 547 l 1
85 549 m 0
 85 538 89 532 94 520 c 1
 100 520 132 550 140 559 c 1
 101 550 l 1
 99 551 96 554 96 558 c 0
 96 560 101 566 161 628 c 1
 161 635 l 1
 138 635 129 607 110 602 c 1
 86 602 85 570 85 549 c 0
183 641 m 1
 169 616 146 591 127 572 c 1
 132 570 l 1
 178 594 l 1
 189 594 189 668 189 678 c 1
 168 678 160 661 148 646 c 1
 158 646 165 649 172 649 c 0
 174 649 181 645 183 641 c 1
135 680 m 1
 119 666 89 636 89 616 c 1
 96 616 l 2
 104 616 152 667 152 672 c 1
 145 666 136 663 127 663 c 1xecc0
 127 675 148 676 157 684 c 1
 141 690 121 690 105 690 c 1
 105 666 l 1
 112 666 124 680 135 680 c 1
EndSplineSet
Validated: 37
EndChar

StartChar: m
Encoding: 109 109 6
Width: 889
Flags: MW
HStem: -27 21G<502 519 809.5 835.5> -24 21G -22 21G -21 72 -18 21G<435.5 452> -4 21G<380 380 803.5 812.5> 31 20 31 154 108 146 108 185<86 168.5> 108 218 349 21<273 280.5 254 298> 440 20G 440 21<588.5 603> 440 34 446 20G<67 72 166 177.5>
VStem: 56 35 69 22 91 103<51 219 141.5 219 236 247> 173 21 173 43 173 232<24.5 137> 388 125<177.5 178 121.5 188.5 121.5 302> 419 94<80 178> 436 77<77 178 95 178> 461 52 484 29<107 178> 496 221<4 13 -3 34 -3 34> 699 46 799 43<30.5 41> 812 30<-9.5 87>
LayerCount: 2
Fore
SplineSet
197 -24 m 2x42948a0c
 69 -22 l 2x2294520c
 65 -22 51 -9 51 -5 c 0
 51 15 61 -17 61 49 c 0
 61 92 56 133 56 176 c 0x2294920c
 56 259 64 343 69 426 c 1
 71 427 74 433 74 434 c 0
 72 444 60 449 60 459 c 0
 60 464 65 466 69 466 c 0x1091520c
 75 466 77 465 82 460 c 1
 156 460 l 1x1098920c
 160 465 163 466 169 466 c 0x1091920c
 186 466 181 434 192 434 c 1
 240 459 268 474 328 474 c 1x1092920c
 340 470 401 436 444 413 c 1
 506 460 559 461 618 461 c 0
 765 461 768 403 811 335 c 1
 842 226 842 110 842 -3 c 0x4294920c
 842 -16 840 -27 831 -27 c 0x8694920c
 788 -27 747 -22 703 -22 c 1x2294920c
 694 -13 l 1
 698 18 699 29 699 57 c 0
 699 141 685 297 679 306 c 0
 672 316 641 349 604 349 c 0
 576 349 556 335 539 314 c 1
 522 260 513 206 513 150 c 0
 513 93 515 49 526 -13 c 1
 526 -26 523 -27 515 -27 c 0x8694910c
 489 -27 465 -18 439 -18 c 0x0a94920c
 432 -18 413 -21 399 -21 c 0x1094920c
 387 -21 380 -19 380 -13 c 2
 380 -4 l 1
 380 -4 379 8 379 12 c 0
 379 34 384 63 384 90 c 0
 384 93 380 113 380 116 c 0
 380 139 388 165 388 190 c 1
 388 187 380 241 375 262 c 1
 344 286 332 326 298 349 c 1
 248 349 251 345 224 331 c 0
 223 330 222 330 220 330 c 0
 218 330 216 330 216 331 c 1x86948a0c
 212 324 198 294 194 279 c 1
 194 219 l 2x1094220c
 194 139 216 72 216 -9 c 0
 216 -20 207 -24 197 -24 c 2x42948a0c
776 4 m 1x4294920c
 785 -3 798 -4 809 -4 c 0x8694920c
 816 -4 816 5 816 20 c 0
 816 24 815 29 811 29 c 1
 803 20 784 9 776 4 c 1x4294920c
159 4 m 1
 162 3 175 -1 177 -1 c 0x2294850c
 179 -1 184 3 185 4 c 1
 182 8 l 1
 159 4 l 1
405 28 m 0
 405 21 406 4 406 4 c 1
 410 -1 l 1
 415 -1 458 29 488 47 c 1
 460 47 442 31 416 31 c 1
 416 62 468 68 488 95 c 1
 483 99 l 1
 468 90 450 87 436 77 c 1x2294848c
 436 107 484 94 484 120 c 0x1094902c
 484 121 483 128 483 128 c 1
 436 95 l 1x1094908c
 435 90 428 77 426 77 c 0
 424 77 420 80 419 80 c 1
 419 116 465 123 483 146 c 1
 476 146 l 2
 470 146 410 134 410 120 c 1
 406 85 405 62 405 28 c 0
436 4 m 1
 442 3 472 -1 479 -1 c 0
 484 -1 496 3 496 4 c 2
 496 34 l 1x22949014
 479 27 452 14 436 4 c 1
799 41 m 1
 773 41 717 29 717 -3 c 1x42949014
 731 -3 799 20 799 41 c 1
168 38 m 1
 108 4 l 1
 112 4 l 2
 113 4 182 24 182 25 c 2
 182 38 l 1
 168 38 l 1
91 25 m 0
 91 24 93 12 97 12 c 0
 112 12 172 44 173 60 c 1
 159 51 94 45 91 25 c 0
724 60 m 1
 724 38 l 1
 746 60 771 69 794 90 c 1
 784 90 760 70 724 60 c 1
168 108 m 0
 143 108 91 81 91 81 c 1
 91 51 l 1x1094920a
 92 52 98 54 100 55 c 0
 124 72 149 89 173 107 c 1
 172 107 169 108 168 108 c 0
485 73 m 1
 477 69 450 53 448 51 c 1
 461 51 491 62 491 64 c 0
 491 67 489 73 485 73 c 1
812 87 m 1
 806 87 775 56 771 51 c 1
 811 51 812 54 812 87 c 1
121 60 m 1
 121 55 l 1
 125 55 l 1
 129 57 160 68 164 69 c 1
 168 69 l 2
 172 69 175 68 177 64 c 1
 182 90 l 1
 182 90 178 94 177 95 c 1
 162 89 140 66 121 60 c 1
786 181 m 1
 724 154 l 1
 724 90 l 1
 741 113 771 112 789 133 c 1
 788 133 786 134 785 134 c 0
 784 134 775 130 733 116 c 0
 731 116 729 122 729 122 c 1
 729 137 780 159 794 177 c 1
 793 181 789 181 786 181 c 1
754 95 m 1
 754 90 l 1
 764 95 811 101 811 120 c 1
 797 120 l 1
 754 95 l 1
82 172 m 1
 82 154 l 2
 82 151 81 144 81 135 c 0
 81 122 83 105 91 103 c 1
 106 126 148 125 164 151 c 1
 162 151 161 152 158 152 c 0
 152 152 138 149 100 137 c 1
 95 137 91 139 91 144 c 0
 91 163 152 181 164 198 c 1
 148 198 97 188 86 177 c 1
 82 172 l 1
173 137 m 1
 168 137 l 2
 167 137 121 112 121 107 c 1
 156 116 l 1
 156 112 l 1
 169 116 171 123 173 137 c 1
806 172 m 1
 806 163 774 144 774 142 c 1
 779 142 808 147 811 159 c 0
 811 161 808 170 806 172 c 1
414 177 m 1
 414 146 l 1
 483 194 l 1
 488 202 l 1
 478 198 442 180 414 177 c 1
448 158 m 1
 448 154 l 1
 453 154 478 162 479 163 c 2
 483 177 l 1
 470 170 452 158 448 158 c 1
167 182 m 1
 158 182 138 171 134 163 c 1
 164 163 l 1
 165 169 168 172 168 177 c 0
 168 178 168 180 167 182 c 1
720 206 m 2
 724 180 l 1
 742 200 786 222 797 224 c 1
 795 225 793 227 793 229 c 0
 793 230 793 231 794 232 c 1
 786 227 720 210 720 206 c 2
806 215 m 1
 754 180 752 182 752 182 c 1
 752 180 753 179 755 179 c 0
 763 179 783 190 790 190 c 0
 792 190 798 185 803 185 c 0x4114920c
 805 185 811 188 811 194 c 0
 811 197 808 209 806 215 c 1
86 267 m 1
 83 243 85 219 82 189 c 1
 87 190 163 248 164 250 c 1
 137 250 116 238 91 236 c 1
 91 258 137 279 159 288 c 1
 158 289 149 289 147 289 c 0
 128 289 93 282 86 267 c 1
410 224 m 1
 414 194 l 1
 430 214 464 230 483 245 c 0
 486 248 488 259 493 259 c 0
 494 259 495 258 496 258 c 1
 496 284 502 276 509 293 c 0
 533 356 576 368 634 401 c 0
 645 407 660 410 668 422 c 1
 659 422 654 417 645 417 c 0
 638 417 635 417 629 422 c 1
 639 429 657 431 668 434 c 1
 668 438 615 440 591 440 c 0
 559 440 491 395 479 383 c 1
 496 383 l 1
 496 379 l 1x10549014
 499 386 589 422 621 422 c 1
 629 413 l 1
 582 396 l 1
 554 382 527 368 500 349 c 1
 500 339 505 339 505 334 c 0
 505 323 453 300 439 297 c 0
 439 296 436 293 436 293 c 1x1054908c
 459 293 481 301 503 301 c 1
 503 277 460 266 444 258 c 0
 443 258 442 259 441 259 c 0
 440 259 432 250 427 245 c 1
 439 251 462 254 465 254 c 1x1094920c
 452 240 426 229 410 224 c 1
164 233 m 1
 164 233 157 231 121 202 c 1
 136 202 149 208 164 208 c 1
 164 233 l 1
492 229 m 1
 476 227 458 216 448 202 c 1
 462 202 492 209 492 229 c 1
791 263 m 0
 786 263 755 241 742 228 c 1
 771 230 795 239 797 241 c 1
 797 243 797 263 791 263 c 0
720 258 m 1
 720 232 l 1
 724 232 l 1
 754 254 l 1x1094920c
 772 254 772 285 784 285 c 0
 786 285 788 284 789 284 c 0
 790 286 794 299 794 302 c 0
 794 313 788 334 779 334 c 1
 779 352 775 367 754 370 c 1
 759 375 l 1
 752 377 744 383 737 387 c 1
 742 392 l 1
 738 393 737 397 737 401 c 1
 725 386 686 376 681 366 c 1
 700 366 714 370 734 370 c 0
 740 370 745 369 745 366 c 0
 745 334 707 345 703 325 c 1
 720 325 l 1
 720 317 l 1
 725 317 729 323 729 327 c 1
 730 326 735 326 739 326 c 0x1034920c
 753 326 752 331 758 331 c 0
 760 331 766 326 768 323 c 1
 768 301 730 283 720 276 c 1
 736 276 752 283 768 283 c 1
 768 275 l 1
 755 275 726 260 720 258 c 1
401 267 m 1
 406 254 l 1
 412 254 462 278 465 284 c 0
 465 285 463 288 462 288 c 0
 455 288 418 271 401 267 c 1
164 277 m 1
 153 277 140 267 134 258 c 1
 164 258 l 1
 164 277 l 1
383 294 m 0
 383 293 386 290 388 288 c 1x1054920c
 405 292 441 315 458 315 c 0
 459 315 461 314 462 314 c 1
 462 316 461 317 461 319 c 0x1094904c
 461 352 520 368 539 383 c 1
 530 387 l 1
 530 380 525 379 517 379 c 1
 454 363 441 345 406 323 c 1
 406 318 l 1
 419 324 441 331 457 331 c 1
 448 323 l 1
 388 302 l 1
 385 299 383 297 383 294 c 0
91 370 m 1
 89 346 86 293 86 293 c 1
 142 323 l 1
 144 322 146 322 148 322 c 0
 158 322 172 331 177 340 c 1
 176 340 173 342 173 342 c 1
 167 341 111 326 100 323 c 1
 96 323 94 329 94 329 c 1
 94 342 151 376 164 387 c 1
 162 393 159 393 156 393 c 0
 151 393 94 378 91 370 c 1
750 316 m 1
 730 316 710 313 710 290 c 1
 715 290 750 302 750 310 c 2
 750 316 l 1
173 327 m 1
 117 297 l 1
 136 297 155 302 177 305 c 1
 179 312 182 325 182 327 c 1
 173 327 l 1
354 331 m 1
 356 329 365 320 366 318 c 1
 379 320 417 342 436 357 c 1x1094908c
 436 361 432 367 429 367 c 1
 403 354 383 340 354 331 c 1
672 344 m 1
 680 341 685 340 693 340 c 0
 706 340 720 356 729 366 c 1
 711 366 687 353 672 344 c 1
190 387 m 1
 169 377 149 361 134 344 c 1
 140 345 167 351 173 353 c 1
 177 353 185 379 190 387 c 1
315 366 m 1
 315 362 329 356 336 349 c 1
 351 354 384 371 384 387 c 1
 379 384 376 383 371 383 c 0
 366 383 357 384 357 390 c 1
 371 399 391 401 410 401 c 1
 406 406 386 418 382 418 c 0
 378 418 351 399 340 396 c 1
 348 392 350 390 350 389 c 2
 350 389 348 379 345 379 c 1
 345 379 342 381 340 383 c 1
 340 371 320 367 315 366 c 1
397 379 m 1
 371 353 l 2
 372 353 374 352 375 352 c 0
 384 352 438 375 436 379 c 2
 418 401 l 1
 417 394 402 378 397 375 c 1
 397 379 l 1
281 396 m 1
 260 384 198 375 190 357 c 1
 217 357 241 370 267 370 c 0
 294 370 335 395 349 417 c 0
 350 417 287 393 285 392 c 1
 281 396 l 1
629 370 m 1
 629 361 l 1
 646 361 l 1
 712 392 l 1
 716 401 l 1
 687 390 658 381 629 370 c 1
703 426 m 1
 691 424 629 390 629 378 c 1
 633 378 694 408 714 408 c 0
 717 408 719 411 720 413 c 1
 703 426 l 1
160 407 m 1
 157 414 156 439 156 439 c 1
 97 439 l 2
 91 439 91 408 91 387 c 1
 114 400 115 407 136 423 c 1
 136 399 130 402 117 392 c 1
 133 392 143 407 160 407 c 1
307 457 m 1
 301 451 300 443 293 439 c 0
 282 431 232 394 220 387 c 1
 224 387 l 1
 354 431 l 1
 346 438 318 457 307 457 c 1
462 396 m 1
 462 387 l 1
 485 405 514 424 543 434 c 1
 483 417 l 1
 462 396 l 1
208 409 m 1
 208 400 l 1
 216 400 282 444 285 448 c 1
 245 448 213 413 199 409 c 1
 199 405 l 1
 208 409 l 1
EndSplineSet
Validated: 33
EndChar

StartChar: n
Encoding: 110 110 7
Width: 577
Flags: MW
HStem: -23 35 -20 21G<73 83.5> -19 21G<385 385 436 454> -14 21G<210.5 229.5> -11 23<143 167> -8 21G<431 444.5> -2 21G<493 505> 4 156<415 485.5 477 485.5 477 502> 63 97 145 99<96 196 471 471> 196 48<450 488> 300 43<355 411> 426 44 440 20G<362 366> 444 20G<89 89 89 140> 471 20G<70 86> 478 21G<292.5 311.5>
VStem: 62 30<291.5 321> 96 125<259 315> 109 112<229.5 315> 209 29<76.5 77> 385 28 385 134 502 30<4 4 26 28 -7 52 -7 52>
LayerCount: 2
Fore
SplineSet
61 17 m 2x4138e5
 61 50 l 2
 61 97 66 106 66 132 c 0
 66 134 63 140 62 141 c 1
 62 442 l 1
 70 491 l 1x413965
 102 491 133 491 165 495 c 1
 169 482 169 462 172 454 c 1
 201 474 255 499 299 499 c 0
 502 499 514 336 519 175 c 0x80b8e2
 521 115 532 58 532 -2 c 0x02b8e5
 532 -12 531 -23 523 -23 c 0x80b8e5
 495 -23 468 -19 440 -19 c 0x2138e5
 432 -19 410 -23 394 -23 c 0x80b8e5
 391 -23 385 -21 385 -19 c 2
 385 158 l 1
 377 173 378 202 376 214 c 0
 366 259 354 295 329 335 c 0
 314 358 277 360 252 360 c 0
 227 360 221 326 221 304 c 0x2138e5
 221 295 231 299 235 294 c 1
 235 290 227 283 225 278 c 1
 225 267 234 230 234 222 c 2
 234 205 l 1
 235 195 238 116 238 106 c 2
 238 99 l 2x80b8cd
 238 54 238 -14 221 -14 c 0x10b8e5
 200 -14 178 -11 156 -11 c 0x08b8e5
 130 -11 84 -20 83 -20 c 0
 63 -20 61 -16 61 17 c 2x4138e5
415 4 m 1
 426 -7 l 2
 428 -8 430 -8 432 -8 c 0x04b8e5
 457 -8 481 -2 505 -2 c 1x02b8e5
 502 4 l 1
 415 4 l 1
193 38 m 2x4138e5
 187 38 l 2
 177 38 101 21 92 12 c 1
 196 12 l 2x8058e5
 199 12 208 24 208 25 c 0
 208 37 201 38 193 38 c 2x4138e5
493 115 m 1
 466 105 411 101 411 97 c 2
 415 20 l 1
 436 41 467 56 497 67 c 1
 497 71 l 1
 487 70 442 61 432 59 c 0
 431 59 428 59 428 59 c 1
 428 71 l 1
 437 78 479 104 488 111 c 0
 489 111 492 114 493 115 c 1
502 52 m 1
 479 52 446 38 432 20 c 1
 455 20 476 26 502 26 c 1
 502 52 l 1
92 132 m 1
 92 40 l 1
 165 71 l 1
 165 77 l 1
 147 77 134 63 115 63 c 0
 111 63 108 67 108 70 c 1
 108 70 110 76 204 123 c 1
 208 128 l 1
 135 106 l 1
 127 106 114 102 105 102 c 0
 101 102 96 102 96 106 c 0x80b8e5
 96 112 106 121 109 123 c 2x80b8d5
 173 158 l 1
 174 157 175 157 176 157 c 0
 179 157 181 160 182 162 c 1
 157 162 110 145 96 145 c 1
 92 132 l 1
209 77 m 1x80b8cd
 208 77 205 77 204 76 c 0
 178 63 155 64 126 41 c 1
 131 41 l 2
 162 41 209 42 209 77 c 1x80b8cd
497 90 m 1
 485 90 465 87 458 76 c 1
 469 79 482 78 497 80 c 1
 497 90 l 1
208 111 m 1
 204 109 175 91 173 87 c 1
 179 87 211 97 211 99 c 0
 211 100 208 110 208 111 c 1
402 227 m 1
 411 202 411 140 411 115 c 1
 471 145 l 1
 476 149 l 1
 463 149 450 145 435 145 c 0x8058cd
 431 145 428 146 428 153 c 0
 428 155 431 161 432 162 c 2
 488 196 l 1
 419 196 l 1
 418 202 415 209 415 213 c 0
 415 223 451 216 462 236 c 1
 402 227 l 1
135 123 m 1
 130 119 l 1
 150 124 209 132 209 143 c 0
 209 148 209 158 199 158 c 1
 135 123 l 1
449 127 m 1
 449 123 452 119 455 119 c 0
 468 119 491 120 491 137 c 1
 476 137 464 127 449 127 c 1
488 179 m 1
 478 176 461 165 458 162 c 1
 460 162 472 160 482 160 c 0x4138e5
 489 160 496 161 496 166 c 0
 496 167 488 179 488 179 c 1
88 179 m 0
 88 173 89 166 96 166 c 0x8058e5
 100 166 168 195 173 201 c 1
 152 201 127 183 109 183 c 0
 106 183 105 189 105 193 c 1
 196 244 l 1
 199 248 l 1
 170 243 143 227 115 227 c 1
 115 227 109 228 109 231 c 0x8058d5
 109 261 159 253 170 274 c 1
 148 274 129 257 105 257 c 0
 102 257 96 257 96 261 c 0
 96 271 197 327 196 326 c 1
 168 326 144 300 118 300 c 0
 113 300 108 304 108 307 c 1
 108 307 109 309 196 356 c 1
 199 360 l 1
 160 360 129 326 92 321 c 1
 92 262 88 232 88 179 c 0
204 198 m 1
 122 167 l 2
 124 167 135 166 137 166 c 0
 160 166 189 179 204 179 c 1
 204 198 l 1
488 227 m 1
 473 220 453 214 436 210 c 1
 439 210 450 209 452 209 c 0
 456 209 488 209 488 214 c 2
 488 227 l 1
201 227 m 1
 193 227 155 210 148 207 c 1
 185 211 l 2
 192 211 201 219 201 227 c 1
393 259 m 0
 393 255 393 244 400 244 c 0
 416 244 461 272 471 274 c 1
 471 279 l 1
 453 279 393 271 393 259 c 0
497 263 m 1
 482 263 456 258 450 244 c 1
 497 244 l 1
 497 263 l 1
202 270 m 2
 201 270 200 271 198 271 c 0
 184 271 143 249 143 248 c 1
 152 248 190 252 196 261 c 2
 202 270 l 2
367 318 m 0
 367 310 383 277 389 274 c 1
 467 313 l 1
 457 313 418 300 404 300 c 0
 401 300 395 306 393 310 c 1
 393 313 433 343 458 343 c 1
 462 347 l 1
 442 347 367 330 367 318 c 0
191 300 m 1
 183 298 171 295 165 287 c 1
 165 287 169 286 170 286 c 0
 174 286 191 295 191 295 c 1
 191 300 l 1
476 301 m 0
 474 301 450 291 441 287 c 1
 441 287 484 287 484 294 c 0
 484 299 480 301 476 301 c 0
476 335 m 1
 472 335 432 320 423 315 c 1
 434 315 471 325 476 330 c 1
 476 335 l 1
156 378 m 0
 155 378 153 377 152 377 c 1
 154 377 88 358 88 351 c 2
 88 330 l 1
 90 334 138 365 161 377 c 1
 160 377 157 378 156 378 c 0
350 357 m 1
 350 351 351 343 359 343 c 0
 362 343 439 379 441 382 c 1
 411 382 l 2
 397 382 373 357 350 357 c 1
468 371 m 1
 453 371 418 366 411 351 c 1
 413 350 418 349 423 349 c 0
 441 349 468 355 468 371 c 1
173 417 m 1
 159 417 91 380 91 373 c 0
 91 372 91 369 92 369 c 0
 95 371 99 373 105 373 c 1
 173 412 l 1
 173 417 l 1
313 426 m 0
 286 426 205 396 187 373 c 1
 193 373 l 2
 196 373 280 405 320 425 c 1
 320 425 314 426 313 426 c 0
303 382 m 1
 307 371 323 371 330 366 c 1
 385 403 l 1
 385 403 381 404 380 404 c 0
 373 404 312 388 303 382 c 1
273 395 m 1
 273 390 277 385 279 385 c 1
 278 385 286 387 286 391 c 1
 332 399 378 415 424 429 c 1
 412 436 399 438 389 438 c 1
 343 421 293 397 273 395 c 1
437 412 m 0
 429 412 401 401 401 390 c 1
 416 390 433 399 450 399 c 1
 447 409 444 412 437 412 c 0
89 464 m 1x80b2e5
 89 456 86 439 86 424 c 0
 86 413 88 403 92 399 c 1
 111 407 131 426 147 438 c 1
 147 443 l 1
 123 433 110 427 104 427 c 0
 102 427 100 430 100 432 c 0
 100 437 119 450 140 464 c 1
 89 464 l 1x80b2e5
204 429 m 1
 198 417 188 408 178 399 c 1
 187 395 l 1
 186 404 258 430 267 430 c 0
 280 430 301 442 316 455 c 1
 279 455 248 436 217 421 c 1
 217 421 215 420 214 420 c 1
 215 420 206 425 204 429 c 1
362 460 m 0x80b4e5
 346 459 329 451 320 438 c 1
 338 447 361 450 380 450 c 1
 374 459 370 460 362 460 c 0x80b4e5
310 478 m 0
 275 478 194 446 184 440 c 1x80b4e5
 250 447 270 466 331 470 c 1x80b8e5
 328 472 313 478 310 478 c 0
EndSplineSet
Validated: 33
EndChar

StartChar: nine
Encoding: 57 57 8
Width: 570
Flags: MW
HStem: -32 21G<213.5 218.5> -31 21G<223.5 224> -5 21G<223.5 234.5> 12 25<281.5 301> 25 72 46 51<247.5 283> 85 52<353 388> 128 43 128 147<264 300.5 297 300.5 297 314 297 323> 257 53<211 336> 313 30 313 83 344 211<69 267.5> 389 20 389 63<384 394> 438 70 445 20G<388 392 392 392> 463 20G<154 161> 466 20G<120.5 129> 474 20G<99 103 103 108.5> 477 99<73.5 207> 479 20G<404.5 413.5> 484 20G<457 472> 590 25<195.5 318 195.5 233> 628 52<196 325.5 308.5 310> 634 20G<313 314>
VStem: 26 154<424 440.5> 125 55<24 46> 159 21 331 148<336 389.5> 362 117<262 389.5 376.5 518> 475 47 496 26<345 361.5>
LayerCount: 2
Fore
SplineSet
125 37 m 0x9568019480
 125 55 159 50 159 62 c 0x9568018c80
 159 74 189 87 198 94 c 0
 254 134 292 202 310 258 c 1
 304 257 297 257 290 257 c 0
 132 257 26 351 26 494 c 0x956491a480
 26 505 34 526 34 538 c 1
 90 665 187 680 315 680 c 0
 336 680 353 661 375 658 c 1
 431 619 l 1
 432 617 469 574 491 555 c 1
 519 511 522 417 522 363 c 0
 522 281 515 245 452 145 c 0
 389 44 343 -3 224 -31 c 0x556801a1
 223 -31 219 -32 218 -32 c 0
 209 -32 186 -7 177 -1 c 0
 170 3 125 25 125 37 c 0x9568019480
211 7 m 1
 211 -3 218 -5 229 -5 c 0xa96801a480
 240 -5 299 6 301 12 c 1
 262 12 251 6 224 6 c 0
 220 6 216 6 211 7 c 1
180 27 m 1
 180 21 189 21 195 21 c 0
 219 21 242 22 267 25 c 1
 219 27 198 28 188 28 c 0
 180 28 180 27 180 27 c 1
210 51 m 1
 210 45 205 37 198 37 c 2
 336 37 l 2x926801a280
 352 37 404 99 417 150 c 1
 436 179 475 207 475 245 c 1
 472 245 466 244 467 244 c 1
 467 242 400 225 375 219 c 1
 376 218 382 214 384 214 c 0
 386 214 410 219 414 219 c 0
 417 219 431 215 431 208 c 1
 404 187 338 176 314 176 c 1
 342 191 381 187 405 206 c 1
 401 205 391 205 381 205 c 0
 362 205 340 207 340 214 c 1
 326 197 298 202 295 167 c 1
 314 167 l 1
 314 158 l 1
 306 158 l 2
 296 158 286 157 280 145 c 1
 300 145 l 2
 310 145 378 154 379 159 c 1
 378 160 372 162 370 162 c 0
 369 162 367 161 366 161 c 1
 366 171 l 1
 405 171 l 2
 409 171 409 165 409 162 c 0
 409 143 323 151 314 128 c 1
 271 128 l 2
 257 128 251 106 241 98 c 1
 242 98 247 97 248 97 c 0
 268 97 359 118 379 124 c 1
 360 127 322 128 323 128 c 1xa96801a1
 323 133 l 1
 336 135 349 136 363 136 c 0
 364 136 367 136 370 133 c 1
 375 133 379 137 384 137 c 0x926801a480
 392 137 401 133 401 123 c 0
 401 113 360 108 340 100 c 1
 357 100 l 1
 358 99 358 98 358 97 c 0xa96801a480
 358 92 354 86 353 85 c 2x926801a480
 306 72 l 1
 310 71 327 70 327 62 c 0
 327 59 295 46 271 46 c 0x956801a480
 260 46 224 48 215 48 c 1
 210 51 l 1
207 72 m 1
 207 59 l 1
 211 68 l 1
 235 71 264 81 289 81 c 1
 293 72 l 1
 299 88 308 85 323 89 c 1
 318 89 313 88 308 88 c 0
 297 88 293 90 293 98 c 1
 280 90 260 85 245 85 c 0
 242 85 235 90 233 94 c 1
 207 72 l 1
332 244 m 1
 326 236 323 227 323 219 c 1
 350 219 383 235 409 240 c 1
 461 253 l 2
 457 253 448 249 422 249 c 0
 419 249 399 253 396 253 c 0
 381 253 344 246 332 244 c 1
358 258 m 1
 366 260 382 262 392 262 c 2
 474 262 l 1
 478 258 l 1
 483 258 496 331 496 359 c 0
 496 364 496 367 495 369 c 1
 495 378 l 1
 487 426 l 1
 485 426 457 418 440 413 c 0
 411 404 375 409 349 391 c 1
 383 391 412 396 450 396 c 0x955101a480
 465 396 479 395 479 384 c 0
 479 369 368 350 353 343 c 1
 461 343 l 2
 463 343 470 340 470 337 c 1
 450 323 386 323 370 310 c 1
 405 310 l 1
 405 303 l 1
 401 303 383 305 379 305 c 0
 373 304 343 298 336 296 c 1
 342 296 345 293 345 288 c 0
 345 278 335 275 335 266 c 1
 340 266 l 1
 405 284 l 1
 409 284 l 1
 466 301 l 1
 461 302 415 302 414 310 c 1
 466 310 l 1
 474 301 l 1
 449 268 377 276 362 262 c 2
 358 258 l 1
218 287 m 1
 218 276 244 278 297 275 c 0x94a501a480
 304 275 323 304 336 310 c 1
 370 318 l 1
 370 325 l 1
 224 287 l 1
 218 287 l 1
332 357 m 1
 286 335 239 318 194 296 c 1
 243 305 298 315 344 333 c 1
 332 333 l 1
 332 334 331 335 331 337 c 0
 331 361 388 363 401 363 c 1
 466 387 l 1
 432 387 413 389 375 389 c 0
 352 389 328 385 318 369 c 1
 324 369 333 369 333 361 c 0
 333 360 332 357 332 357 c 1
148 313 m 1
 148 305 162 304 170 304 c 0
 205 304 241 328 271 343 c 1
 271 343 268 344 267 344 c 0x9568019280
 225 344 188 313 148 313 c 1
103 343 m 1
 114 338 124 326 125 326 c 1
 125 329 200 348 207 361 c 1
 173 361 136 356 103 343 c 1
226 353 m 0
 219 353 210 353 207 343 c 1
 220 343 233 348 237 352 c 1
 235 352 227 353 226 353 c 0
86 361 m 1
 90 357 l 1
 111 375 147 376 163 400 c 1
 141 400 121 395 98 395 c 0
 90 395 82 397 78 404 c 1
 88 418 151 437 151 451 c 1
 121 448 60 441 60 430 c 0
 60 427 60 423 64 421 c 1
 86 361 l 1
172 383 m 2
 168 383 l 1
 125 361 127 361 127 361 c 2
 128 361 171 371 181 374 c 1
 181 380 178 383 172 383 c 2
202 395 m 1
 213 378 244 377 262 377 c 0
 266 377 276 377 276 378 c 2
 327 404 l 2
 353 417 362 488 362 510 c 0
 362 526 345 555 327 555 c 0
 326 555 323 554 321 554 c 0
 309 554 304 559 293 559 c 0
 240 559 189 535 189 470 c 0
 189 458 180 444 180 437 c 0
 180 411 202 419 219 413 c 1
 202 395 l 1
149 430 m 0
 136 429 114 417 103 409 c 1
 151 409 l 2x956501a480
 152 409 155 415 155 417 c 0
 155 419 152 430 149 430 c 0
379 442 m 0
 369 439 369 421 369 413 c 1
 384 413 l 1
 469 434 l 1
 474 439 l 1
 469 438 465 438 461 438 c 0
 440 438 419 443 399 443 c 0
 395 443 382 442 379 442 c 0
384 452 m 1x956243a480
 417 452 452 451 487 447 c 1
 487 491 l 1
 478 496 476 536 466 538 c 1
 388 508 l 1x956501a480
 420 508 442 504 472 504 c 1
 472 502 474 495 474 490 c 0
 474 486 473 483 469 482 c 2
 384 452 l 1x956243a480
51 500 m 0
 51 483 51 470 60 456 c 1
 80 468 116 466 129 486 c 1x9564a1a480
 112 486 93 477 78 477 c 0x956489a480
 69 477 63 478 63 486 c 0
 63 498 101 507 129 517 c 1
 127 516 150 530 163 533 c 1
 126 533 74 520 56 520 c 1
 52 517 l 2
 52 516 51 504 51 500 c 0
161 483 m 1x956443a480
 147 483 97 461 95 456 c 1
 116 456 161 457 161 483 c 1x956443a480
384 486 m 0x9564a1a480
 384 477 384 465 388 465 c 2
 392 465 l 1
 466 491 l 1
 466 496 420 499 407 499 c 0x956485a480
 402 499 384 492 384 486 c 0x9564a1a480
177 525 m 1
 99 494 l 1
 103 494 l 2x956491a480
 114 494 168 508 168 508 c 1x956501a480
 177 525 l 1
379 538 m 1
 379 530 387 525 392 525 c 0
 409 525 443 541 457 546 c 1
 392 546 l 2
 390 546 380 541 379 538 c 1
69 555 m 1x956801a480
 67 548 60 532 60 529 c 1
 84 544 105 538 137 559 c 1
 116 559 98 554 79 554 c 0
 75 554 72 555 69 555 c 1x956801a480
211 572 m 1
 193 567 177 555 160 550 c 1
 167 550 178 555 189 555 c 0x956801a480
 191 555 201 550 202 550 c 2
 211 559 l 2
 232 580 289 577 318 590 c 1
 233 590 l 1
 228 593 l 1
 250 616 285 612 310 628 c 1
 307 628 292 629 289 629 c 0
 265 629 261 624 245 624 c 0
 241 624 207 628 202 628 c 0
 190 628 180 623 168 623 c 1
 168 619 l 1
 174 617 182 615 209 615 c 0
 219 615 229 615 233 616 c 1
 217 589 177 591 155 576 c 1
 207 576 l 1x956489a480
 211 572 l 1
432 568 m 0
 415 568 399 562 384 555 c 1
 404 555 l 2
 419 555 432 555 448 559 c 1
 445 568 439 568 432 568 c 0
349 576 m 1x9564895280
 349 572 l 1
 349 572 362 564 367 564 c 1
 367 564 410 572 414 581 c 1
 394 581 352 576 349 576 c 1x9564895280
103 593 m 1
 78 567 l 1
 86 567 92 572 99 572 c 1
 181 598 l 1
 181 603 l 1
 153 603 131 593 103 593 c 1
403 607 m 0
 394 607 389 592 375 590 c 1
 378 590 382 589 387 589 c 0
 395 589 409 589 409 596 c 0
 409 598 406 607 403 607 c 0
358 637 m 0
 353 637 307 615 293 611 c 0
 289 610 275 604 271 602 c 1
 291 602 319 611 340 611 c 0
 343 611 359 607 362 607 c 0
 367 607 391 609 392 616 c 1
 384 625 369 637 358 637 c 0
125 611 m 1
 111 607 l 1
 125 607 l 1
 125 611 l 1
160 616 m 1
 148 616 l 1
 148 616 132 615 132 610 c 0
 132 609 133 608 134 607 c 1
 141 607 153 610 160 616 c 1
313 654 m 1
 315 654 270 644 259 641 c 1
 314 641 l 1
 323 645 l 1
 321 648 317 652 313 654 c 1
EndSplineSet
Validated: 37
EndChar

StartChar: o
Encoding: 111 111 9
Width: 574
Flags: MW
HStem: -27 35<302 385> -5 21G<325 329.5> 37 69<257 355.5> 82 24 137 165<467.5 482.5 467.5 486> 150 121<59.5 125 89 125 96 125 108 166> 327 70 347 45 361 31<278.5 283> 392 30<263.5 295.5> 457 20G<274 291 291 306.5>
VStem: 20 25<192.5 208 192.5 228.5> 166 22<160.5 233> 184 181<314 410.5> 382 163<198 199 122.5 229.5> 499 46<74.5 199> 517 28<123.5 139>
LayerCount: 2
Fore
SplineSet
20 192 m 0x693a
 20 265 38 293 77 354 c 1
 116 431 189 466 274 477 c 1
 291 477 l 2
 322 477 343 464 373 456 c 0
 459 434 488 384 520 305 c 0
 536 266 545 220 545 178 c 0
 545 67 493 27 395 -10 c 0
 371 -19 360 -27 332 -27 c 0xa939
 272 -27 224 -8 171 16 c 0
 163 20 130 30 106 42 c 0
 69 61 20 150 20 192 c 0x693a
317 -1 m 1
 318 -2 324 -5 326 -5 c 0x693a
 333 -5 373 8 385 8 c 1
 387 7 439 29 451 34 c 0
 465 40 499 66 499 83 c 0
 499 84 498 85 498 86 c 1
 461 62 404 46 400 46 c 1
 377 24 342 22 317 -1 c 1
248 8 m 1xa93a
 264 4 271 3 285 3 c 0
 292 3 333 22 352 34 c 0
 353 34 355 37 356 37 c 1
 322 37 279 24 248 8 c 1xa93a
210 25 m 1
 210 21 214 21 217 21 c 0
 231 21 267 42 272 42 c 1
 270 42 220 28 210 25 c 1
154 46 m 1
 154 41 183 34 191 34 c 0
 192 34 262 59 262 72 c 1
 230 53 188 54 154 46 c 1
326 54 m 2
 326 51 l 1
 288 34 l 1
 327 34 357 50 387 72 c 0
 420 96 453 113 486 137 c 1
 436 137 390 82 343 82 c 1x98b880
 343 91 l 1
 335 91 298 79 296 72 c 1
 296 74 257 86 252 86 c 1
 252 71 286 71 286 70 c 0
 286 65 244 48 239 42 c 1
 274 52 287 52 321 63 c 1
 326 62 326 58 326 54 c 2
195 83 m 2
 115 68 l 1
 123 56 135 53 149 51 c 1
 201 81 l 2
 200 81 196 83 195 83 c 2
517 139 m 1
 503 139 400 64 399 63 c 1
 408 63 l 1
 464 89 l 1
 464 81 l 1
 490 90 517 108 517 139 c 1
204 73 m 1
 227 72 l 2
 230 72 240 79 240 88 c 1
 204 73 l 1
90 101 m 1
 90 95 94 83 102 81 c 1
 113 81 171 104 175 112 c 1
 166 115 l 1
 143 108 116 101 90 101 c 1
205 103 m 0
 198 103 178 99 178 96 c 0
 178 94 183 93 187 93 c 0
 197 93 212 97 218 98 c 1
 213 102 211 103 205 103 c 0
188 219 m 0
 188 156 224 106 290 106 c 0
 334 106 371 129 399 163 c 1
 396 158 395 154 395 150 c 1
 419 166 440 186 468 197 c 1
 467 197 462 198 462 198 c 1
 449 198 426 186 416 185 c 0
 413 185 412 190 412 191 c 0
 412 208 456 229 468 244 c 1
 464 244 l 1
 408 223 l 2
 404 221 401 176 390 163 c 0
 381 153 362 133 361 133 c 2
 356 133 l 1
 380 149 382 185 382 211 c 0
 382 248 365 345 321 352 c 1
 316 349 311 347 308 347 c 0xa53a
 296 347 289 361 277 361 c 0
 245 361 196 305 196 278 c 0
 196 274 197 271 197 268 c 0
 197 261 188 247 188 219 c 0
425 150 m 1
 411 149 369 133 369 112 c 1
 379 122 419 138 425 150 c 1
178 137 m 2xa936
 132 124 l 2
 131 124 127 125 122 125 c 0
 116 125 109 123 109 118 c 0
 109 117 110 116 110 115 c 1
 139 115 159 118 184 128 c 1
 184 130 181 137 178 137 c 2xa936
520 178 m 2
 520 189 l 1
 486 161 444 147 408 124 c 1
 390 115 l 1
 395 115 l 2
 407 115 513 161 516 163 c 0
 520 165 520 170 520 178 c 2
72 133 m 1
 73 128 77 120 82 120 c 0
 88 120 166 149 166 150 c 1xa53a
 135 150 101 143 72 133 c 1
54 161 m 1
 54 153 56 150 63 150 c 0
 81 150 135 180 140 180 c 1
 140 185 l 1
 139 185 137 184 136 184 c 0
 109 177 77 173 54 161 c 1
160 177 m 1
 160 177 91 153 89 150 c 1
 96 150 l 2
 103 150 166 154 166 167 c 0
 166 171 163 177 160 177 c 1
162 219 m 1
 146 208 63 187 63 176 c 1
 94 187 157 178 162 219 c 1
468 185 m 1
 468 180 l 1
 479 188 493 192 507 193 c 1
 520 197 l 1
 516 215 l 1
 500 215 501 197 468 185 c 1
151 232 m 1
 131 232 45 223 45 193 c 0
 45 192 45 186 46 185 c 1
 80 205 122 209 151 232 c 1
508 253 m 1
 503 253 l 2
 492 253 457 219 434 202 c 1
 453 206 508 228 508 253 c 1
132 271 m 2
 125 271 l 2
 91 271 50 271 50 232 c 1
 88 243 157 269 158 270 c 1
 154 270 136 271 132 271 c 2
162 258 m 1
 156 252 143 253 119 241 c 1
 121 241 126 240 128 240 c 0
 135 240 163 244 163 255 c 0
 163 256 162 257 162 258 c 1
420 244 m 2
 416 239 l 1
 498 267 l 1
 498 289 l 1
 498 289 482 284 477 279 c 0
 473 275 421 244 420 244 c 2
468 288 m 1
 460 288 l 2
 458 288 425 273 412 267 c 0
 406 264 406 258 406 252 c 1
 424 252 455 280 468 288 c 1
93 279 m 1
 98 275 l 1
 134 284 166 274 184 314 c 1
 184 342 261 392 296 392 c 1xa936
 295 392 328 377 339 377 c 0
 345 377 378 404 382 409 c 0
 383 409 386 412 387 413 c 1
 374 413 l 1
 374 420 377 423 387 426 c 1
 386 427 380 430 378 430 c 1
 379 430 361 421 361 417 c 1
 363 417 365 411 365 410 c 0
 365 398 342 397 326 397 c 2
 319 397 l 2xaa36
 315 397 313 397 313 400 c 1
 326 417 l 1
 280 405 227 378 184 361 c 0xa8b6
 165 354 174 337 166 335 c 0
 141 330 91 331 76 305 c 1
 104 319 136 327 165 327 c 0xaa3a
 169 327 174 326 175 322 c 1
 169 318 169 310 162 305 c 1
 139 297 91 278 93 279 c 1
482 323 m 1
 455 310 427 302 404 275 c 1
 427 278 454 302 481 302 c 0
 484 302 487 301 490 301 c 1
 489 304 492 323 482 323 c 1
67 292 m 1
 63 288 63 282 63 279 c 1
 71 283 111 297 136 310 c 1
 122 310 83 298 67 292 c 1
442 338 m 1
 431 338 409 314 410 314 c 0
 412 314 452 327 460 331 c 0
 460 332 463 335 464 335 c 0
 465 335 472 335 477 331 c 1
 478 333 478 335 478 337 c 0
 478 350 450 348 450 350 c 0
 450 352 453 357 455 366 c 1
 446 366 437 356 425 356 c 0
 424 356 418 357 416 357 c 2
 455 374 l 1
 445 393 l 1
 404 361 l 2xa8ba
 403 361 402 362 401 362 c 0
 394 362 390 352 378 352 c 1
 384 360 417 382 417 384 c 0
 417 385 416 386 416 387 c 1
 361 366 360 364 360 364 c 1
 360 359 386 328 390 318 c 1
 399 325 437 347 442 347 c 1
 442 338 l 1
162 404 m 0
 129 404 93 360 93 331 c 1
 136 343 l 1
 138 349 144 359 149 361 c 2xa8ba
 227 392 l 1
 226 394 226 395 226 396 c 0
 226 415 272 410 279 421 c 1
 278 421 275 422 274 422 c 0xa87a
 253 422 218 403 216 403 c 2
 209 403 l 2
 204 403 200 403 197 400 c 1
 201 395 l 1
 190 392 l 1
 190 404 l 1
 186 404 l 2
 184 404 158 374 119 374 c 1
 131 390 161 393 166 404 c 1
 166 404 163 404 162 404 c 0
416 413 m 0
 404 413 377 393 369 383 c 1
 373 383 l 1
 429 404 430 406 430 406 c 1
 430 412 421 413 416 413 c 0
231 447 m 1
 209 443 183 437 166 421 c 1
 186 421 221 425 231 447 c 1
296 430 m 0
 296 428 299 426 300 426 c 2
 347 434 l 1
 336 442 319 448 305 448 c 0
 298 448 296 438 296 430 c 0
EndSplineSet
Validated: 37
EndChar

StartChar: v
Encoding: 118 118 10
Width: 524
Flags: MW
HStem: -35 21G -27 38 -22 21G<297 319 297 297> -9 21G -4 51 36 54<176 225.5> 69 21 69 47<172 215> 69 64<202.5 297.5> 69 86<156 215> 163 69<281.5 378.5> 275 35<387 393> 303 41<138 138> 303 91 318 26<345 439> 318 108<345 486 345 486> 409 70<403.5 445> 452 27<414 445 414 491 396 445> 455 20G<39 49.5>
VStem: 192 146
LayerCount: 2
Fore
SplineSet
205 -14 m 1x943290
 238 -14 263 -9 297 -9 c 1
 289 -31 259 -22 246 -35 c 1
 234 -32 205 -33 205 -14 c 1x943290
112 224 m 1
 81 289 61 351 34 417 c 1
 30 432 8 456 8 459 c 0
 8 473 36 475 42 475 c 0x8a3230
 57 475 141 470 150 461 c 0
 159 452 160 442 164 431 c 0
 193 343 219 251 259 173 c 1
 259 189 297 237 297 262 c 0
 297 265 320 308 327 323 c 0
 339 348 377 401 377 453 c 0
 377 458 375 463 375 468 c 0
 375 475 400 479 428 479 c 0
 462 479 500 473 500 463 c 0
 500 462 493 452 491 452 c 2
 396 452 l 1
 491 443 l 2
 495 442 496 438 496 433 c 0
 496 430 495 426 495 426 c 1
 502 430 506 436 506 443 c 1
 517 443 l 1
 517 422 l 1
 404 159 l 2
 384 112 339 70 338 16 c 1
 330 -2 320 -12 319 -22 c 1
 297 -22 l 1x243150
 301 -12 309 -8 309 4 c 1
 298 4 237 -1 198 -4 c 1x8a3290
 198 -8 199 -12 199 -15 c 0
 199 -22 196 -27 187 -27 c 0x443290
 175 -27 171 -16 168 -4 c 2x8a3290
 112 224 l 1
220 17 m 1
 215 12 l 1x923290
 239 12 258 11 276 11 c 0x443290
 301 11 328 15 328 47 c 1
 323 47 l 1
 220 17 l 1
246 107 m 1
 176 90 l 1
 179 79 190 28 194 17 c 1
 198 19 219 25 224 26 c 0
 235 28 234 37 246 37 c 1
 240 37 230 36 221 36 c 0x443290
 206 36 192 39 192 54 c 1
 192 54 193 60 194 60 c 2
 246 73 l 1
 235 73 224 69 206 69 c 0
 199 69 193 76 193 82 c 0
 193 83 194 86 194 86 c 1
 246 107 l 1
220 52 m 1
 222 50 230 47 232 47 c 0x8a3290
 264 47 282 61 312 61 c 0
 317 61 322 61 327 60 c 1
 329 77 335 82 345 90 c 0
 345 91 340 91 338 91 c 0
 329 91 328 85 319 81 c 1
 284 70 251 62 220 52 c 1
284 107 m 1
 265 107 239 96 224 86 c 1
 246 86 265 90 287 90 c 0x443290
 302 90 305 103 319 103 c 1
 309 105 283 107 284 107 c 1
198 129 m 1
 190 129 180 128 172 125 c 1
 172 116 l 1x413290
 198 129 l 1
284 120 m 1
 297 116 l 1
 362 116 l 2
 367 116 367 134 375 137 c 1
 347 137 314 127 284 120 c 1
241 129 m 0
 238 129 230 124 228 120 c 1
 247 120 l 1
 247 123 245 129 241 129 c 0
271 145 m 0
 271 136 273 133 282 133 c 0x40b290
 313 133 343 141 375 146 c 1
 372 148 311 163 289 163 c 0
 274 163 271 154 271 145 c 0
226 164 m 0
 210 164 188 152 181 140 c 1
 203 140 210 155 224 155 c 1x407290
 220 146 l 1
 223 146 233 150 233 153 c 1
 230 157 229 164 226 164 c 0
156 155 m 1
 206 169 l 1
 206 176 l 1
 193 176 156 175 156 155 c 1
323 168 m 1
 328 163 364 159 376 159 c 0
 384 159 393 173 393 181 c 1
 373 181 346 173 327 169 c 2
 323 168 l 1
381 196 m 1
 305 194 l 2
 294 193 287 185 287 176 c 0
 287 175 288 173 288 172 c 1
 313 184 336 180 362 185 c 1
 362 181 l 1
 378 192 396 182 396 211 c 1
 389 207 378 202 371 200 c 1
 381 196 l 1
215 189 m 1
 213 204 l 1
 205 201 188 194 188 184 c 1
 195 184 202 190 210 190 c 0
 212 190 213 189 215 189 c 1
147 207 m 1
 147 196 152 188 155 187 c 1
 206 213 l 1
 201 214 196 215 191 215 c 0
 175 215 160 214 147 207 c 1
328 211 m 0
 333 211 336 211 336 202 c 1
 388 218 l 1
 364 222 317 233 310 233 c 1
 304 226 301 207 301 207 c 1
 309 207 326 211 328 211 c 0
144 218 m 1
 185 236 l 1
 189 235 190 232 190 228 c 1
 199 228 l 1
 199 235 199 244 194 250 c 1
 147 228 l 1
 142 228 l 1
 144 218 l 1
331 236 m 1
 344 232 359 232 373 232 c 0
 384 232 406 232 413 233 c 1
 444 306 l 1
 453 310 463 381 482 384 c 1
 481 385 478 388 476 388 c 0
 474 388 463 377 461 375 c 1
 438 372 404 369 404 366 c 2
 404 361 l 1
 456 353 l 1
 447 336 l 1
 413 328 l 1
 418 328 426 327 430 323 c 1
 418 318 l 1
 345 318 l 1
 340 306 l 1
 392 306 l 1
 387 310 l 1
 403 310 418 314 422 314 c 0
 428 314 429 312 430 310 c 1
 428 310 392 300 371 297 c 1
 371 302 l 1
 362 296 348 293 340 293 c 1
 340 284 401 286 401 284 c 1
 413 271 l 1
 406 260 344 237 331 236 c 1
129 254 m 1
 131 243 136 240 144 240 c 0
 158 240 170 250 180 259 c 1
 162 259 148 254 129 254 c 1
366 274 m 0
 357 274 346 281 337 281 c 0
 328 281 314 270 314 241 c 1
 344 253 372 258 401 271 c 1
 400 274 396 275 390 275 c 0
 383 275 374 274 366 274 c 0
181 289 m 0
 168 289 152 280 142 271 c 1
 150 272 156 272 161 272 c 0
 170 272 176 271 185 271 c 0
 187 271 189 274 189 276 c 0
 189 286 188 289 181 289 c 0
111 291 m 0
 111 286 121 279 123 279 c 0
 138 283 172 296 172 302 c 1
 162 302 154 303 138 303 c 0x442890
 125 303 111 301 111 291 c 0
138 318 m 1x443290
 139 317 142 313 144 313 c 0
 148 313 155 323 161 323 c 0
 165 323 167 318 173 318 c 1
 173 326 171 332 162 332 c 0
 152 332 143 326 138 318 c 1x443290
90 335 m 1
 98 318 l 1
 111 318 126 331 138 344 c 1
 122 338 106 344 90 335 c 1
379 405 m 1
 377 379 353 360 353 335 c 1
 374 335 392 340 404 340 c 0
 405 340 412 335 413 335 c 0
 418 335 428 344 439 344 c 1
 379 358 l 1
 379 358 376 363 375 366 c 1
 393 381 436 379 465 387 c 1
 456 388 414 394 404 396 c 1
 400 399 384 405 379 405 c 1
98 358 m 1
 107 353 110 353 118 353 c 0
 122 353 145 356 155 358 c 1
 154 372 148 383 147 384 c 1
 98 358 l 1
77 379 m 0
 77 374 78 371 81 366 c 1
 116 384 l 2
 115 384 109 387 107 387 c 0
 98 387 77 386 77 379 c 0
404 409 m 0
 403 409 456 394 475 394 c 0x442490
 479 394 481 395 482 396 c 1
 486 392 l 1
 495 417 l 1
 498 417 434 411 404 409 c 0
130 424 m 0
 130 407 94 412 94 396 c 1
 147 396 l 1
 147 402 140 426 133 445 c 1
 121 445 93 437 86 426 c 1x443150
 98 429 107 431 119 431 c 0
 123 431 130 431 130 424 c 0
98 417 m 1
 79 417 65 413 65 413 c 1
 65 401 l 1
 98 417 l 1
392 443 m 1
 390 436 388 425 383 417 c 1
 395 422 403 424 410 424 c 0
 420 424 427 421 436 421 c 0
 439 421 441 426 444 426 c 2
 486 426 l 1
 491 431 l 1
 435 443 l 1
 434 442 428 439 427 439 c 0
 425 439 422 442 422 443 c 1
 392 443 l 1
43 443 m 1
 43 438 50 432 51 431 c 1
 90 448 l 2
 88 448 77 449 75 449 c 0
 63 449 55 449 43 443 c 1
EndSplineSet
Validated: 37
EndChar

StartChar: w
Encoding: 119 119 11
Width: 753
Flags: MW
HStem: -35 21G<269 288> -22 21G<569.5 586> -13 21<507.5 519> -12 21G<175 180> 0 21G 21 25 60 29<493.5 507 493.5 523 471 507> 79 33 110 31<173 179 173 191> 125 69<597.5 605> 137 57 168 26 185 133 207 94<342 405.5 367.5 405.5 368 405.5> 219 31 241 60 310 60<333.5 337 337 409> 359 60<346.5 411> 359 93 397 22<399 411 399 416.5> 441 20G<654 667.5> 442 20G<600 605.5> 450 20G<17.5 31> 457 21<325 371.5 337 371.5 337 389 629.5 639> 463 20G<24 27.5>
VStem: 153 201<284.5 320 284.5 401> 460 137<58 87> 597 133
LayerCount: 2
Fore
SplineSet
269 -35 m 1xa6949160
 180 -12 l 1x96949160
 170 -12 161 -13 153 -13 c 1
 124 4 100 132 100 159 c 0
 100 162 100 165 101 168 c 1
 53 353 l 1
 53 358 44 470 18 470 c 0xa6949260
 17 470 16 470 14 469 c 1
 15 475 21 483 27 483 c 0
 28 483 88 472 122 469 c 1
 129 466 144 405 153 401 c 1
 191 318 l 1xa68844e0
 200 224 207 189 212 177 c 1
 226 189 l 1
 244 229 274 293 278 310 c 1xa6949160
 272 311 271 320 271 324 c 1
 283 324 290 342 290 351 c 0
 290 365 308 403 316 452 c 1xa6942160
 316 461 316 478 358 478 c 0
 385 478 409 474 419 469 c 1
 426 442 455 409 455 379 c 0
 455 376 455 373 454 370 c 1
 480 306 l 1
 479 303 479 299 479 294 c 0
 479 283 495 187 510 168 c 1xa6949160
 513 173 514 179 514 185 c 0xa6884160
 514 189 513 194 513 198 c 0
 513 206 515 213 523 219 c 1
 534 293 556 364 587 431 c 1
 587 440 593 472 593 478 c 1
 657 478 l 2
 707 478 730 460 730 432 c 0
 730 369 656 178 626 107 c 1
 621 75 599 -22 573 -22 c 0x46929150
 566 -22 551 -16 544 -13 c 1
 467 -13 l 1
 459 -4 l 2
 458 -3 441 37 436 52 c 0
 428 75 429 122 419 142 c 0
 405 171 405 197 381 228 c 1
 377 224 372 218 372 215 c 0
 372 213 378 207 381 207 c 2
 368 207 l 2
 367 207 352 161 346 142 c 0
 336 107 307 -35 269 -35 c 1xa6949160
460 70 m 1
 460 46 477 7 493 7 c 0
 499 7 506 8 509 8 c 0xa6949160
 529 8 561 5 566 -4 c 1
 576 17 597 63 597 87 c 1
 586 87 576 86 566 81 c 1
 568 79 568 77 568 76 c 0
 568 70 553 69 553 69 c 1
 579 60 l 1
 579 42 543 38 543 29 c 0
 543 28 543 27 544 21 c 1
 493 21 l 2
 489 21 479 28 479 32 c 0
 479 46 533 44 533 52 c 0
 533 54 530 57 523 60 c 1
 471 60 l 1
 470 67 467 70 460 70 c 1
195 8 m 1
 219 8 244 0 270 0 c 0x8a949160
 276 0 282 24 282 26 c 1
 262 26 204 16 195 8 c 1
156 45 m 2
 156 40 161 12 170 12 c 0
 177 12 179 13 179 15 c 0
 179 18 176 22 176 25 c 1
 180 24 183 23 189 23 c 0
 199 23 217 26 256 38 c 1
 241 38 191 42 156 52 c 1
 156 51 156 45 156 45 c 2
165 69 m 1
 187 62 205 62 226 52 c 0
 226 51 229 47 230 47 c 2
 230 47 237 51 238 52 c 1
 252 52 265 46 280 46 c 0
 283 46 290 47 290 47 c 1
 299 78 l 1
 287 78 274 79 262 79 c 0
 229 79 196 77 165 69 c 1
501 73 m 1
 509 71 535 69 535 69 c 2
 537 69 540 69 544 73 c 1
 501 73 l 1
135 110 m 1xa6949160
 135 107 146 81 148 81 c 2
 273 95 l 1
 200 112 l 1xa5449160
 191 110 l 1
 135 110 l 1xa6949160
506 109 m 1
 500 109 477 98 462 90 c 1
 475 90 487 89 500 89 c 0
 514 89 527 90 540 95 c 1
 542 92 542 90 547 90 c 1
 551 92 566 99 579 99 c 1
 570 103 558 104 546 104 c 0
 530 104 514 102 506 102 c 1
 506 109 l 1
230 120 m 1
 253 118 292 104 307 99 c 1
 320 133 l 1
 299 133 272 125 252 125 c 0xa5449160
 250 125 247 128 247 129 c 2
 230 120 l 1
449 134 m 1
 449 124 451 107 462 107 c 0
 469 107 488 119 489 122 c 1
 489 134 457 134 449 134 c 1
549 116 m 2
 553 112 l 1
 605 112 l 1
 605 125 l 1
 587 125 553 115 553 115 c 2
 552 115 550 116 549 116 c 2
165 120 m 1
 169 119 187 116 191 116 c 0
 196 116 200 120 200 125 c 1xa6449160
 196 129 187 162 182 181 c 1
 170 168 l 1
 170 179 149 179 136 179 c 0
 132 179 129 178 127 178 c 1
 127 172 l 1
 161 163 l 1
 151 163 134 163 134 150 c 0
 134 149 135 147 135 146 c 1
 136 147 142 151 144 151 c 0
 152 151 168 141 178 141 c 0xa6949160
 180 141 181 142 182 142 c 1
 180 128 167 134 165 120 c 1
135 137 m 1xa6249160
 135 128 l 1
 142 128 154 128 161 133 c 1
 155 138 150 138 144 138 c 0
 142 138 137 137 135 137 c 1xa6249160
523 137 m 1
 528 133 532 133 537 133 c 0
 541 133 564 135 575 137 c 1
 523 137 l 1
238 168 m 1xa6949160
 227 166 224 144 224 136 c 1
 235 136 242 150 252 155 c 1
 252 154 251 149 251 148 c 0
 251 143 259 140 269 140 c 0
 285 140 308 146 316 151 c 1
 285 156 260 168 238 168 c 1xa6949160
441 159 m 1
 454 155 486 145 485 145 c 1
 485 149 483 159 480 168 c 1
 470 168 452 168 441 159 c 1
558 159 m 1
 576 151 585 150 602 150 c 0
 623 150 623 161 623 172 c 1
 606 172 577 171 562 163 c 1
 558 159 l 1
260 177 m 1
 329 163 l 1
 334 172 338 189 338 189 c 2
 338 190 337 194 337 194 c 1
 319 188 274 189 260 177 c 1
596 185 m 1xa6884160
 544 185 l 1
 542 182 539 175 539 171 c 1
 558 171 582 173 596 185 c 1xa6884160
435 186 m 1
 435 179 440 177 445 177 c 0
 448 177 458 178 467 181 c 1
 456 184 435 186 435 186 c 1
122 198 m 1
 140 189 160 194 178 185 c 1xa6884160
 178 189 179 193 179 197 c 0
 179 209 178 219 170 219 c 0xa6929160
 161 219 156 207 152 207 c 0xa6949160
 147 207 142 208 137 208 c 0
 131 208 126 206 122 198 c 1
260 215 m 1
 256 207 255 203 255 195 c 0
 255 194 256 190 256 189 c 2
 307 202 l 1
 307 206 l 1
 306 206 276 210 260 215 c 1
424 207 m 1xa6449160
 432 205 458 197 467 197 c 1
 467 216 l 2
 467 215 436 210 424 207 c 1xa6449160
549 207 m 1
 556 197 587 194 608 194 c 0
 627 194 632 195 648 228 c 1
 627 228 554 217 549 207 c 1
290 224 m 1
 342 207 l 1
 346 210 348 218 348 225 c 0
 348 228 348 231 347 233 c 1
 325 233 l 1
 320 224 l 1
 315 227 313 228 307 228 c 0
 301 228 297 227 290 224 c 1
116 237 m 1
 116 230 116 218 122 211 c 1
 127 221 143 224 153 224 c 1
 146 234 128 237 116 237 c 1
407 233 m 1
 410 224 412 224 419 224 c 1
 418 224 437 225 450 228 c 1
 439 232 431 234 421 234 c 0
 417 234 412 234 407 233 c 1
617 241 m 1xa6919160
 562 241 553 237 553 227 c 1
 562 227 609 236 617 241 c 1xa6919160
113 250 m 1xa6929160
 124 245 155 236 170 236 c 1
 170 268 l 1
 151 268 132 252 113 250 c 1xa6929160
287 271 m 1
 278 236 l 1
 297 242 318 239 337 245 c 1
 287 271 l 1
385 271 m 1
 389 257 402 250 418 250 c 0
 427 250 451 267 454 267 c 1
 454 271 l 2
 454 276 434 276 428 276 c 0
 413 276 402 274 385 271 c 1
648 254 m 1
 650 251 652 249 654 249 c 0
 658 249 665 277 665 280 c 1
 562 259 l 1
 583 256 606 253 629 253 c 0
 635 253 642 253 648 254 c 1
298 286 m 0
 298 284 301 282 303 280 c 0
 336 260 349 258 354 258 c 0
 360 258 360 263 360 267 c 0
 360 274 354 281 354 288 c 0
 354 296 359 306 368 306 c 0
 376 306 390 301 401 301 c 0xa6949160
 410 301 417 304 419 314 c 1
 410 310 l 1
 337 310 l 2
 330 310 328 309 328 307 c 0
 328 305 329 304 329 302 c 0
 329 290 298 304 298 286 c 0
105 280 m 1
 104 279 103 277 103 274 c 0
 103 270 105 264 109 262 c 1
 118 265 131 266 139 271 c 1
 129 273 118 276 105 280 c 1
566 302 m 1
 566 271 l 1
 596 284 633 285 665 293 c 1
 631 298 602 302 566 302 c 1
161 280 m 1
 165 276 l 1
 170 280 l 1
 170 294 162 335 146 353 c 1
 148 354 113 344 105 340 c 1
 112 326 153 329 153 311 c 0
 153 305 113 293 109 293 c 2
 161 280 l 1
407 288 m 1
 411 285 415 284 419 284 c 0
 428 284 439 289 450 289 c 1
 450 298 l 1
 435 298 419 296 407 288 c 1
88 332 m 1
 87 329 86 326 86 323 c 0
 86 317 90 311 96 306 c 1
 106 306 123 310 127 314 c 1
 114 323 99 320 88 332 c 1
579 314 m 1
 592 310 l 1
 674 310 l 1
 678 332 l 1
 649 332 608 327 579 314 c 1
307 323 m 1
 319 323 332 322 441 318 c 1xa6884160
 441 351 420 397 413 397 c 0
 384 397 346 383 320 370 c 1
 409 370 l 1
 424 353 l 1
 424 347 314 336 307 323 c 1
656 345 m 1
 657 350 l 1
 637 350 604 350 596 361 c 1
 605 370 l 1xa6949160
 674 392 l 1
 663 397 646 399 635 401 c 1
 635 405 l 1
 600 401 l 1
 601 403 575 339 575 335 c 2
 575 326 l 1
 588 326 606 331 656 345 c 1
78 366 m 1
 77 364 77 361 77 358 c 0
 77 350 79 340 83 335 c 1
 93 351 104 349 118 358 c 1
 109 366 l 1
 78 366 l 1
354 359 m 0xa6944160
 339 359 311 354 311 340 c 1
 333 340 355 351 377 353 c 1
 372 358 l 2
 371 358 358 359 354 359 c 0xa6944160
691 381 m 1
 681 381 625 369 622 361 c 1
 627 361 633 362 639 362 c 0
 654 362 668 359 683 357 c 1
 687 363 691 372 691 381 c 1
122 401 m 1
 108 398 95 383 84 383 c 0
 82 383 80 383 79 384 c 1
 79 379 l 2
 79 378 113 373 127 370 c 0xa6949160
 129 370 138 369 140 369 c 1
 140 382 129 389 122 401 c 1
366 407 m 0
 348 407 328 405 323 389 c 1
 327 387 l 1
 327 387 375 400 385 404 c 1
 382 404 369 407 366 407 c 0
75 409 m 1
 75 395 l 1
 82 395 91 398 96 405 c 1
 89 408 76 409 75 409 c 1
622 417 m 1
 624 411 685 408 700 401 c 1
 700 412 704 436 704 439 c 1
 682 422 648 429 622 417 c 1
75 426 m 1
 92 418 103 413 122 413 c 1
 120 419 117 427 117 434 c 0
 117 436 117 437 118 439 c 1
 114 437 90 429 75 426 c 1
398 440 m 1
 342 413 l 1
 369 413 387 419 411 419 c 1xa69444e0
 411 427 408 440 398 440 c 1
600 454 m 1
 610 454 610 431 610 426 c 1
 621 426 651 432 661 439 c 1
 635 439 l 1
 635 449 l 1
 660 449 672 452 704 452 c 1xa6942160
 692 461 675 461 660 461 c 0xa69498e0
 648 461 643 457 635 457 c 0xa6949160
 624 457 611 462 600 462 c 1
 600 454 l 1
325 457 m 1
 329 450 328 430 336 430 c 0
 349 430 387 442 389 457 c 1
 325 457 l 1
EndSplineSet
Validated: 37
EndChar

StartChar: x
Encoding: 120 120 12
Width: 513
Flags: MW
HStem: -30 26 -30 86 -26 21G<46 69 180 180> -21 21G -17 55<343 438.5> 27 84<315 398.5> 104 46 198 78<236 264 256 303.5> 228 48<256 287> 454 20G<433 449> 459 20G<329 363> 469 20G<490 490.5> 478 22 478 28<389.5 391>
VStem: 11 143<-17 12.5> 97 57<0 49.5> 245 143<108 179> 321 31<206 211 211 211>
LayerCount: 2
Fore
SplineSet
321 -26 m 0x254a40
 321 -4 275 67 253 95 c 1
 231 73 l 1
 231 64 l 1
 180 -26 l 1x254a40
 153 -24 117 -21 88 -21 c 0x154a40
 78 -21 73 -26 65 -26 c 0
 27 -26 11 -21 11 -13 c 0
 11 12 45 31 76 78 c 1
 108 133 132 183 145 250 c 1
 128 325 82 401 33 461 c 1
 33 483 15 467 15 483 c 1
 46 499 86 500 123 500 c 0x254a40
 140 500 151 498 166 492 c 1
 183 444 208 399 236 358 c 1
 236 355 239 352 242 352 c 0
 243 352 243 353 283 409 c 1
 283 416 312 474 317 483 c 1
 345 505 l 1
 355 506 368 506 381 506 c 0x854640
 418 506 463 502 490 489 c 0x851240
 491 489 492 481 498 478 c 1
 459 454 440 346 412 306 c 0
 391 276 351 218 352 218 c 1
 352 189 397 148 412 120 c 0
 417 112 432 82 434 78 c 0
 443 57 443 29 460 12 c 1
 465 12 473 8 473 5 c 0
 473 -3 472 -21 461 -21 c 0x154640
 453 -21 444 -17 433 -17 c 0x0b4a40
 399 -17 366 -30 331 -30 c 0x854a40
 326 -30 321 -30 321 -26 c 0x254a40
137 -4 m 1x854a40
 154 0 l 1x154a40
 154 25 97 23 97 46 c 0
 97 53 100 56 106 56 c 0x434940
 121 56 133 47 149 47 c 1
 137 59 110 82 106 82 c 1
 90 52 60 31 50 0 c 1x154a40
 50 0 52 -2 137 -4 c 1x854a40
158 21 m 1x834a80
 160 20 169 10 171 8 c 1
 190 25 204 53 214 78 c 1
 225 78 239 127 266 137 c 1
 263 141 262 145 262 148 c 0
 262 152 265 155 271 155 c 0
 288 155 303 150 320 150 c 0
 323 150 340 151 343 151 c 1
 327 156 276 198 236 198 c 1
 243 188 245 184 245 174 c 0
 245 168 243 163 236 163 c 0
 223 163 217 177 205 177 c 1
 209 161 231 156 231 140 c 0
 231 137 227 132 222 129 c 1
 205 135 187 145 171 155 c 1
 171 151 l 1
 184 138 201 121 201 115 c 0
 201 112 200 109 200 104 c 1
 180 104 168 112 154 112 c 1
 154 95 196 83 196 64 c 0
 196 60 191 60 187 60 c 0
 172 60 165 61 149 69 c 1
 149 54 180 50 180 34 c 0
 180 29 162 29 158 21 c 1x834a80
352 26 m 1x854a40
 374 10 406 8 429 8 c 1
 422 24 408 27 389 27 c 0
 378 27 366 26 352 26 c 1x854a40
304 82 m 1
 304 58 328 55 343 38 c 1
 403 38 l 1x0b4a80
 388 45 384 54 369 56 c 1x434a40
 350 56 324 76 304 82 c 1
296 99 m 1
 412 52 l 1
 412 63 395 95 376 95 c 0
 371 95 367 90 362 90 c 0
 360 90 311 105 294 105 c 0
 290 105 288 105 288 103 c 0
 288 101 290 99 296 99 c 1
123 103 m 0
 132 90 142 86 158 86 c 1
 149 97 139 111 128 120 c 1
 124 116 121 111 121 107 c 0
 121 106 122 104 123 103 c 0
309 137 m 2
 373 108 l 1
 388 108 l 1
 388 135 333 138 317 138 c 0
 316 138 310 137 309 137 c 2
280 122 m 1
 301 122 304 111 326 111 c 1x854a40
 326 116 l 2
 326 119 282 135 280 135 c 1
 280 122 l 1
140 142 m 1
 140 142 144 138 145 137 c 0
 150 135 174 120 180 116 c 1
 180 120 l 1
 149 160 l 1
 144 157 140 146 140 142 c 1
158 207 m 1
 154 203 152 199 152 195 c 0
 152 179 188 167 196 160 c 1
 201 160 l 1
 184 173 161 204 158 207 c 1
287 198 m 1
 287 195 346 163 347 163 c 2
 352 163 l 1
 341 191 320 198 287 198 c 1
162 230 m 0
 162 228 205 198 212 197 c 1
 212 211 193 237 180 237 c 0
 174 237 162 237 162 230 c 0
287 211 m 0
 289 211 316 206 321 206 c 1
 321 211 l 1
 321 211 297 224 287 228 c 1x84ca40
 257 228 242 263 218 263 c 1
 232 251 243 221 287 211 c 0
162 308 m 1
 162 286 204 232 221 232 c 1
 221 237 205 277 201 280 c 1
 202 280 205 284 205 285 c 0
 205 291 169 308 162 308 c 1
274 280 m 1
 276 260 296 230 318 230 c 1
 318 239 312 239 312 244 c 0
 312 249 322 252 326 254 c 1
 312 254 l 1
 312 275 263 293 248 306 c 1
 248 299 250 276 262 276 c 0
 266 276 269 280 274 280 c 1
312 314 m 0
 312 301 333 280 339 267 c 1
 348 280 349 289 361 297 c 1
 362 299 369 305 369 306 c 2
 391 358 l 1
 395 361 412 385 412 390 c 0
 411 397 363 424 356 431 c 1
 356 430 355 426 355 425 c 0
 355 401 381 388 381 363 c 1
 356 363 331 380 313 396 c 1
 311 396 304 396 304 392 c 1
 304 393 337 343 348 321 c 1
 348 313 339 310 332 310 c 0
 324 310 320 311 313 318 c 1
 313 318 312 315 312 314 c 0
274 349 m 1
 272 333 248 343 248 325 c 0
 248 315 287 280 309 280 c 2
 313 280 l 1
 300 307 279 326 279 349 c 1
 274 349 l 1
189 319 m 1
 189 300 218 297 236 288 c 1
 235 292 235 297 235 301 c 0
 235 308 236 314 240 318 c 1
 201 332 l 1
 181 335 160 350 139 350 c 1
 139 329 174 319 189 319 c 1
296 379 m 1
 291 377 289 371 289 367 c 0
 289 364 290 362 317 336 c 1
 317 364 308 343 296 379 c 1
119 384 m 1
 119 354 159 357 180 349 c 1
 180 353 l 1
 119 384 l 1
128 392 m 1
 192 362 l 1
 196 362 l 1
 196 393 137 385 128 401 c 1
 128 392 l 1
317 414 m 0
 319 405 341 391 349 391 c 1
 349 405 333 422 321 431 c 1
 320 428 317 417 317 414 c 0
106 411 m 1
 163 401 l 1
 145 409 111 431 85 431 c 1
 106 411 l 1
89 448 m 1
 106 434 147 420 163 414 c 1
 171 414 l 1
 155 459 116 475 67 478 c 0
 64 478 53 475 50 474 c 1
 55 463 62 451 72 443 c 1
 73 449 76 454 81 457 c 1
 107 457 117 453 132 453 c 1
 132 448 l 1
 89 448 l 1
391 448 m 1
 425 413 l 1
 431 413 456 465 472 483 c 1
 469 487 l 1
 469 475 455 474 443 474 c 0
 423 474 413 474 391 478 c 0
 388 478 386 472 386 472 c 1
 386 472 391 465 391 448 c 1
338 472 m 0
 338 463 381 424 395 422 c 1
 368 442 377 479 349 479 c 0x852240
 345 479 338 478 338 472 c 0
329 459 m 1
 329 446 336 446 336 434 c 1
 336 434 346 437 352 440 c 1
 349 443 338 459 329 459 c 1
EndSplineSet
Validated: 33
EndChar

StartChar: y
Encoding: 121 121 13
Width: 565
Flags: MW
HStem: -298 21G<239.5 251> -292 67<101.5 145.5 138 145.5 138 219> 0 21G 353 112<62.5 137.5> 449 20G<10.5 24> 452 26<437 525 525 528.5 413 538 437 437> 454 20G<134.5 148.5>
LayerCount: 2
Fore
SplineSet
138 -216 m 2x64
 138 -225 l 1
 153 -225 204 -203 206 -199 c 1
 192 -202 179 -203 166 -203 c 0
 160 -203 155 -203 150 -202 c 1
 155 -192 170 -189 182 -189 c 0
 189 -189 194 -190 197 -191 c 1
 205 -191 209 -188 267 -147 c 1
 267 -145 263 -143 263 -143 c 2
 262 -143 255 -147 254 -147 c 0
 220 -156 138 -152 138 -216 c 2x64
219 -292 m 1
 107 -292 l 2x70
 96 -292 90 -285 90 -277 c 1
 120 -187 118 -197 141 -140 c 2
 147 -125 l 2
 158 -98 177 -58 203 5 c 1
 203 28 188 43 180 64 c 0
 171 86 132 192 124 215 c 1
 93 258 46 396 -1 459 c 1
 -1 467 7 469 14 469 c 0xa8
 34 469 52 465 73 465 c 0x70
 98 465 123 474 146 474 c 0x62
 151 474 163 451 167 443 c 2
 167 443 187 399 202 378 c 0
 213 362 245 312 245 293 c 1
 284 202 285 202 285 202 c 1
 290 202 295 206 296 211 c 1
 353 335 l 1
 353 354 381 438 395 463 c 1
 395 473 404 478 413 478 c 2
 525 478 l 2x64
 532 478 560 468 560 465 c 0
 560 426 536 385 521 352 c 1
 466 251 458 204 430 142 c 0
 411 99 389 69 383 25 c 1
 275 -211 l 2
 268 -226 261 -298 241 -298 c 0xb0
 238 -298 226 -294 219 -292 c 1
120 -263 m 1
 156 -274 195 -268 232 -272 c 0
 236 -272 241 -238 241 -229 c 1
 237 -229 l 1
 172 -260 l 2
 171 -260 168 -261 164 -261 c 0
 160 -261 156 -260 155 -255 c 1
 163 -247 185 -234 185 -234 c 1
 167 -224 l 1
 129 -246 l 1
 120 -263 l 1
224 -211 m 0
 236 -211 230 -221 238 -221 c 0
 249 -221 259 -197 259 -189 c 1
 252 -189 210 -207 185 -216 c 1
 200 -216 211 -211 224 -211 c 0
239 -177 m 1
 243 -182 250 -182 256 -182 c 0
 266 -182 273 -170 277 -160 c 1
 267 -160 265 -161 239 -177 c 1
295 -83 m 1
 295 -132 189 -121 189 -152 c 1
 206 -136 258 -137 280 -134 c 0
 301 -131 333 -20 341 0 c 1
 336 0 288 -22 288 -27 c 1
 211 -56 l 1
 241 -56 269 -39 301 -39 c 0
 309 -39 314 -39 314 -48 c 0
 314 -62 205 -97 202 -102 c 1
 235 -102 263 -83 295 -83 c 1
171 -130 m 0
 171 -134 172 -139 177 -139 c 0
 188 -139 247 -110 263 -100 c 1
 252 -100 171 -114 171 -130 c 0
275 -49 m 1
 190 -82 l 1
 185 -91 l 2
 184 -92 254 -66 280 -56 c 1
 284 -53 l 1
 275 -49 l 1
301 4 m 1
 275 -4 214 -15 206 -44 c 1
 229 -38 262 -29 284 -18 c 0
 301 -9 315 19 333 19 c 0
 338 19 343 17 348 12 c 1
 360 50 379 90 396 125 c 1
 396 125 389 119 362 112 c 1
 361 109 356 100 353 98 c 2
 258 51 l 1
 336 63 l 1
 336 55 l 1
 301 34 l 1
 296 35 229 -1 229 -6 c 1
 232 -9 l 1
 288 8 l 1
 301 4 l 1
223 21 m 1
 232 12 l 1
 267 29 l 1
 267 27 271 25 274 25 c 1
 274 25 297 44 297 52 c 1
 283 52 231 34 223 21 c 1
211 64 m 1
 219 46 l 1
 223 46 l 1
 229 50 253 65 258 69 c 0
 273 78 299 76 310 95 c 0
 323 118 372 131 395 137 c 1
 400 142 l 1
 390 142 382 136 371 136 c 0
 362 136 362 139 362 147 c 1
 368 147 375 146 381 146 c 0
 393 146 404 148 409 159 c 2
 435 215 l 1
 435 215 434 216 432 216 c 0
 423 216 390 209 366 198 c 1
 370 198 385 202 400 202 c 0
 403 202 415 199 418 198 c 1
 418 185 364 152 346 152 c 1
 352 161 381 181 387 185 c 1
 362 189 l 1
 359 183 353 180 347 180 c 0
 339 180 329 185 322 189 c 1
 356 211 401 212 435 232 c 1
 419 232 404 227 387 227 c 0
 383 227 380 227 379 232 c 1
 393 240 403 239 418 241 c 0
 449 244 473 285 473 318 c 1
 413 297 l 1
 409 298 406 298 405 298 c 0
 400 298 400 296 392 293 c 0
 343 274 354 272 331 224 c 1
 328 215 315 194 314 194 c 2
 301 189 l 1
 305 187 305 185 305 180 c 0
 305 171 301 166 301 150 c 1
 308 155 320 160 322 160 c 0
 328 160 330 159 336 154 c 1
 320 106 227 116 227 80 c 1
 241 80 256 90 271 90 c 1
 263 81 l 1
 258 81 211 67 211 64 c 1
197 105 m 0
 197 101 197 89 204 89 c 0
 230 89 297 133 310 146 c 1
 288 140 197 118 197 105 c 0
280 95 m 0
 280 98 284 99 288 99 c 0
 294 99 299 98 305 98 c 1
 303 92 287 90 284 90 c 0
 282 90 280 93 280 95 c 0
184 146 m 0
 184 141 185 137 189 133 c 1
 219 150 l 1
 245 168 l 1
 230 168 184 156 184 146 c 0
279 160 m 1
 278 161 276 161 274 161 c 0
 258 161 219 139 219 134 c 0
 219 133 225 131 227 131 c 0
 239 131 279 142 279 160 c 1
211 194 m 1
 202 186 185 175 172 168 c 1
 173 167 176 167 179 167 c 0
 200 167 251 178 263 185 c 1
 249 211 l 1
 211 194 l 1
159 202 m 1
 163 195 165 187 167 180 c 1
 185 195 208 203 228 219 c 1
 215 216 171 210 159 202 c 1
232 258 m 1
 205 249 178 237 159 215 c 1
 173 220 237 224 237 236 c 0
 237 239 234 251 232 258 c 1
141 243 m 0
 141 237 146 231 150 227 c 1
 172 237 200 252 215 271 c 1
 187 265 141 251 141 243 c 0
426 276 m 1
 362 276 l 1
 373 284 434 293 444 293 c 0
 450 293 453 289 453 283 c 0
 453 282 452 279 452 279 c 1
 379 241 l 1
 375 231 364 229 356 229 c 1
 356 236 359 242 366 245 c 2
 426 276 l 1
211 305 m 1
 138 262 l 1
 164 262 183 280 211 280 c 0
 214 280 217 279 221 279 c 1
 221 288 215 299 211 305 c 1
112 297 m 0
 112 290 122 275 129 275 c 0
 133 275 190 303 197 312 c 1
 192 313 185 314 180 314 c 0
 161 314 112 305 112 297 c 0
404 373 m 1
 392 359 361 319 361 303 c 0
 361 300 362 298 366 297 c 1
 403 305 454 309 470 331 c 1
 444 331 419 331 395 335 c 1
 398 351 449 373 461 383 c 1
 453 380 445 379 439 379 c 2
 426 379 l 2
 419 379 412 378 404 373 c 1
90 340 m 1
 91 337 97 322 103 318 c 1
 117 330 162 341 167 352 c 1
 154 352 144 353 131 353 c 0
 115 353 94 352 90 340 c 1
189 349 m 1
 170 341 147 331 129 318 c 1
 159 318 170 326 194 335 c 1
 194 341 193 343 189 349 c 1
465 375 m 1
 462 369 428 348 409 340 c 1
 411 340 420 339 421 339 c 0
 441 339 458 349 476 349 c 0
 482 349 486 349 491 344 c 1
 512 392 l 1
 496 388 479 371 465 371 c 1
 465 375 l 1
161 392 m 0
 151 392 95 366 90 357 c 1
 106 357 167 365 172 375 c 1
 171 378 169 392 161 392 c 0
73 393 m 0
 73 384 77 373 88 373 c 0
 107 373 151 409 151 414 c 1
 126 414 73 403 73 393 c 0
430 439 m 1
 398 434 402 408 395 387 c 1
 433 403 493 414 503 421 c 1
 499 420 492 420 489 420 c 0
 476 420 470 431 458 431 c 0
 456 431 454 431 452 430 c 2
 461 439 l 1
 529 434 l 2
 534 434 535 445 538 452 c 1
 437 452 l 1x64
 440 448 442 444 442 441 c 0
 442 438 440 437 437 437 c 0
 435 437 433 437 430 439 c 1
131 448 m 1
 111 439 91 423 73 413 c 1
 74 413 76 412 77 412 c 0
 88 412 100 422 109 422 c 0
 112 422 115 420 115 417 c 1
 146 426 l 1
 145 433 139 448 131 448 c 1
51 443 m 1
 52 441 58 426 64 422 c 1
 103 443 l 1
 51 443 l 1
EndSplineSet
Validated: 33
EndChar

StartChar: z
Encoding: 122 122 14
Width: 500
Flags: MW
HStem: -30 21G<57 84> -29 21G<325 331 325 411> -25 107<110 110 110 127.5 110 205.5> -13 21G<265 278> -12 21G<261 262> -6 21G<171 175.5> 54 28 95 91<213 245> 95 104<229 297.5> 277 94 302 69 351 85<58 69.5> 438 20G<54 54 54 58 472 474> 453 26
VStem: 239 221<-18 54 -18 54 -18 117>
LayerCount: 2
Fore
SplineSet
350 59 m 1x2146
 346 60 340 62 334 62 c 0
 331 62 328 62 326 61 c 0
 324 60 306 44 306 39 c 2
 306 35 l 1
 350 59 l 1x2146
110 82 m 1
 192 281 l 2
 198 296 195 327 209 341 c 1
 165 341 94 351 45 351 c 0
 39 351 32 353 30 359 c 1
 30 449 l 1
 41 479 l 1
 75 479 l 2x2116
 153 479 236 476 312 470 c 0
 358 466 403 457 449 457 c 0
 457 457 464 457 472 458 c 0
 476 458 481 450 481 451 c 1
 477 451 445 387 442 380 c 0
 439 372 428 353 428 350 c 1
 394 268 l 1
 358 208 329 139 282 87 c 1
 297 82 316 82 335 82 c 0x874a
 365 82 437 72 460 72 c 1
 460 61 454 47 454 35 c 0
 454 21 460 2 460 -9 c 0
 460 -27 448 -30 433 -30 c 0x8746
 426 -30 418 -29 411 -29 c 2
 222 -29 l 2x4746
 220 -29 207 -25 204 -25 c 0x2146
 193 -25 190 -30 168 -30 c 0x8746
 151 -30 136 -25 119 -25 c 0x2146
 98 -25 78 -30 57 -30 c 1x8746
 57 9 83 55 110 82 c 1
84 -9 m 1x8746
 171 -6 l 2
 180 -6 205 24 213 30 c 0
 216 33 239 43 239 48 c 2
 239 54 l 1
 224 54 212 38 199 34 c 0
 183 29 135 9 119 1 c 0
 117 1 115 2 115 3 c 0
 115 8 128 22 166 61 c 1
 118 48 104 38 84 -9 c 1x8746
321 35 m 1
 303 19 275 7 261 -12 c 1x0b46
 263 -12 264 -13 266 -13 c 0x1346
 290 -13 312 13 321 35 c 1
196 -4 m 1
 211 -8 229 -11 244 -12 c 1
 252 14 286 43 308 56 c 1
 291 56 206 15 196 -4 c 1
390 39 m 1
 376 39 337 3 325 -8 c 1x4746
 337 -8 390 12 390 39 c 1
428 27 m 1
 419 21 389 4 389 -9 c 1x8746
 394 -9 433 -7 433 -3 c 0
 433 0 431 12 428 27 c 1
373 61 m 1
 347 40 340 34 319 8 c 1x1346
 319 4 320 2 323 2 c 0
 328 2 376 46 390 56 c 1
 384 59 377 61 373 61 c 1
416 56 m 0
 410 56 391 18 390 18 c 1
 390 13 l 1
 410 18 416 43 437 48 c 1
 435 55 419 56 416 56 c 0
245 95 m 1
 213 95 157 44 140 18 c 1
 230 65 l 1
 233 71 248 81 248 89 c 0
 248 91 247 93 245 95 c 1
184 90 m 1
 122 56 l 1
 127 56 l 2
 131 56 239 98 239 117 c 1
 225 106 196 90 184 90 c 1
183 104 m 1
 179 105 175 105 171 105 c 0
 157 105 141 101 139 85 c 1
 142 85 170 96 183 104 c 1
248 117 m 1
 248 114 258 108 261 108 c 0
 280 112 303 170 312 186 c 0
 356 268 404 346 433 436 c 1
 431 437 422 440 420 440 c 0
 360 445 302 448 239 453 c 1
 230 422 178 424 162 397 c 1
 166 397 l 1
 282 444 l 1
 287 440 l 2
 287 439 283 436 282 436 c 0x2116
 276 431 227 397 226 397 c 2
 196 367 l 1
 196 362 l 1
 215 366 288 399 291 397 c 1
 355 427 l 1
 369 427 380 431 393 431 c 1
 393 427 394 425 394 423 c 0
 394 422 393 420 390 418 c 0
 307 370 305 376 295 362 c 1
 303 362 l 1
 313 368 359 388 369 393 c 0
 376 396 379 397 382 397 c 0
 386 397 390 396 402 396 c 1
 402 375 311 329 274 302 c 1
 272 302 266 295 265 293 c 1
 274 293 l 1
 360 328 l 1
 360 328 369 327 369 322 c 0
 369 307 292 273 239 234 c 1
 236 229 231 227 226 225 c 1
 229 223 230 222 230 221 c 0
 230 210 179 215 179 182 c 1
 207 190 278 233 297 233 c 0
 302 233 308 242 308 242 c 1
 308 246 l 1
 286 239 266 225 245 225 c 2
 239 225 l 1
 287 251 l 1
 288 250 290 250 291 250 c 0
 303 250 318 263 328 263 c 0
 329 263 336 260 338 260 c 1
 308 213 254 214 213 186 c 1x2126
 241 186 266 199 296 199 c 0x20c6
 299 199 303 198 303 194 c 1
 278 151 232 141 192 121 c 1
 192 117 l 1
 200 120 244 134 249 134 c 0
 253 134 261 132 261 130 c 0
 261 129 249 118 248 117 c 1
282 186 m 0
 268 186 171 171 166 160 c 0
 163 152 152 130 152 116 c 1
 163 116 182 119 187 130 c 1
 274 178 l 1
 277 182 282 184 287 186 c 1
 287 186 283 186 282 186 c 0
362 376 m 1
 327 376 247 337 230 302 c 0
 213 268 201 216 198 216 c 1
 209 216 308 285 321 298 c 2
 325 302 l 1x2126
 296 302 272 277 241 277 c 0x2146
 238 277 237 280 237 283 c 0
 237 296 244 287 256 298 c 0
 260 301 283 326 287 328 c 0
 302 338 362 372 362 376 c 1
256 369 m 0
 256 363 261 359 261 354 c 1
 360 410 l 1
 364 414 l 2
 363 414 361 415 360 415 c 0
 347 415 325 401 312 401 c 1
 265 376 l 1
 261 376 256 373 256 369 c 0
145 367 m 1
 145 361 l 1
 148 361 152 366 153 367 c 0
 154 367 161 363 162 362 c 1
 174 365 233 401 235 414 c 1
 122 367 l 1
 145 367 l 1
58 406 m 1
 58 394 l 2
 58 384 58 371 63 371 c 2
 101 371 l 1x2146
 110 380 l 1
 108 380 102 386 101 388 c 1
 101 397 162 436 162 436 c 1x2116
 148 436 110 427 112 427 c 2
 100 427 l 2
 75 427 49 426 49 401 c 1
 58 406 l 1
192 444 m 1
 180 437 145 412 145 410 c 1
 172 417 196 437 222 449 c 1
 214 449 203 453 194 453 c 0
 190 453 186 452 183 449 c 1
 192 444 l 1
54 458 m 1x211a
 58 436 l 1
 122 436 l 1
 126 439 128 440 131 440 c 0
 133 440 135 439 138 439 c 1
 136 439 166 444 166 449 c 2
 166 455 l 1
 142 455 111 452 105 449 c 1
 98 450 65 456 58 458 c 1
 54 458 l 1x211a
EndSplineSet
Validated: 37
EndChar

StartChar: q
Encoding: 113 113 15
Width: 603
Flags: MW
HStem: -280 21G<396 403.5> -271 42<431 464.5> -177 181<415 437 423 497> -52 56<423 436.5> -52 69<423 510.5 487 520.5 487 548> -52 94<423 431.5 419 436.5 419 520.5> -52 122<423 494 480.5 520.5 480.5 548> -26 21G<208 208.5> -22 21G<388 396> -12 21G 0 21G<122 135> 101 115 134 211<76.5 139 131.5 175.5> 147 69<501 505.5 499 521> 147 111<517 520.5 479.5 521> 147 250<502 507.5 502 521> 259 86<131.5 152> 259 102<141.5 152> 358 26 358 60<234 348> 449 26<340 343 263 355>
VStem: 31 22<172 195 169.5 216> 389 26<-185.5 -182> 396 158 415 126<230 426> 529 25
LayerCount: 2
Fore
SplineSet
384 -268 m 0xa010ae40
 384 -254 389 -232 389 -214 c 0x6010ae40
 389 -150 396 -88 396 -22 c 1x40b0ad
 380 -22 333 -52 294 -52 c 0
 278 -52 201 -49 187 -43 c 2
 105 -9 l 1
 37 45 31 133 31 211 c 0
 31 221 32 244 32 245 c 0
 32 250 50 299 53 302 c 1
 53 310 49 314 49 321 c 1
 55 332 76 343 75 344 c 1
 136 431 210 475 316 475 c 0
 370 475 541 453 541 399 c 0x5010ac80
 541 394 540 388 540 383 c 0
 540 375 541 368 545 362 c 1
 553 263 l 1
 553 245 544 224 544 204 c 0
 544 185 548 167 548 148 c 0
 548 97 545 46 540 -4 c 1
 547 -5 547 -45 548 -52 c 1
 548 -61 l 1
 549 -61 552 -91 553 -103 c 1
 553 -123 548 -143 548 -164 c 0
 548 -184 554 -202 554 -222 c 2
 554 -227 l 2
 554 -253 554 -277 510 -277 c 0
 487 -277 461 -271 432 -271 c 0x5010ad
 430 -271 405 -280 402 -280 c 0
 390 -280 384 -277 384 -268 c 0xa010ae40
419 -250 m 1
 430 -254 443 -255 458 -255 c 0
 485 -255 507 -255 535 -248 c 1
 535 -237 532 -228 521 -228 c 0
 505 -228 447 -248 419 -250 c 1
523 -160 m 1
 523 -179 462 -221 441 -228 c 1
 443 -228 450 -229 452 -229 c 0
 477 -229 505 -217 527 -211 c 1
 527 -203 523 -167 523 -160 c 1
415 -164 m 1
 415 -177 l 2
 415 -194 415 -203 419 -224 c 1
 418 -224 475 -191 497 -177 c 1
 471 -177 454 -188 431 -188 c 1
 431 -154 466 -167 480 -142 c 1
 455 -142 440 -157 415 -164 c 1
527 -125 m 1
 514 -141 486 -155 468 -164 c 0
 468 -165 472 -166 478 -166 c 0
 495 -166 529 -161 529 -136 c 0
 529 -132 528 -129 527 -125 c 1
508 -82 m 1
 508 -120 448 -115 432 -142 c 1
 436 -142 504 -131 523 -120 c 0
 526 -119 528 -106 528 -93 c 0
 528 -74 525 -52 516 -52 c 0x5010ae40
 505 -52 468 -73 463 -82 c 1
 508 -82 l 1
419 -108 m 1
 415 -117 415 -121 415 -128 c 2
 415 -138 l 1
 433 -131 465 -114 475 -99 c 0
 476 -99 438 -108 419 -108 c 1
423 -52 m 1
 423 -87 l 1
 428 -87 l 1
 448 -70 485 -60 501 -38 c 1
 474 -38 450 -52 423 -52 c 1
514 9 m 1x4050ae40
 496 -8 469 -13 454 -35 c 1
 519 -21 l 1
 514 9 l 1x4050ae40
277 -26 m 1x4130ae40
 281 -30 285 -30 290 -30 c 0
 311 -30 321 -29 341 -26 c 1x4130ae40
 351 -10 382 -7 398 7 c 1
 396 7 394 9 393 9 c 0x4050ae40
 368 -8 316 -22 277 -26 c 1x4130ae40
419 -17 m 0
 419 -20 423 -28 423 -30 c 1
 436 -30 471 -13 477 1 c 1
 468 1 419 -8 419 -17 c 0
165 -12 m 1x4050ae40
 176 -18 209 -26 208 -26 c 1x4130ae40
 241 -7 279 5 299 35 c 1
 259 12 208 2 165 -12 c 1x4050ae40
316 26 m 1
 290 26 275 -4 251 -12 c 1
 288 -12 324 -4 359 9 c 1
 361 16 366 42 381 52 c 1
 381 51 383 47 385 47 c 0
 401 47 486 95 495 108 c 1
 495 108 444 93 437 90 c 1
 433 90 431 90 431 90 c 2
 422 90 351 58 316 26 c 1
75 76 m 1
 75 69 l 2
 75 57 109 0 135 0 c 1x40b0ae40
 168 17 197 38 230 56 c 1
 227 59 225 61 221 61 c 1
 126 30 l 1
 126 30 122 29 120 29 c 0
 117 29 110 29 109 35 c 1
 129 57 157 81 187 90 c 1
 187 101 l 1
 147 101 115 76 75 76 c 1
510 64 m 1
 508 62 506 54 501 52 c 2
 428 13 l 2
 424 11 423 8 423 4 c 1x6010ae40
 451 4 474 17 500 17 c 0x4810ae40
 521 17 523 59 523 85 c 2
 523 103 l 1
 496 101 415 52 415 43 c 1
 417 43 418 42 420 42 c 0x4410ae40
 443 42 471 70 490 70 c 0x4210ae40
 498 70 502 69 510 64 c 1
244 44 m 1
 169 9 l 1
 187 9 l 1x40482e40
 265 35 l 1
 260 41 252 44 244 44 c 1
458 43 m 1
 446 43 432 37 419 30 c 1
 421 30 427 29 428 29 c 0
 439 29 452 33 458 43 c 1
200 78 m 0
 183 78 148 61 139 47 c 1
 154 47 197 63 213 73 c 1
 208 78 205 78 200 78 c 0
240 82 m 1
 274 69 294 62 310 62 c 0
 322 62 331 66 341 73 c 0
 409 120 415 190 415 270 c 0
 415 297 369 358 327 358 c 0
 287 358 238 317 221 280 c 1
 195 167 l 1
 195 152 221 94 240 82 c 1
62 111 m 1
 70 82 l 1
 87 102 163 139 163 148 c 1
 134 148 108 134 79 134 c 0
 74 134 66 134 66 140 c 0
 66 153 77 151 84 160 c 1
 87 155 l 1
 99 188 167 201 169 219 c 1
 79 206 l 1
 68 206 61 209 61 219 c 0
 61 236 191 278 191 284 c 0
 191 285 189 285 187 285 c 1
 191 285 66 273 58 254 c 1
 54 224 53 208 53 182 c 0
 53 157 62 135 62 111 c 1
174 134 m 0
 160 133 101 86 92 87 c 1
 116 96 151 113 180 113 c 1
 180 121 177 134 174 134 c 0
432 103 m 1
 430 100 l 1
 460 116 502 111 521 143 c 1
 521 147 l 1x6004ae40
 481 147 461 129 432 103 c 1
472 148 m 1
 420 148 434 136 411 108 c 1
 413 114 460 136 472 148 c 1
105 155 m 1
 107 153 119 151 122 151 c 0
 131 152 152 158 169 160 c 1
 169 198 l 1
 105 155 l 1
480 181 m 1
 461 173 435 157 432 151 c 1
 459 159 490 165 519 165 c 1
 519 202 l 1
 510 200 484 181 480 181 c 1
453 188 m 1
 448 188 437 181 437 181 c 1
 437 172 l 1
 440 174 455 179 458 186 c 1
 457 186 453 188 453 188 c 1
514 237 m 1
 463 207 l 1
 465 207 472 206 473 206 c 0
 484 206 494 216 504 216 c 0
 507 216 510 215 514 212 c 1
 518 219 520 228 520 237 c 1
 514 237 l 1
444 235 m 1
 443 224 442 217 437 211 c 1
 474 226 476 233 510 250 c 1
 509 252 504 254 502 254 c 0
 501 254 472 243 444 235 c 1
105 228 m 1
 113 224 l 1
 145 246 170 221 183 263 c 1
 177 263 165 255 158 255 c 0
 155 255 153 256 152 259 c 1
 131 259 124 236 105 228 c 1
441 276 m 1
 441 269 441 260 437 254 c 1
 452 263 488 279 497 293 c 1
 480 293 459 281 441 276 c 1
510 268 m 0
 514 268 515 258 519 258 c 0
 522 258 524 267 524 278 c 0
 524 282 524 286 523 289 c 1
 519 289 l 2
 518 289 476 264 471 259 c 1
 473 259 479 258 480 258 c 0x6002ae40
 491 258 498 268 510 268 c 0
84 310 m 1
 77 303 74 288 74 288 c 1
 89 288 100 310 113 315 c 0
 126 319 157 332 157 332 c 1
 157 336 l 1
 149 333 109 323 84 310 c 1
217 353 m 1
 194 321 142 321 118 289 c 1
 174 302 l 1
 178 310 191 323 191 323 c 1
 191 323 192 319 192 318 c 0
 192 311 182 310 182 304 c 0
 182 302 183 302 184 302 c 0
 202 302 195 318 204 327 c 0
 221 344 243 351 260 370 c 1
 217 353 l 1
413 375 m 1
 393 358 l 1
 397 346 430 317 437 297 c 1
 456 305 483 325 497 341 c 1
 477 341 462 327 439 327 c 0
 434 327 429 327 428 332 c 1
 451 358 481 363 504 388 c 1
 473 382 442 374 428 370 c 1
 422 373 417 375 413 375 c 1
514 332 m 1
 499 320 482 312 467 302 c 1
 488 302 500 317 520 317 c 1
 520 319 520 331 514 332 c 1
139 350 m 1
 127 350 108 347 101 336 c 1
 114 336 124 345 139 345 c 1
 139 350 l 1
519 375 m 1
 463 344 l 1
 490 344 492 360 519 360 c 1
 519 375 l 1
291 419 m 1
 285 419 281 409 277 409 c 1
 263 405 137 400 137 361 c 1x60104e40
 195 361 291 394 291 414 c 2
 291 419 l 1
303 384 m 1x6010ae40
 308 382 322 379 322 379 c 1
 332 379 346 395 350 401 c 1
 335 398 316 393 303 384 c 1x6010ae40
503 422 m 1
 432 384 l 1x6010ae40
 459 386 473 399 488 399 c 0
 492 399 499 397 505 397 c 0x60010e40
 510 397 515 399 515 407 c 0
 515 414 514 422 503 422 c 1
384 415 m 1
 381 415 359 393 355 388 c 1
 364 388 394 401 419 409 c 1
 419 447 369 449 341 449 c 0
 339 449 307 448 291 448 c 1
 281 427 247 437 234 418 c 1x60109e40
 276 418 312 440 355 440 c 1
 355 434 l 1
 352 429 319 412 299 401 c 1
 384 425 l 1
 395 425 l 1
 394 415 388 409 384 409 c 1
 384 415 l 1
449 437 m 1
 449 405 l 1
 480 426 l 1
 480 426 481 428 481 429 c 0
 481 436 458 437 449 437 c 1
247 444 m 0
 226 444 180 426 169 409 c 1
 194 422 249 435 251 444 c 1
 251 444 248 444 247 444 c 0
EndSplineSet
Validated: 37
EndChar

StartChar: u
Encoding: 117 117 16
Width: 571
Flags: MW
HStem: -46 21G -39 131<349 488.5> -29 21G -28 21G<231.5 244.5> -21 21G<237 237 431.5 452.5> -17 21G<203 210.5> -9 21G<314 324.5> 79 175<237 395 237 395 387.5 436> 130 124<387.5 429> 302 78<422 425.5> 453 22<82 82 82 134 154 174 154 154> 463 20G<365.5 373>
VStem: 45 41 163 24<298 351 311 351 319 351 316.5 359 316.5 359> 180 21 357 29 379 152<-29 158> 474 21 504 27<-17 -2.5 -29 -1.5>
LayerCount: 2
Fore
SplineSet
302 -46 m 1x896d60
 212 -43 l 2
 210 -42 204 -38 203 -38 c 0
 49 16 45 235 45 383 c 0
 45 421 45 455 56 475 c 1
 181 475 l 1
 194 470 l 2
 199 468 201 459 201 446 c 0x896b60
 201 414 187 365 187 337 c 0
 187 296 194 254 198 212 c 0
 203 152 261 86 303 86 c 0
 322 86 322 94 334 94 c 0
 338 94 342 94 349 92 c 1
 371 92 379 122 379 141 c 0x40ec80
 379 175 361 202 361 246 c 0
 361 263 362 286 362 289 c 0
 361 305 357 429 357 444 c 0
 357 461 358 483 373 483 c 1
 373 483 504 469 504 461 c 0
 504 421 495 385 495 344 c 0
 495 307 500 270 500 234 c 1
 521 112 l 2
 521 107 520 103 520 98 c 0
 520 58 531 17 531 -22 c 0
 531 -36 501 -39 476 -39 c 0x40dd60
 444 -39 433 -38 414 -38 c 1
 405 -29 374 -33 358 -25 c 1
 347 -25 321 -45 302 -46 c 1x896d60
237 -21 m 1
 220 -26 214 -28 214 -29 c 1x216d60
 216 -29 226 -28 237 -28 c 0x116d60
 252 -28 266 -30 282 -30 c 0
 288 -30 294 -29 297 -25 c 1
 293 -23 293 -21 293 -17 c 0x856d60
 293 5 324 16 336 31 c 1
 237 -21 l 1
401 -12 m 1
 410 -20 425 -21 438 -21 c 0x896b60
 467 -21 476 -21 504 -17 c 1x856d60
 504 14 495 23 495 31 c 1
 414 -8 l 1x216d60
 409 -8 404 -11 401 -12 c 1
138 27 m 1
 152 5 179 -8 203 -17 c 1x84ed60
 218 -17 272 50 297 57 c 1
 296 59 292 61 290 61 c 1
 290 59 220 23 220 22 c 2
 215 27 l 1
 210 17 195 12 186 9 c 1
 183 12 180 12 180 16 c 0
 180 34 251 58 251 79 c 1
 237 79 l 1
 221 72 170 43 138 27 c 1
388 100 m 1
 368 73 332 63 306 53 c 1
 285 28 250 13 237 -12 c 1
 235 -13 294 18 323 35 c 0
 351 51 375 75 401 91 c 0
 422 104 455 112 469 135 c 1
 461 134 455 134 450 134 c 0
 444 134 442 134 442 135 c 0
 442 139 472 147 488 148 c 1
 488 158 486 169 483 178 c 1
 429 143 l 1
 429 130 l 1
 410 130 391 121 388 100 c 1
363 27 m 1
 353 27 l 2
 346 27 314 -4 314 -9 c 1x82ed60
 335 -9 363 3 363 27 c 1
495 70 m 1
 470 54 473 46 457 35 c 0
 441 24 421 18 405 5 c 1
 434 5 473 35 500 44 c 1
 495 70 l 1
369 37 m 1
 376 28 389 34 389 21 c 1
 389 21 412 35 422 39 c 1
 429 44 490 77 495 87 c 1
 472 87 450 79 422 79 c 1x896d60
 427 95 496 88 496 109 c 0
 496 117 496 122 492 130 c 1
 442 105 406 78 369 37 c 1
265 65 m 0
 253 65 228 41 220 35 c 1
 238 35 258 54 276 61 c 1
 274 63 267 65 265 65 c 0
228 104 m 1
 217 100 149 62 146 44 c 1
 147 43 148 43 149 43 c 0
 153 43 157 50 160 53 c 1
 233 87 l 1
 233 93 228 100 228 104 c 1
116 70 m 1
 122 65 121 56 129 56 c 0
 130 56 133 57 134 57 c 0
 158 79 189 87 212 112 c 1
 207 112 l 1
 116 70 l 1
108 95 m 1
 108 83 l 1
 112 83 l 2
 118 83 158 116 163 121 c 1
 157 119 136 112 135 112 c 1
 135 110 124 100 108 95 c 1
204 127 m 1
 184 127 162 110 151 95 c 1
 169 103 204 116 204 127 c 1
172 182 m 1
 161 147 119 140 104 109 c 1
 112 110 118 116 121 117 c 0
 135 123 189 137 189 143 c 0
 186 171 175 197 166 225 c 1
 155 225 98 178 98 168 c 1
 112 168 135 187 159 187 c 0
 162 187 171 187 172 182 c 1
86 145 m 0
 86 139 94 127 95 121 c 1
 111 141 138 162 159 173 c 1
 160 182 l 1
 163 183 86 160 86 145 c 0
396 179 m 0
 396 173 405 154 405 143 c 1
 428 153 459 171 474 190 c 1
 471 190 460 191 457 191 c 0
 450 191 396 189 396 179 c 0
155 246 m 1
 145 246 86 224 86 216 c 2
 86 178 l 1
 90 203 148 227 163 242 c 1
 155 246 l 1
474 239 m 1
 471 239 412 200 410 194 c 1
 419 198 474 198 474 208 c 2
 474 239 l 1
387 227 m 1
 392 199 l 1
 392 199 457 232 457 242 c 0
 457 244 454 246 452 246 c 0
 442 246 387 238 387 227 c 1
163 298 m 1
 144 275 105 263 95 234 c 1
 168 260 l 1
 168 293 l 1
 163 298 l 1
86 277 m 1
 86 246 l 1
 110 268 163 312 163 311 c 1
 150 311 101 277 90 277 c 1
 90 281 l 1
 86 277 l 1
410 251 m 1
 412 251 440 252 443 257 c 1
 471 257 l 1
 471 263 470 299 466 307 c 1
 453 281 426 271 410 251 c 1
388 315 m 2
 384 255 l 1
 384 255 387 254 388 254 c 0
 402 254 460 315 461 315 c 1
 460 317 451 319 448 319 c 0
 430 319 435 302 416 302 c 0
 411 302 413 309 407 310 c 0
 397 312 388 313 388 315 c 2
163 359 m 1
 129 344 113 313 86 291 c 1
 88 291 93 289 95 289 c 1
 117 303 137 314 163 319 c 1
 163 359 l 1
78 337 m 1
 82 311 l 1
 102 317 134 357 134 359 c 1
 123 352 78 351 78 337 c 1
386 361 m 1
 385 359 385 355 385 351 c 0
 385 341 387 327 394 323 c 1
 402 327 440 350 452 367 c 1
 429 367 412 361 386 361 c 1
469 367 m 1
 455 350 431 341 418 324 c 1
 435 324 452 329 469 329 c 1
 469 367 l 1
168 432 m 1
 168 424 98 360 78 354 c 1
 86 354 l 1
 155 371 l 1
 174 371 174 431 174 453 c 1
 154 453 l 1
 154 443 166 440 168 432 c 1
86 401 m 1
 81 397 81 392 81 387 c 0
 81 383 82 376 82 371 c 1
 102 382 128 402 142 418 c 1
 128 418 94 404 86 401 c 1
384 406 m 1
 388 371 l 1
 402 393 446 404 466 427 c 1
 452 427 397 418 384 406 c 1
466 380 m 1
 469 376 l 1
 475 387 477 403 478 415 c 1
 467 415 443 393 422 380 c 1
 466 380 l 1
82 453 m 1
 82 418 l 1
 86 418 l 2
 88 418 113 439 134 453 c 1
 82 453 l 1
384 447 m 1
 384 431 l 1
 385 431 417 443 418 444 c 2
 422 455 l 1
 401 455 l 1
 401 447 388 447 384 447 c 1
435 449 m 1
 422 436 l 1
 425 436 437 435 440 435 c 0
 452 435 470 436 478 449 c 1
 435 449 l 1
EndSplineSet
Validated: 37
EndChar

StartChar: two
Encoding: 50 50 17
Width: 508
Flags: MW
HStem: -27 21G<31 32.5> -22 21<125.5 163 125.5 173> -22 34 -21 21G<49 55> -18 21G<297.5 333 432 454> -12 21G<363 382.5> 86 31 86 177<118 273.5 118 273.5 254.5 273.5 254.5 280> 342 249<335 374.5> 454 20G<308 315.5> 458 20G<66 79.5> 513 78<344.5 374.5> 574 50 612 91<224 236.5 269 269 219.5 383> 639 20G<196 196 300 302.5> 643 20G<180 196> 644 20G<310.5 316> 656 20G<271.5 273> 682 21<222 245.5>
VStem: 191 96<187 197 183.5 200.5> 432 31<4.5 47.5>
LayerCount: 2
Fore
SplineSet
32 -27 m 0x828418
 30 -27 23 -24 23 -20 c 0
 23 -18 24 -17 26 -15 c 0
 63 31 104 84 130 137 c 0
 170 217 239 324 273 401 c 1
 281 408 282 416 282 425 c 0
 282 452 264 574 216 574 c 0
 180 574 139 541 114 521 c 1
 83 509 93 478 66 478 c 1x822878
 51 515 57 554 36 586 c 1
 36 601 51 605 66 620 c 1
 104 683 185 703 254 703 c 0
 318 703 389 640 424 591 c 1
 427 575 426 562 441 525 c 0
 442 525 442 512 442 507 c 0
 442 475 434 451 428 417 c 1
 381 276 l 1
 347 215 296 136 278 112 c 1
 332 112 371 117 425 117 c 0
 436 117 452 116 459 108 c 1
 458 102 458 97 458 91 c 0
 458 65 463 39 463 12 c 0x228418
 463 -3 463 -18 445 -18 c 0x0a8418
 419 -18 395 -12 370 -12 c 0x068418
 356 -12 345 -12 333 -18 c 1x0a8418
 262 -18 216 -22 130 -22 c 0x228418
 118 -22 61 -21 49 -21 c 1
 61 -4 75 -7 92 0 c 1x128418
 105 -1 118 -1 133 -1 c 0x428418
 193 -1 263 3 286 6 c 1
 286 12 l 1
 288 15 308 36 312 47 c 1
 295 36 247 12 229 12 c 0x228418
 223 12 221 13 217 21 c 1
 273 78 l 2
 274 78 281 81 282 82 c 1
 282 82 280 85 280 86 c 1
 209 86 154 8 81 8 c 0
 69 8 65 5 36 -26 c 1
 36 -26 33 -27 32 -27 c 0x828418
372 12 m 1x228418
 420 12 425 6 438 4 c 1
 438 20 432 31 432 46 c 0
 432 49 432 52 433 56 c 1
 429 51 382 18 372 12 c 1x228418
401 95 m 0
 377 95 354 63 312 21 c 1
 320 21 l 1
 400 67 433 63 433 82 c 0
 433 92 407 95 401 95 c 0
247 132 m 1
 247 110 178 81 139 60 c 0
 126 53 110 36 101 26 c 1
 152 36 193 70 238 90 c 1
 238 98 239 103 243 108 c 2
 346 254 l 1
 346 260 l 1
 340 260 223 203 213 194 c 1
 213 189 l 1
 221 189 261 202 275 202 c 0
 281 202 287 200 287 194 c 0
 287 173 179 121 158 121 c 0
 149 121 141 116 135 108 c 1
 146 118 238 132 247 132 c 1
319 87 m 0
 305 86 301 88 290 78 c 0
 275 65 243 30 243 30 c 1
 243 26 l 1
 251 29 287 47 295 52 c 0
 308 59 323 79 338 79 c 1
 338 87 328 87 319 87 c 0
118 86 m 1
 105 60 l 1
 109 60 l 2
 125 60 195 98 208 116 c 1
 207 116 203 117 202 117 c 0
 179 117 146 99 122 95 c 1
 127 86 l 1
 118 86 l 1
230 259 m 0
 226 259 211 255 208 254 c 0
 204 252 157 142 148 129 c 1
 200 151 l 1
 209 167 236 165 247 181 c 1
 232 178 207 177 204 177 c 1
 193 183 l 1
 193 183 191 186 191 188 c 0
 191 213 307 253 316 263 c 1x418418
 312 262 273 254 269 254 c 0
 265 254 234 259 230 259 c 0
346 318 m 2
 234 267 l 1
 238 266 253 263 256 263 c 0
 291 263 331 274 363 285 c 1
 363 328 376 320 389 358 c 1
 382 349 362 325 346 318 c 2
256 327 m 0
 249 313 238 291 238 285 c 1
 243 285 l 2
 256 285 348 332 355 340 c 1
 353 341 350 342 346 342 c 0
 324 342 278 326 270 326 c 0
 267 326 257 327 256 327 c 0
394 401 m 1
 354 381 273 347 273 340 c 1
 310 343 357 353 394 370 c 1
 394 401 l 1
424 474 m 1x425418
 414 457 335 438 304 409 c 1
 286 362 l 1
 317 376 360 397 389 417 c 1
 373 414 355 413 332 411 c 1
 378 426 410 440 424 474 c 1x425418
299 457 m 1
 304 426 l 1
 323 426 372 460 411 481 c 1
 374 473 334 469 299 457 c 1
415 517 m 1
 371 496 321 480 308 474 c 1
 323 474 416 485 416 508 c 0
 416 509 415 516 415 517 c 1
295 498 m 0
 295 497 296 486 299 483 c 1
 321 494 348 504 372 512 c 1
 369 512 363 513 356 513 c 0
 333 513 297 511 295 498 c 0
381 583 m 0
 381 550 289 539 289 517 c 0
 289 515 289 514 290 513 c 1
 295 514 320 517 325 517 c 0
 355 517 383 532 412 532 c 1
 412 554 394 612 372 612 c 1
 299 582 l 1
 322 582 349 591 372 591 c 0
 377 591 381 589 381 583 c 0
79 521 m 1
 120 578 193 582 247 607 c 1
 243 611 239 612 234 612 c 0
 214 612 108 574 83 560 c 0
 78 557 78 551 78 545 c 0
 78 538 78 528 79 521 c 1
278 560 m 0
 278 550 282 543 282 533 c 1
 284 533 322 552 351 573 c 1
 348 573 337 574 336 574 c 0x422878
 321 574 278 567 278 560 c 0
79 603 m 1
 97 582 l 1
 121 582 124 601 144 607 c 0
 180 617 216 624 252 629 c 0
 276 632 298 645 323 645 c 1
 323 642 324 640 324 637 c 0
 324 636 323 634 320 633 c 2
 269 612 l 1x428418
 264 607 l 1
 278 607 329 625 355 625 c 0
 358 625 361 625 363 624 c 1
 358 634 346 637 337 637 c 1
 337 645 320 664 312 664 c 0x4228b8
 309 664 303 659 302 659 c 0x428238
 298 659 282 669 273 676 c 1
 270 676 268 676 264 672 c 1
 196 646 145 616 79 603 c 1
252 591 m 1
 252 582 255 582 262 582 c 0
 279 582 300 592 312 599 c 1
 291 599 270 599 252 591 c 1
245 682 m 0x428238
 199 682 130 668 101 624 c 1
 139 624 164 663 196 663 c 1x422938
 196 659 l 1
 213 674 235 668 252 681 c 1
 251 681 246 682 245 682 c 0x428238
EndSplineSet
Validated: 1
EndChar

StartChar: onehalf
Encoding: 189 189 18
Width: 777
Flags: MW
HStem: -73 42<104.5 145> -29 21G<135 137> -28 21G<708.5 709> -24 21 -24 63 -24 202<587 647.5> -23 21G<637.5 639> -20 21G -14 21G<522.5 570> 0 21G<110 116 141.5 150.5> 53 40 53 64<167 182> 124 70<210 214> 181 36 205 71 228 69<228 292 280 288> 287 87<536.5 625.5> 302 72 342 32<591.5 601.5> 350 24 410 64 426 23<382.5 395 374 400> 448 20G<146 154.5> 449 20G 457 125<62 163 62 103> 464 20G<163 170> 480 20G<111.5 112 112 168> 544 38 642 20G<560.5 564> 647 20G<455.5 488.5> 647 29 648 20G<490 542 490 490> 653 20G<481 483> 674 20G<470.5 478>
VStem: 43 38 72 31 168 24<495 575.5 500 575.5 513 513 556 565 565 565 509.5 607> 453 212 588 77 619 89
LayerCount: 2
Fore
SplineSet
47 -28 m 1xa06a88346c
 65 20 100 61 129 103 c 0
 157 145 181 200 202 245 c 1
 222 262 267 310 267 332 c 0
 267 335 267 339 262 341 c 1
 266 347 274 347 280 353 c 1
 288 366 335 415 335 431 c 0
 335 433 332 435 331 435 c 1
 339 436 388 508 396 525 c 0
 416 566 447 618 452 668 c 1xa06a88316c
 454 667 455 667 456 667 c 0
 470 667 465 694 476 694 c 0
 480 694 490 689 499 689 c 0
 502 689 506 689 511 690 c 1
 589 681 l 2
 590 681 594 678 594 677 c 0
 590 669 587 658 583 650 c 0
 496 464 403 266 262 112 c 1
 257 103 237 61 231 52 c 1
 220 30 152 -73 138 -73 c 0
 121 -73 47 -48 47 -28 c 1xa06a88346c
137 -29 m 1xc05a88322c
 137 -43 l 1
 149 -34 168 -12 168 5 c 1
 159 5 155 0 146 0 c 0
 137 0 133 0 129 4 c 1
 124 4 120 0 112 0 c 0xc05a88322c
 108 0 103 0 103 4 c 1
 106 9 l 1
 123 25 165 11 184 26 c 1
 174 27 149 27 141 39 c 1
 193 39 l 1x882a88321c
 202 52 l 1
 198 52 183 53 181 53 c 0
 144 53 81 32 81 -15 c 0
 81 -28 97 -31 112 -31 c 0
 123 -31 133 -29 137 -29 c 1xc05a88322c
139 73 m 2
 129 56 l 1
 129 56 134 55 135 55 c 0
 144 55 193 65 197 69 c 1
 178 69 140 73 139 73 c 2
193 82 m 1
 198 82 210 88 216 88 c 2
 216 88 222 88 222 87 c 0
 222 86 221 83 214 73 c 1
 193 82 l 1
167 108 m 0
 159 108 152 95 150 91 c 1
 151 91 156 91 156 91 c 2
 164 91 206 94 206 99 c 0
 206 105 174 108 167 108 c 0
197 117 m 1
 197 115 202 112 204 112 c 0
 211 112 247 118 247 130 c 1
 233 130 221 124 207 124 c 0
 206 124 203 128 202 129 c 1
 194 129 172 120 167 117 c 1
 197 117 l 1
208 151 m 0
 204 151 174 145 174 137 c 0
 174 136 175 135 176 134 c 1
 185 136 224 136 224 145 c 1
 224 145 214 151 208 151 c 0
245 160 m 1
 247 158 255 155 257 155 c 0
 264 155 275 159 275 169 c 1
 245 160 l 1
275 181 m 1x906548322c
 202 181 l 2
 198 181 192 167 189 160 c 1
 275 181 l 1x906548322c
292 198 m 1
 292 186 l 1
 299 192 336 238 336 251 c 0
 336 252 336 253 335 254 c 1
 311 249 286 247 262 242 c 1
 282 239 318 241 318 229 c 0
 318 209 210 201 210 198 c 2
 210 194 l 1
 288 194 l 1x906948322c
 292 198 l 1
228 228 m 1
 214 211 l 1
 236 211 265 219 288 228 c 1
 228 228 l 1
262 271 m 0
 254 271 248 260 245 254 c 1
 254 254 l 1
 264 256 312 261 322 263 c 1
 266 271 l 1
 266 271 263 271 262 271 c 0
266 280 m 1
 272 279 299 276 305 276 c 0x906a88322c
 334 276 371 279 371 303 c 0
 371 304 370 305 370 306 c 1
 366 304 347 298 344 297 c 1
 335 297 272 286 271 285 c 2
 266 280 l 1
301 332 m 1
 297 327 283 308 280 297 c 1x906944822c
 304 297 346 305 365 319 c 1
 365 331 314 332 301 332 c 1
379 336 m 1
 379 334 378 333 378 331 c 0
 378 330 379 329 383 327 c 1
 379 327 l 1
 388 328 394 343 396 349 c 1
 372 349 346 347 322 341 c 1
 343 338 372 336 379 336 c 1
344 393 m 1
 345 394 326 368 313 353 c 1
 331 353 364 360 383 362 c 1
 335 371 l 1
 335 375 l 1
 409 375 l 1
 416 387 444 444 449 444 c 0
 450 444 420 441 412 440 c 1
 420 440 430 436 430 426 c 0
 430 422 373 401 344 393 c 1
400 426 m 1
 365 426 365 427 365 427 c 2
 364 427 358 417 353 405 c 1
 363 405 400 423 400 426 c 1
400 487 m 1
 399 486 387 459 374 449 c 1
 416 449 450 460 452 461 c 1
 446 469 417 477 400 487 c 1
409 496 m 1
 417 481 445 474 461 474 c 0x906a88322c
 462 474 464 475 464 475 c 1
 490 525 l 1
 486 524 465 515 461 513 c 0
 445 508 415 512 409 496 c 1
430 539 m 1
 421 513 l 1
 452 525 l 1
 452 525 453 527 453 528 c 0
 453 533 433 538 430 539 c 1
499 554 m 2
 498 554 467 544 461 543 c 1
 499 543 l 1
 500 544 502 548 502 550 c 0
 502 551 499 554 499 554 c 2
438 556 m 1
 438 548 l 1
 451 550 511 567 511 569 c 1
 492 579 464 582 464 595 c 0
 464 600 466 606 473 607 c 1
 546 629 l 1
 551 633 l 1
 531 640 499 647 478 647 c 0
 469 647 462 597 438 556 c 1
478 595 m 1
 492 584 498 582 511 582 c 0x906a88316c
 528 582 537 598 542 612 c 1
 541 612 536 613 536 613 c 2
 535 613 495 601 478 595 c 1
511 651 m 1
 517 650 541 647 546 647 c 0x906a48322c
 555 647 564 651 564 662 c 1x906a88386c
 557 662 546 664 542 668 c 1
 490 668 l 1x906a88316c
 489 669 484 673 482 673 c 0x906a8830ec
 480 673 478 669 478 668 c 0
 480 658 512 663 512 654 c 0
 512 653 512 652 511 651 c 1
198 302 m 1
 78 302 l 1
 78 306 80 321 80 326 c 0
 80 379 78 411 78 467 c 0
 78 490 72 511 72 533 c 0x906a48321c
 72 536 75 541 75 544 c 0
 75 546 74 548 69 548 c 0
 61 548 60 540 50 540 c 0
 44 540 38 541 38 550 c 0
 38 557 43 561 43 569 c 0
 43 635 65 619 98 633 c 1
 112 655 105 676 137 676 c 0
 147 676 189 673 198 664 c 1
 198 633 192 607 192 544 c 0
 192 475 194 418 194 344 c 1
 198 302 l 1
107 327 m 1
 127 327 150 325 168 323 c 1
 168 326 172 330 172 333 c 0
 172 342 171 350 163 350 c 0x906a18321c
 148 350 115 331 107 327 c 1
103 366 m 1
 103 340 l 1
 159 362 l 1
 112 362 l 1
 103 366 l 1
97 394 m 0
 97 387 97 380 103 375 c 1
 104 376 111 378 112 379 c 1
 112 396 165 396 165 409 c 1
 160 409 154 410 147 410 c 0
 125 410 97 408 97 394 c 0
169 393 m 1
 156 393 142 384 133 379 c 1
 163 379 l 2
 169 379 169 393 169 393 c 1
169 444 m 1
 159 444 110 422 107 417 c 1
 118 417 l 2
 155 417 169 417 169 444 c 1
163 457 m 1x906a84821c
 103 457 l 1
 103 456 98 429 98 426 c 1
 126 440 154 448 163 457 c 1x906a84821c
98 528 m 2
 97 490 l 2
 97 481 98 471 103 466 c 1
 122 480 145 488 168 495 c 1
 168 500 l 1
 112 500 l 2
 111 500 108 503 107 504 c 1
 107 527 157 534 172 543 c 1
 164 543 153 544 142 544 c 0x906a88321c
 120 544 98 541 98 528 c 2
170 484 m 1x906a84522c
 156 484 145 477 133 469 c 1x906a81322c
 138 469 143 468 149 468 c 0x906a82322c
 160 468 170 471 170 484 c 1x906a84522c
168 525 m 0
 155 525 139 524 129 513 c 1
 168 513 l 2
 169 513 172 516 172 517 c 0
 172 518 169 525 168 525 c 0
86 573 m 1
 92 569 92 560 98 556 c 1
 114 563 165 571 165 577 c 1
 157 578 147 579 137 579 c 0
 122 579 105 577 86 573 c 1
168 565 m 1
 167 565 143 559 133 556 c 1
 168 556 l 1
 168 565 l 1
60 591 m 0
 60 588 60 582 64 582 c 0x80aa8480ec
 65 582 72 585 72 586 c 0
 95 595 114 601 137 607 c 1
 142 612 l 1
 138 614 123 616 120 616 c 0
 119 616 104 607 103 607 c 0
 88 602 60 609 60 591 c 0
168 607 m 1
 164 604 162 603 160 603 c 0
 158 603 156 604 153 604 c 1
 155 604 115 593 98 586 c 1
 126 586 138 586 168 591 c 1
 168 607 l 1
168 640 m 1
 162 640 124 633 124 629 c 2
 124 624 l 1
 125 624 168 624 168 629 c 2
 168 640 l 1
146 659 m 1
 136 652 129 658 129 643 c 0
 129 641 133 641 135 641 c 0
 143 641 147 646 147 653 c 0
 147 654 146 658 146 659 c 1
536 -14 m 0
 509 -14 485 -20 458 -20 c 1
 445 -15 l 1
 445 35 588 123 588 233 c 0x812a88322a
 588 249 582 271 579 287 c 1
 494 287 506 217 481 217 c 0
 469 217 470 249 467 257 c 0
 464 264 453 270 453 278 c 0
 453 321 547 365 561 368 c 0
 576 371 584 374 596 374 c 0
 655 374 704 308 704 248 c 0
 704 216 684 177 665 153 c 1x906488322c
 669 149 l 1
 651 138 640 110 640 93 c 1
 700 93 l 2
 707 93 709 88 709 81 c 0
 709 78 708 74 708 70 c 0
 708 44 712 10 721 -15 c 1
 721 -20 714 -29 713 -32 c 1
 709 -28 l 2xa06a883229
 708 -28 660 -24 639 -23 c 0x826a88322c
 636 -23 617 -24 602 -24 c 0x906a88322c
 572 -24 566 -14 536 -14 c 0
639 2 m 1
 648 2 650 -3 672 -3 c 0x906a88322c
 683 -3 695 -1 695 9 c 0
 695 11 692 28 691 33 c 1
 675 26 652 11 639 2 c 1
631 67 m 1
 606 50 471 36 471 2 c 1
 480 7 498 8 517 8 c 0
 534 8 553 7 570 7 c 1x80aa88322c
 574 2 583 1 592 1 c 0x812a88322c
 599 1 606 2 610 2 c 1
 665 41 l 1
 648 41 l 1
 553 19 l 2
 553 20 552 21 552 22 c 1
 551 22 558 30 561 33 c 1
 622 59 l 1
 631 67 l 1
613 106 m 1
 588 93 545 68 527 45 c 1
 601 67 l 1
 600 69 600 71 600 73 c 0
 600 86 613 92 613 106 c 1
687 68 m 1
 673 68 639 63 631 50 c 1
 635 49 l 1
 644 49 685 62 687 62 c 1
 687 68 l 1
576 104 m 1
 558 100 526 90 526 67 c 0
 526 65 526 62 527 59 c 1
 533 65 580 94 580 100 c 0
 580 101 576 104 576 104 c 1
631 144 m 1
 609 138 578 119 575 114 c 1
 593 114 623 120 631 144 c 1
592 170 m 1
 575 136 l 1
 584 136 l 1
 584 136 639 161 639 166 c 1
 592 170 l 1
648 205 m 1
 605 205 l 2
 604 205 595 192 593 188 c 1
 593 183 596 181 596 179 c 1
 609 190 637 201 648 205 c 1
672 201 m 1
 660 201 625 190 618 179 c 1
 620 179 631 178 633 178 c 0x840528322c
 662 178 658 185 674 196 c 1
 672 201 l 1
665 263 m 0
 665 235 636 229 618 217 c 1
 669 217 l 1
 674 222 l 2
 675 224 675 236 675 240 c 0
 675 261 674 286 661 304 c 1
 646 291 627 291 613 274 c 1
 614 274 616 278 635 278 c 0
 646 278 665 277 665 263 c 0
610 240 m 0
 610 238 612 232 613 231 c 1
 626 234 650 248 650 263 c 1
 644 264 639 264 634 264 c 0
 620 264 610 259 610 240 c 0
517 318 m 1
 500 318 487 307 487 291 c 1
 504 291 517 301 517 318 c 1
618 300 m 1
 613 300 602 298 602 291 c 1
 609 291 618 291 618 300 c 1
549 313 m 1
 549 308 l 1
 550 308 619 311 619 338 c 1x906a883229
 610 338 606 342 597 342 c 0
 586 342 559 316 549 313 c 1
631 325 m 1
 619 322 601 310 601 308 c 1
 615 308 639 313 652 316 c 1
 652 323 646 328 639 330 c 1
 639 322 l 1
 637 322 636 321 635 321 c 0
 634 321 633 322 631 325 c 1
527 334 m 0
 527 332 534 325 536 325 c 0
 539 325 551 332 553 334 c 1
 551 338 548 341 543 341 c 0
 538 341 528 340 527 334 c 0
EndSplineSet
Validated: 37
EndChar

StartChar: onequarter
Encoding: 188 188 19
Width: 756
Flags: MW
HStem: -73 46 -73 107 -29 21G<145 147> -12 21G 0 21G 22 94<624.5 627.5> 53 63 65 51 82 34<425 430 425 547 409 430> 122 31<668 706> 134 51<499 521 499 602> 181 30<210 235 224 235 224 285 598 598.5> 233 43 302 73 327 35<112 117> 350 25 410 64 426 23<392.5 405 384 410> 448 20G<146 154.5> 449 20G 457 125<62 163 62 103> 464 20G<163 170> 480 20G<111.5 112 112 168> 544 38 642 20G<570.5 574> 647 20G<465.5 498.5> 647 29 648 20G<500 552 500 500> 653 20G<491 493> 674 20G<480.5 488>
VStem: 43 48 72 120<522 534.5 509.5 586> 178 20 548 106 647 20 647 81<53.5 82.5>
LayerCount: 2
Fore
SplineSet
550 -46 m 1x915c8322a0
 547 82 l 1
 409 82 l 1
 399 85 391 91 385 91 c 1
 385 117 468 214 486 236 c 0
 519 277 548 320 594 359 c 1
 611 359 627 362 643 362 c 0x90da8322c0
 657 362 661 335 661 302 c 0
 661 260 654 207 654 194 c 0
 654 178 663 163 663 151 c 0
 663 134 627 133 607 129 c 1
 611 126 612 116 617 116 c 0
 638 116 676 127 693 134 c 1x90ac8322c0
 690 145 668 131 668 153 c 1
 707 153 724 149 724 120 c 0
 724 111 723 102 723 95 c 0
 723 90 728 87 728 78 c 0x945c832290
 728 66 718 65 705 65 c 2
 690 65 l 2
 675 65 662 63 662 45 c 0
 662 19 667 -1 667 -25 c 0
 667 -36 569 -40 550 -46 c 1x915c8322a0
566 -20 m 1
 566 -26 580 -27 583 -27 c 0
 594 -27 610 -12 636 -12 c 1
 637 -2 l 2
 637 1 638 5 638 9 c 0
 638 14 637 22 632 22 c 0x945c8322c0
 617 22 587 -17 566 -20 c 1
568 21 m 1x8c5c8322a0
 568 11 l 1
 584 11 610 21 620 26 c 1
 603 26 585 21 568 21 c 1x8c5c8322a0
641 62 m 1
 634 45 601 38 590 34 c 1x425c8322c0
 619 34 647 37 647 70 c 1
 624 70 573 62 568 38 c 1
 593 38 619 53 641 62 c 1
680 90 m 1
 682 84 691 81 698 81 c 1
 704 88 706 109 706 122 c 1
 685 122 614 105 607 90 c 1
 608 90 613 91 617 91 c 0
 628 91 632 90 632 86 c 1
 637 95 l 1
 641 98 683 103 684 103 c 1
 682 102 680 94 680 90 c 1
607 108 m 1
 607 108 585 102 581 95 c 1
 586 95 607 98 607 108 c 1
587 117 m 0
 584 117 566 114 566 107 c 0
 566 106 567 104 568 103 c 1
 578 105 598 112 598 116 c 1x942c8322c0
 597 116 589 117 587 117 c 0
521 134 m 1
 508 127 454 119 454 108 c 1
 503 108 l 1
 539 123 600 122 602 134 c 1
 521 134 l 1
483 140 m 0
 468 140 433 132 425 116 c 1
 430 116 l 1
 491 137 l 2
 490 137 484 140 483 140 c 0
641 162 m 1
 626 160 592 150 573 142 c 1
 573 137 l 1
 577 141 617 150 641 155 c 1
 641 162 l 1
482 169 m 0
 466 169 453 167 447 151 c 1
 463 151 489 166 491 168 c 1
 489 168 483 169 482 169 c 0
555 178 m 1
 550 177 532 161 532 155 c 1
 555 155 l 1
 555 178 l 1
626 172 m 0
 621 172 581 165 581 163 c 1
 576 155 l 1
 581 157 610 165 628 168 c 1
 632 172 l 1
 632 172 627 172 626 172 c 0
638 199 m 1
 634 199 610 188 598 181 c 1x945c8322c0
 599 181 609 180 611 180 c 0
 624 180 638 183 638 199 c 1
559 233 m 1
 544 212 508 200 499 185 c 1x942c8322c0
 533 185 533 210 559 211 c 1
 573 215 l 1
 590 215 609 223 623 233 c 1
 559 233 l 1
508 211 m 2x945a8346c0
 498 211 481 206 481 193 c 1
 493 193 509 200 516 211 c 1
 515 211 508 211 508 211 c 2x945a8346c0
637 224 m 1
 594 211 l 1
 607 211 l 2
 610 211 637 211 637 215 c 2
 637 224 l 1
524 259 m 1
 524 253 516 240 516 236 c 1
 531 240 555 262 561 262 c 1
 560 262 531 260 524 259 c 1
627 283 m 1
 627 270 590 263 581 259 c 0
 576 256 556 245 550 244 c 1
 564 244 l 1
 564 240 l 1
 584 240 l 2
 601 240 621 241 632 250 c 1
 636 266 637 275 637 291 c 2
 637 310 l 1
 615 299 579 285 576 280 c 1
 593 280 609 283 627 283 c 1
598 327 m 0
 574 327 558 300 550 280 c 1
 562 280 620 312 628 323 c 1
 616 327 609 327 598 327 c 0
57 -28 m 1
 75 20 110 61 139 103 c 0
 167 145 191 200 212 245 c 1
 232 262 277 310 277 332 c 0
 277 335 277 339 272 341 c 1
 276 347 284 347 290 353 c 1
 298 366 345 415 345 431 c 0
 345 433 342 435 341 435 c 1
 349 436 398 508 406 525 c 0
 426 566 457 618 462 668 c 1x2a5c8316c0
 464 667 465 667 466 667 c 0
 480 667 475 694 486 694 c 0
 490 694 500 689 509 689 c 0
 512 689 516 689 521 690 c 1
 599 681 l 2
 600 681 604 678 604 677 c 0
 600 669 597 658 593 650 c 0
 506 464 413 266 272 112 c 1
 267 103 247 61 241 52 c 1
 230 30 162 -73 148 -73 c 0
 131 -73 57 -48 57 -28 c 1
147 -29 m 1
 147 -43 l 1
 159 -34 178 -12 178 5 c 1
 169 5 165 0 156 0 c 0
 147 0 143 0 139 4 c 1
 134 4 130 0 122 0 c 0x28ac8322c0
 118 0 113 0 113 4 c 1
 116 9 l 1x945c8322c0
 133 25 175 11 194 26 c 1
 184 27 159 27 151 39 c 1
 203 39 l 1
 212 52 l 1
 208 52 193 53 191 53 c 0
 154 53 91 32 91 -15 c 0
 91 -28 107 -31 122 -31 c 0
 133 -31 143 -29 147 -29 c 1
149 73 m 2
 139 56 l 1
 139 56 144 55 145 55 c 0
 154 55 203 65 207 69 c 1
 188 69 150 73 149 73 c 2
203 82 m 1
 208 82 220 88 226 88 c 2
 226 88 232 88 232 87 c 0
 232 86 231 83 224 73 c 1
 203 82 l 1
177 108 m 0
 169 108 162 95 160 91 c 1
 161 91 166 91 166 91 c 2
 174 91 216 94 216 99 c 0
 216 105 184 108 177 108 c 0
207 117 m 1
 207 115 212 112 214 112 c 0
 221 112 257 118 257 130 c 1
 243 130 231 124 217 124 c 0
 216 124 213 128 212 129 c 1
 204 129 182 120 177 117 c 1
 207 117 l 1
218 151 m 0
 214 151 184 145 184 137 c 0
 184 136 185 135 186 134 c 1
 195 136 234 136 234 145 c 1
 234 145 224 151 218 151 c 0
255 160 m 1
 257 158 265 155 267 155 c 0
 274 155 285 159 285 169 c 1
 255 160 l 1
285 181 m 1x945a4822c0
 212 181 l 2
 208 181 202 167 199 160 c 1
 285 181 l 1x945a4822c0
302 198 m 1
 302 186 l 1
 309 192 346 238 346 251 c 0
 346 252 346 253 345 254 c 1
 321 249 296 247 272 242 c 1
 292 239 328 241 328 229 c 0
 328 209 220 201 220 198 c 2
 220 194 l 1
 298 194 l 1
 302 198 l 1
238 228 m 1
 224 211 l 1
 246 211 275 219 298 228 c 1
 238 228 l 1
272 271 m 0
 264 271 258 260 255 254 c 1
 264 254 l 1
 274 256 322 261 332 263 c 1
 276 271 l 1
 276 271 273 271 272 271 c 0
276 280 m 1
 282 279 309 276 315 276 c 0
 344 276 381 279 381 303 c 0
 381 304 380 305 380 306 c 1
 376 304 357 298 354 297 c 1
 345 297 282 286 281 285 c 2
 276 280 l 1
311 332 m 1
 307 327 293 308 290 297 c 1
 314 297 356 305 375 319 c 1
 375 331 324 332 311 332 c 1
389 336 m 1
 389 334 388 333 388 331 c 0
 388 330 389 329 393 327 c 1
 389 327 l 1
 398 328 404 343 406 349 c 1
 382 349 356 347 332 341 c 1
 353 338 382 336 389 336 c 1
354 393 m 1
 355 394 336 368 323 353 c 1
 341 353 374 360 393 362 c 1x945a4822c0
 345 371 l 1
 345 375 l 1
 419 375 l 1x945c8322c0
 426 387 454 444 459 444 c 0
 460 444 430 441 422 440 c 1
 430 440 440 436 440 426 c 0
 440 422 383 401 354 393 c 1
410 426 m 1
 375 426 375 427 375 427 c 2
 374 427 368 417 363 405 c 1
 373 405 410 423 410 426 c 1
410 487 m 1
 409 486 397 459 384 449 c 1
 426 449 460 460 462 461 c 1
 456 469 427 477 410 487 c 1
419 496 m 1
 427 481 455 474 471 474 c 0x945c8322c0
 472 474 474 475 474 475 c 1
 500 525 l 1
 496 524 475 515 471 513 c 0
 455 508 425 512 419 496 c 1
440 539 m 1
 431 513 l 1
 462 525 l 1
 462 525 463 527 463 528 c 0
 463 533 443 538 440 539 c 1
509 554 m 2
 508 554 477 544 471 543 c 1
 509 543 l 1
 510 544 512 548 512 550 c 0
 512 551 509 554 509 554 c 2
448 556 m 1
 448 548 l 1
 461 550 521 567 521 569 c 1
 502 579 474 582 474 595 c 0
 474 600 476 606 483 607 c 1
 556 629 l 1
 561 633 l 1
 541 640 509 647 488 647 c 0
 479 647 472 597 448 556 c 1
488 595 m 1
 502 584 508 582 521 582 c 0x945c8316c0
 538 582 547 598 552 612 c 1
 551 612 546 613 546 613 c 2
 545 613 505 601 488 595 c 1
521 651 m 1
 527 650 551 647 556 647 c 0x945c8322c0
 565 647 574 651 574 662 c 1x945c8386c0
 567 662 556 664 552 668 c 1
 500 668 l 1x945c8316c0
 499 669 494 673 492 673 c 0x945c830ec0
 490 673 488 669 488 668 c 0
 490 658 522 663 522 654 c 0
 522 653 522 652 521 651 c 1
198 302 m 1
 78 302 l 1
 78 306 80 321 80 326 c 0
 80 379 78 411 78 467 c 0
 78 490 72 511 72 533 c 0x945c832140
 72 536 75 541 75 544 c 0
 75 546 74 548 69 548 c 0
 61 548 60 540 50 540 c 0
 44 540 38 541 38 550 c 0
 38 557 43 561 43 569 c 0
 43 635 65 619 98 633 c 1
 112 655 105 676 137 676 c 0
 147 676 189 673 198 664 c 1x945c8322c0
 198 633 192 607 192 544 c 0x945c832140
 192 475 194 418 194 344 c 1
 198 302 l 1
107 327 m 1x945a8322c0
 127 327 150 325 168 323 c 1
 168 326 172 330 172 333 c 0
 172 342 171 350 163 350 c 0x94598322c0
 148 350 115 331 107 327 c 1x945a8322c0
103 366 m 1
 103 340 l 1
 159 362 l 1
 112 362 l 1
 103 366 l 1
97 394 m 0
 97 387 97 380 103 375 c 1x945c4822c0
 104 376 111 378 112 379 c 1
 112 396 165 396 165 409 c 1
 160 409 154 410 147 410 c 0
 125 410 97 408 97 394 c 0
169 393 m 1
 156 393 142 384 133 379 c 1
 163 379 l 2
 169 379 169 393 169 393 c 1
169 444 m 1
 159 444 110 422 107 417 c 1
 118 417 l 2
 155 417 169 417 169 444 c 1
163 457 m 1
 103 457 l 1
 103 456 98 429 98 426 c 1
 126 440 154 448 163 457 c 1
98 528 m 2
 97 490 l 2
 97 481 98 471 103 466 c 1
 122 480 145 488 168 495 c 1
 168 500 l 1
 112 500 l 2
 111 500 108 503 107 504 c 1
 107 527 157 534 172 543 c 1
 164 543 153 544 142 544 c 0x945c8322c0
 120 544 98 541 98 528 c 2
170 484 m 1x945c4522c0
 156 484 145 477 133 469 c 1x945c1322c0
 138 469 143 468 149 468 c 0x945c2322c0
 160 468 170 471 170 484 c 1x945c4522c0
168 525 m 0
 155 525 139 524 129 513 c 1
 168 513 l 2
 169 513 172 516 172 517 c 0
 172 518 169 525 168 525 c 0
86 573 m 1
 92 569 92 560 98 556 c 1
 114 563 165 571 165 577 c 1
 157 578 147 579 137 579 c 0
 122 579 105 577 86 573 c 1
168 565 m 1
 167 565 143 559 133 556 c 1
 168 556 l 1
 168 565 l 1
60 591 m 0
 60 588 60 582 64 582 c 0x945c480ec0
 65 582 72 585 72 586 c 0
 95 595 114 601 137 607 c 1
 142 612 l 1
 138 614 123 616 120 616 c 0
 119 616 104 607 103 607 c 0
 88 602 60 609 60 591 c 0
168 607 m 1
 164 604 162 603 160 603 c 0
 158 603 156 604 153 604 c 1
 155 604 115 593 98 586 c 1
 126 586 138 586 168 591 c 1
 168 607 l 1
168 640 m 1
 162 640 124 633 124 629 c 2
 124 624 l 1
 125 624 168 624 168 629 c 2
 168 640 l 1
146 659 m 1
 136 652 129 658 129 643 c 0
 129 641 133 641 135 641 c 0
 143 641 147 646 147 653 c 0
 147 654 146 658 146 659 c 1
EndSplineSet
Validated: 37
EndChar

StartChar: one
Encoding: 49 49 20
Width: 366
Flags: MW
HStem: -17 92<96 155> -12 21G -8 21G 377 123<234 239.5> 397 103<229 239.5> 463 20G<153 154.5> 466 34<53 81.5> 469 20G<211.5 225> 476 20G<181 190.5> 486 113<44 116> 486 143<106 179> 644 20G<257.5 259> 691 20G<178 193.5>
VStem: 43 27<500 555> 113 30<194 225 194 250 250 278 310 310.5> 113 34<288 293> 113 124<188.5 199.5 188.5 431> 246 40
LayerCount: 2
Fore
SplineSet
87 -4 m 2x901e40
 87 4 l 2
 87 30 107 167 113 177 c 1
 113 431 l 2
 113 437 116 464 117 470 c 0
 117 473 116 483 116 486 c 1x243e40
 96 486 79 466 61 466 c 0x821e40
 45 466 43 511 43 542 c 0
 43 568 44 580 44 599 c 1
 67 599 152 661 178 711 c 1
 209 711 279 699 281 694 c 0
 285 674 285 668 285 651 c 0
 285 620 276 587 276 557 c 0
 276 508 286 460 286 411 c 0
 286 372 281 335 281 295 c 0
 281 268 286 240 286 211 c 0
 286 169 286 -12 263 -12 c 0x445e40
 262 -12 252 -8 251 -8 c 0x301e40
 203 -8 148 -17 104 -17 c 0
 88 -17 87 -12 87 -4 c 2x901e40
113 13 m 1
 121 4 l 1
 169 35 l 1
 169 21 l 1
 190 30 l 1
 190 16 171 20 164 9 c 1
 175 9 l 2x501e40
 186 9 246 13 246 18 c 2
 246 49 l 1
 239 38 228 38 216 30 c 1
 212 35 l 1
 232 52 248 58 251 83 c 1
 207 62 166 56 121 56 c 1
 113 13 l 1
251 123 m 1x301cc0
 129 76 l 2
 131 76 139 75 141 75 c 0x901cc0
 169 75 251 90 251 106 c 2
 251 123 l 1x301cc0
138 134 m 1
 131 124 129 110 129 99 c 1
 146 99 181 108 190 121 c 1
 246 147 l 1
 242 151 l 1
 190 143 l 1
 190 147 l 1
 187 144 157 137 138 134 c 1
237 196 m 0
 237 181 154 161 138 151 c 1
 147 151 l 2x901d40
 165 151 255 167 255 169 c 2
 255 230 l 1
 243 230 184 203 178 194 c 1
 203 203 220 206 229 206 c 0
 234 206 237 203 237 196 c 0
143 177 m 0x901e40
 139 177 138 172 138 169 c 1
 154 174 175 177 190 186 c 1
 188 186 159 180 143 177 c 0x901e40
248 246 m 1
 216 242 154 230 143 225 c 1
 143 194 l 1
 233 233 l 1
 237 239 246 240 248 246 c 1
155 242 m 1
 157 242 163 241 164 241 c 0
 175 241 251 258 251 259 c 2
 251 285 l 1
 244 283 223 274 155 242 c 1
143 278 m 1
 143 250 l 1x901e40
 152 250 232 284 237 293 c 1x901cc0
 217 293 173 278 143 278 c 1
147 293 m 1x901d40
 147 288 l 1
 178 288 222 300 251 306 c 1
 255 350 l 1
 249 340 184 312 147 293 c 1x901d40
147 327 m 0
 142 326 142 321 142 317 c 0
 142 316 143 311 143 310 c 1x901e40
 172 312 214 336 237 350 c 1x901cc0
 211 350 172 331 147 327 c 0
155 341 m 0
 155 340 159 336 160 336 c 1
 160 337 238 362 242 362 c 2
 251 362 l 1
 251 362 252 364 252 367 c 0
 252 372 250 377 241 377 c 0
 227 377 182 353 155 341 c 0
138 409 m 1
 138 409 140 367 143 350 c 1x881e40
 147 350 l 1
 225 384 l 1
 228 389 238 394 242 397 c 1x881d40
 216 397 183 379 158 379 c 0
 155 379 152 381 152 384 c 1
 171 416 214 434 246 444 c 1
 251 449 l 1
 242 448 138 426 138 409 c 1
251 435 m 1
 238 430 195 411 186 397 c 1
 188 396 251 411 251 414 c 2
 251 435 l 1
246 493 m 0
 246 478 183 448 164 440 c 1
 193 440 226 456 255 461 c 1
 255 492 250 520 250 551 c 0
 250 556 251 560 251 565 c 1
 239 559 222 552 212 543 c 1
 242 539 l 1
 242 526 l 1
 215 517 207 507 181 496 c 1x809e40
 200 496 218 500 237 500 c 0x901cc0
 242 500 246 499 246 493 c 0
212 531 m 1
 202 531 147 518 147 505 c 2
 147 444 l 1
 156 451 225 478 225 489 c 1x811d40
 198 489 156 483 153 483 c 1x845e40
 153 517 212 513 212 531 c 1
253 583 m 1
 211 583 70 549 70 500 c 1x901e40
 93 500 176 548 189 548 c 1
 215 554 253 575 253 583 c 1
74 557 m 1
 74 539 l 1
 76 541 102 549 117 557 c 1
 125 560 161 604 182 604 c 0
 198 604 238 627 238 634 c 1
 226 634 176 620 74 557 c 1
129 626 m 1
 106 610 67 609 67 574 c 1
 78 574 l 1
 155 621 l 2
 154 621 146 621 134 617 c 1
 129 626 l 1
261 623 m 1
 251 623 174 588 164 575 c 1
 195 585 257 588 261 623 c 1
253 688 m 1
 244 688 239 669 229 664 c 0
 206 653 183 640 160 630 c 1
 161 630 163 629 164 629 c 0x843e40
 194 629 224 646 255 646 c 1
 259 642 l 1
 259 664 l 1
 256 664 251 668 251 673 c 0
 251 678 253 683 253 688 c 1
198 690 m 0
 191 690 183 661 182 656 c 1
 188 658 222 670 234 685 c 1
 224 688 212 690 198 690 c 0
EndSplineSet
Validated: 33
EndChar

StartChar: p
Encoding: 112 112 21
Width: 597
Flags: MW
HStem: -270 23<102.5 126.5> -270 52<98.5 154.5> -232 200<121 296.5> -54 22<273 296.5 273 368.5> -54 52<261 368.5> -54 130<287 334 287 368.5> -27 21G<149 153> -23 21G -14 21G -5 21G<142.5 154 206 206> -1 21G<253 254> 351 26 351 118 391 94 440 20G<310.5 328.5> 462 20G<82.5 117.5>
VStem: 55 30<61.5 121> 67 30<-235 -231 -235 -122> 67 187<273 296> 193 27<-192 -182> 193 43 193 245 535 33
LayerCount: 2
Fore
SplineSet
67 -122 m 1x925452
 62 -90 64 -90 58 15 c 1
 59 24 59 31 59 37 c 0
 59 59 55 67 55 91 c 0xa25486
 55 151 68 206 68 267 c 0
 68 274 67 294 67 296 c 2
 64 305 l 1
 60 312 59 323 59 336 c 0
 59 393 61 482 104 482 c 0xa25346
 131 482 141 469 163 469 c 0xa24886
 185 469 207 466 207 445 c 0
 207 443 206 440 206 438 c 1
 229 468 284 485 320 485 c 0
 350 485 380 475 408 464 c 1
 411 458 436 452 443 447 c 0
 487 408 511 378 533 335 c 0
 539 323 568 205 568 203 c 0
 568 159 559 117 559 72 c 1
 532 10 451 -54 286 -54 c 0
 257 -54 237 -37 210 -37 c 1
 210 -93 220 -149 220 -206 c 0
 220 -218 219 -249 219 -252 c 1
 215 -260 l 1
 178 -260 145 -270 108 -270 c 0
 89 -270 67 -270 67 -243 c 2
 67 -122 l 1x925452
98 -200 m 1
 97 -231 l 2
 97 -239 99 -247 106 -247 c 0
 174 -247 156 -235 167 -221 c 1
 153 -221 139 -232 124 -232 c 0
 118 -232 111 -231 111 -226 c 0
 111 -206 159 -194 159 -186 c 1
 159 -186 158 -183 158 -182 c 1
 141 -193 118 -198 98 -200 c 1
193 -204 m 1
 181 -207 171 -227 167 -238 c 1
 190 -238 l 1
 191 -228 194 -221 194 -213 c 0
 194 -210 194 -207 193 -204 c 1
193 -182 m 1
 184 -186 132 -212 132 -217 c 1
 134 -217 141 -218 143 -218 c 0x483486
 166 -218 193 -202 193 -182 c 1
196 -143 m 1
 183 -143 132 -173 124 -186 c 1
 141 -182 134 -182 154 -174 c 0
 175 -166 196 -170 196 -143 c 1
149 -143 m 0
 145 -143 93 -150 93 -153 c 2
 93 -182 l 1
 119 -177 146 -160 167 -144 c 1
 165 -144 152 -143 149 -143 c 0
184 -104 m 0
 172 -104 99 -133 93 -144 c 1
 123 -144 157 -129 193 -129 c 1
 191 -122 193 -104 184 -104 c 0
184 -87 m 1
 167 -87 l 1
 105 -103 98 -81 98 -128 c 1
 107 -128 175 -95 184 -87 c 1
184 -40 m 1
 169 -46 104 -80 102 -83 c 1
 105 -83 117 -84 119 -84 c 0
 137 -84 189 -83 189 -57 c 0
 189 -54 185 -43 184 -40 c 1
93 -54 m 1
 93 -70 l 1
 110 -63 134 -53 134 -48 c 1
 120 -48 108 -54 93 -54 c 1
90 -23 m 1xa13486
 91 -37 l 1
 109 -37 142 -21 154 -5 c 1xa25486
 131 -5 109 -17 90 -23 c 1xa13486
240 -21 m 1xa13486
 240 -30 270 -32 276 -32 c 0
 317 -32 338 -11 373 7 c 0
 389 15 422 13 430 29 c 1
 429 29 422 29 422 29 c 2
 402 29 347 7 318 7 c 1xa09486
 318 12 l 1
 507 63 l 1
 509 62 512 61 514 61 c 0
 534 61 535 100 535 112 c 1
 509 112 471 92 451 76 c 1x841486
 390 60 310 34 253 -1 c 1
 255 -1 260 -2 262 -2 c 0xa13486
 278 -2 291 7 309 7 c 1xa09486
 306 -14 254 -11 240 -21 c 1xa13486
171 -14 m 1
 149 -27 l 1xa25486
 157 -27 167 -23 175 -19 c 1
 171 -14 l 1
512 46 m 1xa09486
 459 35 409 9 361 -14 c 0xa09486
 359 -15 349 -21 347 -23 c 1xa13486
 386 -23 442 -13 477 12 c 0
 488 20 512 39 512 42 c 2
 512 46 l 1xa09486
206 -5 m 1xa25486
 207 -9 215 -14 219 -14 c 1xa09486
 224 1 286 32 318 46 c 1
 291 50 273 55 251 68 c 1
 252 68 171 18 124 -1 c 1xa23486
 155 3 181 11 210 21 c 1
 215 19 220 16 223 12 c 1
 206 -5 l 1xa25486
90 29 m 1
 90 -10 l 1
 96 -4 116 -11 116 1 c 0
 116 5 202 47 219 59 c 1
 218 59 215 60 215 60 c 1
 198 60 182 47 164 47 c 1
 164 50 162 51 162 51 c 2
 162 53 240 72 240 87 c 1
 236 101 213 150 204 150 c 0
 203 150 201 150 90 98 c 1
 90 88 85 75 85 63 c 0
 85 60 88 41 90 37 c 1
 105 37 118 41 132 41 c 1
 132 37 l 1
 132 37 102 29 90 29 c 1
184 98 m 2
 111 89 l 1
 116 100 200 120 217 120 c 1
 217 106 158 64 93 42 c 1
 93 42 92 45 92 46 c 0
 92 54 136 71 145 76 c 0x84148a
 157 82 184 97 184 98 c 2
236 231 m 0
 236 176 250 76 324 76 c 0
 344 76 350 82 370 94 c 0
 405 115 419 131 419 169 c 0
 419 178 418 187 399 296 c 1
 387 330 354 347 318 356 c 1
 313 352 306 351 300 351 c 0
 297 351 294 352 292 352 c 1
 253 313 l 2
 249 310 248 300 248 293 c 0
 248 285 254 285 254 278 c 0x841422
 254 268 236 261 236 231 c 0
430 98 m 1
 423 95 422 79 422 76 c 1
 427 78 482 106 516 124 c 1
 488 124 472 105 430 98 c 1
189 153 m 1
 181 153 85 136 85 132 c 1
 84 129 83 113 83 111 c 1
 99 111 142 131 154 136 c 0
 159 139 183 151 189 153 c 1
539 160 m 1
 433 111 l 1
 438 111 l 2xa25486
 439 111 500 128 525 136 c 0
 535 140 539 148 539 160 c 1
473 162 m 1
 460 162 438 156 438 153 c 2
 438 132 l 1
 516 167 l 1
 481 167 l 1
 477 171 l 1
 494 178 515 183 533 183 c 1
 533 176 l 1
 537 179 l 1
 537 210 l 1
 442 169 l 1
 469 169 l 1
 473 162 l 1
98 249 m 1
 98 245 99 241 99 237 c 0
 99 206 84 178 84 148 c 1
 102 148 185 199 197 214 c 1
 197 214 194 215 193 215 c 0
 174 215 159 197 139 197 c 0
 132 197 124 197 105 195 c 1
 105 196 102 199 102 201 c 0
 102 202 117 217 119 219 c 2
 206 261 l 1
 206 266 l 1
 200 262 177 253 173 253 c 0
 168 253 153 253 149 257 c 1
 172 262 215 266 215 301 c 1
 172 282 116 262 98 249 c 1
197 193 m 1
 176 172 135 173 116 150 c 1
 126 150 201 163 201 178 c 0
 201 182 197 188 197 193 c 1
507 219 m 1
 499 219 l 1
 502 220 438 208 438 205 c 2
 438 178 l 1
 456 178 494 202 507 219 c 1
201 244 m 1
 176 238 153 226 132 210 c 1
 143 210 202 217 202 236 c 0
 202 237 202 243 201 244 c 1
529 266 m 1
 511 265 447 236 438 223 c 1
 440 223 451 222 454 222 c 0
 479 222 503 230 529 230 c 1
 529 266 l 1
107 249 m 1
 118 253 130 254 141 254 c 1
 141 250 l 1
 134 250 125 250 119 244 c 1
 107 249 l 1
89 318 m 1
 89 298 90 288 93 266 c 1
 111 266 153 283 173 293 c 1
 171 293 162 293 128 287 c 0
 120 285 112 279 105 279 c 0
 102 279 100 279 98 281 c 1
 98 287 l 1
 133 308 208 333 231 356 c 1
 231 356 224 356 223 356 c 0
 216 356 178 352 175 352 c 1
 171 348 l 2
 171 349 168 352 167 352 c 0
 158 352 148 347 141 347 c 0
 140 347 133 348 132 348 c 0
 129 347 195 364 227 369 c 1
 245 386 l 1
 326 426 l 1
 335 434 l 1
 324 434 314 429 304 429 c 0
 303 429 301 430 300 430 c 2
 132 365 l 1
 118 365 110 352 89 318 c 1
512 299 m 1
 492 279 441 279 434 265 c 1
 434 259 l 1
 458 259 478 278 498 278 c 0
 507 278 512 277 521 273 c 1
 521 279 521 294 512 299 c 1
468 304 m 1
 462 305 456 306 450 306 c 0
 436 306 425 302 425 297 c 0
 425 295 428 294 430 292 c 1
 442 292 456 295 468 304 c 1
233 341 m 1
 220 340 209 327 197 322 c 1
 198 322 200 321 201 321 c 0
 209 321 236 331 236 338 c 0xa2548a
 236 339 235 340 233 341 c 1
495 352 m 1
 479 347 444 333 438 322 c 1xa25486
 440 322 451 321 454 321 c 0
 464 321 480 331 493 331 c 0
 498 331 503 330 507 326 c 1
 495 352 l 1
404 337 m 0
 404 334 410 325 414 325 c 0
 421 325 452 346 452 351 c 0
 452 352 451 353 449 353 c 0
 435 353 404 347 404 337 c 0
90 451 m 1
 90 356 l 1
 189 400 l 1
 189 404 l 1
 158 404 l 1
 153 391 131 394 119 391 c 1
 119 392 118 394 118 395 c 0
 118 401 173 416 180 417 c 1
 180 426 l 1
 175 426 l 1
 167 442 l 1
 167 425 112 426 112 393 c 1
 108 393 103 391 99 391 c 0
 96 391 93 393 93 400 c 0
 93 415 139 438 154 442 c 1
 149 446 147 447 144 447 c 0
 142 447 140 446 138 446 c 2
 138 446 107 451 93 456 c 1
 90 451 l 1
452 393 m 1
 452 371 406 370 399 356 c 1
 430 356 459 368 490 369 c 1
 488 385 425 424 425 433 c 1
 413 441 404 443 390 443 c 0
 388 443 383 442 382 442 c 2
 292 395 l 2
 293 395 297 393 298 393 c 0
 313 408 376 419 413 419 c 1
 413 412 l 2
 413 408 367 388 339 378 c 1
 340 378 347 377 347 377 c 1
 381 377 411 400 446 400 c 1
 449 399 451 394 452 393 c 1
365 369 m 1
 370 366 373 365 378 365 c 0
 387 365 411 380 411 382 c 1
 410 383 408 383 406 383 c 0
 394 383 375 371 365 369 c 1
283 380 m 0
 276 380 264 377 264 368 c 1
 273 368 281 371 289 376 c 1
 288 376 284 380 283 380 c 0
347 401 m 0
 332 401 309 390 297 382 c 1
 300 382 304 381 309 381 c 0
 325 381 347 384 356 400 c 1
 355 400 349 401 347 401 c 0
322 460 m 0xa25386
 299 460 246 458 231 434 c 1
 253 434 271 447 294 447 c 1
 294 447 305 445 314 442 c 1
 356 456 l 1
 345 460 335 460 322 460 c 0xa25386
EndSplineSet
Validated: 37
EndChar

StartChar: parenleft
Encoding: 40 40 22
Width: 289
Flags: MW
HStem: -165 228<116 184> -48 111<116 182> 3 60<116 124> 3 165<110.5 124> 445 20G<100 105 105 143> 458 20G<108 120.5> 483 20G<113 119> 720 20G<154.5 172.5>
VStem: 51 36<284 288>
LayerCount: 2
Fore
SplineSet
51 250 m 2x8b80
 51 297 l 2
 51 408 86 611 126 707 c 0
 127 709 127 711 127 713 c 0
 127 719 125 724 125 728 c 0
 125 739 149 740 160 740 c 0
 185 740 206 731 229 731 c 0
 244 731 243 737 256 737 c 0
 264 737 277 733 277 722 c 0
 277 711 256 699 251 689 c 0
 225 642 224 586 195 542 c 1
 192 496 173 480 173 432 c 0
 173 382 161 336 161 289 c 0
 161 195 178 95 199 4 c 0
 205 -21 249 -129 263 -143 c 1
 262 -147 260 -153 255 -156 c 1
 223 -156 199 -165 169 -165 c 0
 147 -165 120 -143 113 -121 c 2
 65 29 l 2
 55 60 51 179 51 250 c 2x8b80
142 -113 m 1
 142 -121 162 -144 168 -144 c 1
 168 -144 169 -144 204 -104 c 1
 184 -105 162 -113 142 -113 c 1
216 -117 m 1
 190 -138 l 2
 191 -138 196 -139 196 -139 c 1
 210 -139 209 -132 227 -132 c 1
 227 -127 221 -120 216 -117 c 1
134 -95 m 1
 138 -100 l 1
 195 -91 196 -90 196 -89 c 0
 191 -78 192 -69 182 -69 c 0
 181 -69 178 -69 178 -70 c 2
 134 -95 l 1
108 -22 m 1
 114 -43 121 -82 130 -82 c 1
 137 -81 182 -48 182 -48 c 1x4b80
 165 -48 147 -52 130 -52 c 1
 130 -30 l 1
 169 8 l 2
 168 8 162 9 160 9 c 0
 144 9 134 3 114 3 c 0x2b80
 107 3 99 4 99 10 c 0
 99 27 154 45 164 60 c 1
 164 60 161 60 160 60 c 1
 163 60 101 50 87 47 c 1
 87 28 92 -5 105 -18 c 1
 108 -22 l 1
173 -13 m 1
 158 -15 144 -29 134 -39 c 1
 135 -39 140 -40 141 -40 c 0
 151 -40 178 -37 178 -27 c 0
 178 -24 174 -15 173 -13 c 1
163 38 m 1
 146 38 126 24 117 12 c 1
 126 12 169 21 169 26 c 0
 169 29 165 39 163 38 c 1
69 154 m 1
 69 154 77 64 82 64 c 0
 87 64 149 107 152 112 c 1
 131 112 111 108 90 108 c 1
 90 109 91 110 91 111 c 0
 91 113 86 114 86 116 c 1
 86 116 91 130 130 150 c 0
 131 151 134 153 134 154 c 1
 69 154 l 1
160 95 m 1
 141 87 105 72 105 64 c 1
 106 64 115 63 117 63 c 0
 133 63 161 67 161 86 c 0
 161 87 160 93 160 95 c 1
144 137 m 0
 131 137 116 130 108 120 c 1
 127 120 134 122 152 128 c 1
 152 137 148 137 144 137 c 0
147 194 m 1
 130 194 95 178 82 168 c 1
 147 168 l 1x1b80
 147 194 l 1
70 215 m 1
 70 176 l 1
 95 185 119 197 138 215 c 1
 70 215 l 1
70 258 m 1
 70 224 l 1
 74 232 l 1
 88 243 134 273 134 276 c 1
 107 276 97 274 70 267 c 1
 74 262 l 1
 70 258 l 1
138 253 m 1
 126 253 l 2
 123 253 96 232 91 227 c 1
 96 227 l 2
 105 227 138 232 138 232 c 1
 138 253 l 1
130 310 m 1
 126 310 l 1
 120 308 87 294 87 288 c 2
 87 284 l 1
 92 284 127 287 130 288 c 1
 130 310 l 1
82 335 m 1
 75 333 74 319 74 308 c 2
 74 297 l 1
 126 327 l 1
 111 330 84 328 82 335 c 1
130 370 m 0
 120 370 95 354 95 343 c 1
 100 343 l 2
 121 343 134 343 134 367 c 0
 134 369 133 370 130 370 c 0
140 405 m 1
 133 405 l 2
 105 405 78 405 78 374 c 0
 78 364 79 360 79 349 c 1
 89 362 140 388 140 405 c 1
140 439 m 1
 134 439 l 1
 134 438 96 417 96 413 c 1
 108 413 l 2
 124 413 140 415 140 439 c 1
143 465 m 1
 105 465 l 2
 95 465 95 438 95 434 c 1
 111 434 142 448 143 465 c 1
152 508 m 1
 137 506 109 494 108 478 c 1x8780
 133 478 151 481 152 508 c 1
156 530 m 1
 152 530 l 2
 147 530 114 526 113 525 c 1
 113 503 l 1
 125 503 148 519 156 530 c 1
121 542 m 1
 126 538 l 1
 149 542 171 536 178 564 c 1
 158 559 141 548 121 542 c 1
117 573 m 1
 113 569 113 563 113 557 c 2
 113 547 l 1
 118 556 182 574 182 582 c 2
 182 586 l 1
 176 586 l 2
 153 586 121 586 121 568 c 1
 117 573 l 1
130 633 m 1
 126 619 117 584 117 585 c 0
 140 613 189 626 204 637 c 1
 204 642 l 1
 179 642 154 640 130 633 c 1
156 601 m 1
 195 599 l 2
 198 599 201 610 201 616 c 1
 183 616 171 610 156 601 c 1
216 681 m 1
 193 674 167 661 147 650 c 1
 151 650 159 649 169 649 c 0
 190 649 217 653 217 676 c 0
 217 677 216 680 216 681 c 1
182 698 m 1
 176 698 171 691 164 689 c 0
 144 682 134 682 134 655 c 1
 156 664 188 674 204 693 c 1
 182 693 l 1
 182 698 l 1
175 719 m 0
 168 719 152 717 152 707 c 1
 186 715 l 2
 183 715 178 719 175 719 c 0
EndSplineSet
Validated: 37
EndChar

StartChar: percent
Encoding: 37 37 23
Width: 835
Flags: MW
HStem: -73 42<204.5 245> -29 21G<235 237> -26 22<682.5 698.5 682.5 717> -26 65 -26 82<639.5 677> 0 21G 39 155<241 388 293 388> 53 64<267 282> 124 70<310 314> 181 95<302 419.5> 228 48<328 419.5> 228 69<380 388> 260 81 296 45<142 180.5> 349 26<484 496> 349 48<147 196> 405 35 426 39 441 20G<258 258 258 293> 454 20G<553 561.5> 458 20G<107 107 107 107.5> 458 232<96.5 280.5> 468 20G<306.5 310> 471 20G<96 103> 606 84<198.5 215> 642 20G<660.5 664> 644 20G<192 203> 647 20G<555.5 588.5> 647 43 653 20G<581 583> 668 22 674 20G<570.5 578>
VStem: 30 108<490 494 463 504 463 510.5> 242 95<460.5 541.5> 435 103 471 84 508 30<128 171 171 172 172 190> 508 99<157 169.5 146.5 172 146.5 192> 508 223<15 172 15 192> 716 90<130.5 188.5>
LayerCount: 2
Fore
SplineSet
147 -28 m 1xa626a212e1
 165 20 200 61 229 103 c 0
 257 145 281 200 302 245 c 1
 322 262 367 310 367 332 c 0
 367 335 367 339 362 341 c 1
 366 347 374 347 380 353 c 1
 388 366 435 415 435 431 c 0
 435 433 432 435 431 435 c 1
 439 436 488 508 496 525 c 0
 516 566 547 618 552 668 c 1xc58aa212e1
 554 667 555 667 556 667 c 0
 570 667 565 694 576 694 c 0xa626a211e1
 580 694 590 689 599 689 c 0
 602 689 606 689 611 690 c 1
 689 681 l 2
 690 681 694 678 694 677 c 0
 690 669 687 658 683 650 c 0
 596 464 503 266 362 112 c 1
 357 103 337 61 331 52 c 1
 320 30 252 -73 238 -73 c 0
 221 -73 147 -48 147 -28 c 1xa626a212e1
237 -29 m 1
 237 -43 l 1
 249 -34 268 -12 268 5 c 1
 259 5 255 0 246 0 c 0
 237 0 233 0 229 4 c 1
 224 4 220 0 212 0 c 0
 208 0 203 0 203 4 c 1
 206 9 l 1
 223 25 265 11 284 26 c 1
 274 27 249 27 241 39 c 1
 293 39 l 1xc6268400e1
 302 52 l 1
 298 52 283 53 281 53 c 0
 244 53 181 32 181 -15 c 0
 181 -28 197 -31 212 -31 c 0
 223 -31 233 -29 237 -29 c 1
509 125 m 1
 509 130 508 153 508 157 c 2
 508 172 l 2
 508 212 508 256 535 289 c 1
 583 319 637 341 698 341 c 1xa60a8400c9
 698 326 717 331 724 323 c 2
 776 271 l 1
 776 269 785 248 785 236 c 0
 785 232 782 230 780 228 c 1
 793 221 806 194 806 183 c 0
 806 163 799 141 797 120 c 0
 787 39 765 -26 669 -26 c 0x91a68400e1
 578 -26 549 4 526 61 c 0
 517 81 518 104 509 125 c 1
646 0 m 1
 657 -2 683 -4 682 -4 c 1
 715 -4 734 16 754 39 c 1
 739 39 720 32 707 26 c 1
 731 26 l 1xa6268400c2
 731 4 661 2 646 0 c 1
683 22 m 0
 678 22 655 21 655 17 c 2
 655 13 l 1
 689 17 l 1
 694 21 l 1
 692 21 685 22 683 22 c 0
582 30 m 1
 584 29 593 19 595 17 c 1
 615 26 638 22 646 30 c 1
 642 35 l 1
 626 35 l 2
 611 35 598 34 582 30 c 1
728 47 m 1
 710 46 690 35 669 35 c 1
 686 33 l 2
 694 33 724 42 724 43 c 2
 728 47 l 1
569 43 m 0
 569 42 572 39 573 39 c 0xa6268400e1
 581 39 598 45 612 45 c 1
 612 51 609 56 601 56 c 1x88a68400e1
 601 55 577 47 569 43 c 0
239 73 m 2
 229 56 l 1x88a68400d1
 229 56 234 55 235 55 c 0
 244 55 293 65 297 69 c 1
 278 69 240 73 239 73 c 2
555 62 m 0
 555 57 561 55 564 55 c 0
 573 55 589 61 595 69 c 1
 578 69 l 1
 578 73 l 1
 574 73 555 71 555 62 c 0
607 161 m 0x888a8400c5
 607 132 619 56 660 56 c 0
 694 56 716 116 716 145 c 0
 716 164 713 188 711 207 c 0
 710 222 694 222 694 242 c 1
 655 259 l 2
 653 260 650 260 648 260 c 0
 620 260 607 178 607 161 c 0x888a8400c5
768 79 m 1
 765 79 741 69 733 65 c 1
 733 65 737 64 741 64 c 0
 751 64 768 66 768 79 c 1
293 82 m 1
 298 82 310 88 316 88 c 2
 316 88 322 88 322 87 c 0
 322 86 321 83 314 73 c 1
 293 82 l 1
587 87 m 0
 579 87 568 85 564 78 c 1
 595 82 l 1
 593 87 590 87 587 87 c 0
267 108 m 0
 259 108 252 95 250 91 c 1
 251 91 256 91 256 91 c 2
 264 91 306 94 306 99 c 0
 306 105 274 108 267 108 c 0
547 99 m 1
 547 90 l 1
 556 90 573 90 578 99 c 1
 547 99 l 1
780 117 m 1xa5a68400e1
 765 117 734 102 728 91 c 1
 746 97 780 89 780 117 c 1xa5a68400e1
297 117 m 1
 297 115 302 112 304 112 c 0
 311 112 347 118 347 130 c 1
 333 130 321 124 307 124 c 0
 306 124 303 128 302 129 c 1
 294 129 272 120 267 117 c 1
 297 117 l 1
578 129 m 1
 565 126 548 118 547 117 c 1
 582 117 l 1
 578 129 l 1
737 125 m 1
 737 117 l 1
 750 120 l 1
 748 126 744 126 741 126 c 0
 740 126 737 125 737 125 c 1
561 146 m 0
 554 146 538 144 538 143 c 2
 538 128 l 1
 547 128 568 139 573 143 c 1
 571 144 562 146 561 146 c 0
308 151 m 0
 304 151 274 145 274 137 c 0
 274 136 275 135 276 134 c 1
 285 136 324 136 324 145 c 1
 324 145 314 151 308 151 c 0
776 156 m 1
 769 156 737 148 737 143 c 2
 737 138 l 1
 749 140 772 149 772 149 c 1
 772 146 770 143 767 143 c 2
 776 143 l 1
 776 156 l 1
561 160 m 2
 553 160 542 158 538 151 c 1
 546 153 558 155 564 160 c 1
 561 160 l 2
345 160 m 1
 347 158 355 155 357 155 c 0
 364 155 375 159 375 169 c 1
 345 160 l 1
756 177 m 0
 744 177 735 177 735 164 c 0
 735 162 736 156 737 155 c 1
 776 172 l 1
 768 174 757 177 756 177 c 0
375 181 m 1xa5468400e1
 302 181 l 2
 298 181 292 167 289 160 c 1
 375 181 l 1xa5468400e1
538 190 m 1
 538 171 l 1
 551 171 562 175 573 181 c 1
 568 189 558 190 548 190 c 2
 538 190 l 1
392 198 m 1
 392 186 l 1
 399 192 436 238 436 251 c 0
 436 252 436 253 435 254 c 1
 411 249 386 247 362 242 c 1
 382 239 418 241 418 229 c 0
 418 209 310 201 310 198 c 2
 310 194 l 1
 388 194 l 1xa6268400e1
 392 198 l 1
737 190 m 1
 740 187 744 186 748 186 c 0
 756 186 764 189 773 190 c 1
 773 194 772 201 767 202 c 1
 758 197 747 193 737 190 c 1
538 202 m 1
 542 197 551 197 558 197 c 0
 567 197 577 198 582 198 c 1
 590 216 l 1
 573 214 554 212 538 202 c 1
737 216 m 1
 737 202 l 1
 763 216 l 1
 737 216 l 1
328 228 m 1
 314 211 l 1
 336 211 365 219 388 228 c 1
 328 228 l 1
547 237 m 1
 547 220 l 1
 551 220 578 229 590 229 c 1
 590 233 l 1
 561 233 l 1
 559 237 555 237 551 237 c 2
 547 237 l 1
724 242 m 1
 724 224 752 224 760 224 c 1
 760 230 760 251 751 251 c 0
 750 251 733 248 724 242 c 1
564 250 m 1
 590 242 l 1
 594 242 600 251 600 255 c 1
 588 255 575 252 564 250 c 1
707 259 m 1
 707 257 713 251 715 250 c 1
 720 250 743 261 745 263 c 1
 742 263 718 262 707 259 c 1
362 271 m 0
 354 271 348 260 345 254 c 1
 354 254 l 1
 364 256 412 261 422 263 c 1
 366 271 l 1
 366 271 363 271 362 271 c 0
582 273 m 0
 570 273 546 269 546 258 c 1
 562 258 583 260 599 268 c 1
 595 271 l 1
 595 271 586 273 582 273 c 0
366 280 m 1
 372 279 399 276 405 276 c 0xa5468400e1
 434 276 471 279 471 303 c 0
 471 304 470 305 470 306 c 1
 466 304 447 298 444 297 c 1xa6128400d1
 435 297 372 286 371 285 c 2
 366 280 l 1
727 285 m 0
 714 285 706 282 694 276 c 1
 741 276 l 1
 738 285 734 285 727 285 c 0
30 490 m 2
 30 504 l 2
 30 517 31 529 39 543 c 0
 83 622 135 690 235 690 c 0
 326 690 337 551 337 492 c 0
 337 429 317 376 267 336 c 1
 194 297 l 2xa612a280e1
 193 297 182 296 179 296 c 0
 142 296 117 310 85 331 c 0
 38 361 30 439 30 490 c 2
401 332 m 1
 397 327 383 308 380 297 c 1
 404 297 446 305 465 319 c 1
 465 331 414 332 401 332 c 1
647 309 m 1
 638 309 590 295 582 287 c 1
 600 288 655 292 655 292 c 1
 659 305 l 1
 647 309 l 1
694 302 m 1
 689 297 l 1xa6128400e1
 693 297 698 296 703 296 c 0xa6268400e1
 709 296 714 297 715 302 c 1
 712 309 688 315 683 315 c 0
 681 315 677 312 677 310 c 1
 681 310 691 308 694 302 c 1
250 362 m 1
 206 353 l 2
 202 352 202 339 202 336 c 0
 202 335 203 329 203 327 c 1
 210 332 250 349 250 362 c 1
479 336 m 1
 479 334 478 333 478 331 c 0
 478 330 479 329 483 327 c 1
 479 327 l 1
 488 328 494 343 496 349 c 1
 472 349 446 347 422 341 c 1xa60a4280e1
 443 338 472 336 479 336 c 1
99 358 m 1
 103 351 120 340 127 340 c 1
 128 339 140 347 147 349 c 1
 142 341 l 1
 152 341 164 343 173 349 c 1
 169 358 147 359 133 359 c 0
 124 359 110 358 99 358 c 1
444 393 m 1
 445 394 426 368 413 353 c 1
 431 353 464 360 483 362 c 1
 435 371 l 1
 435 375 l 1
 509 375 l 1
 516 387 544 444 549 444 c 0
 550 444 520 441 512 440 c 1xa626a280e1
 520 440 530 436 530 426 c 0
 530 422 473 401 444 393 c 1
173 371 m 1
 173 366 176 366 182 366 c 0
 184 366 215 370 215 371 c 2
 215 375 l 1
 173 371 l 1
72 395 m 1
 72 376 88 374 105 374 c 2
 109 374 l 2
 125 374 141 374 151 384 c 1
 143 386 134 405 127 405 c 0
 110 405 97 397 95 379 c 1
 83 387 92 395 72 395 c 1
272 384 m 0
 286 384 290 396 293 409 c 1
 281 409 224 402 220 388 c 1
 267 388 261 384 272 384 c 0
138 469 m 0
 138 457 148 453 151 444 c 0
 155 433 159 397 181 397 c 0xa6254280e1
 211 397 241 473 241 498 c 0
 241 502 231 509 231 512 c 0
 231 521 242 523 242 532 c 0
 242 551 231 606 199 606 c 0
 198 606 193 591 181 591 c 1
 153 547 138 519 138 469 c 0
500 426 m 1
 465 426 465 427 465 427 c 2
 464 427 458 417 453 405 c 1xa6268400e1
 463 405 500 423 500 426 c 1
125 423 m 1
 95 409 l 2
 96 409 99 409 99 409 c 1
 102 412 125 408 125 423 c 1
258 423 m 2
 254 423 l 2
 245 423 236 419 236 409 c 1
 236 409 240 409 241 409 c 0
 246 411 267 417 272 418 c 1
 267 422 262 423 258 423 c 2
58 431 m 1
 58 423 59 413 69 413 c 1
 69 414 101 424 116 431 c 1
 58 431 l 1
255 435 m 1
 270 433 288 431 304 431 c 1
 304 436 297 439 293 440 c 1xa6268400e1
 297 441 307 442 310 449 c 1
 310 449 290 446 255 435 c 1
104 458 m 0
 89 458 73 452 60 444 c 1
 63 444 75 443 77 443 c 0
 100 443 97 449 103 449 c 0
 106 449 105 443 113 443 c 1
 113 450 111 458 104 458 c 0
258 461 m 1xa626a280e1
 257 457 256 454 256 448 c 1
 272 455 270 453 293 461 c 1
 258 461 l 1xa626a280e1
500 487 m 1
 499 486 487 459 474 449 c 1
 516 449 550 460 552 461 c 1
 546 469 517 477 500 487 c 1
56 478 m 0xa6268880e1
 56 471 58 465 66 465 c 0xa6264280e1
 74 465 107 466 107 478 c 1
 56 483 l 1
 56 483 56 479 56 478 c 0xa6268880e1
509 496 m 1
 517 481 545 474 561 474 c 0xa6269080e1
 562 474 564 475 564 475 c 1
 590 525 l 1
 586 524 565 515 561 513 c 0
 545 508 515 512 509 496 c 1
310 488 m 1xa626a280e1
 303 488 292 481 284 478 c 1
 310 478 l 1xa6268880e1
 310 488 l 1xa626a280e1
65 496 m 1
 76 493 90 491 102 491 c 0xa626a108e1
 104 491 107 492 107 492 c 1
 116 517 l 1
 105 509 72 509 65 496 c 1
69 543 m 1
 61 536 60 522 60 508 c 1
 78 521 103 522 107 530 c 1
 94 533 81 538 69 543 c 1
306 536 m 1
 293 536 268 529 268 512 c 1
 289 512 288 529 306 529 c 1
 306 536 l 1
297 517 m 0
 296 517 289 514 289 513 c 1
 302 513 l 1
 302 514 298 517 297 517 c 0
530 539 m 1
 521 513 l 1
 552 525 l 1
 552 525 553 527 553 528 c 0
 553 533 533 538 530 539 c 1
151 574 m 1
 151 574 110 550 103 548 c 1
 109 548 116 540 121 540 c 0
 125 540 151 570 151 574 c 1
538 556 m 1
 538 548 l 1
 551 550 611 567 611 569 c 1
 592 579 564 582 564 595 c 0
 564 600 566 606 573 607 c 1
 646 629 l 1
 651 633 l 1
 631 640 599 647 578 647 c 0
 569 647 562 597 538 556 c 1
103 566 m 1
 86 565 79 567 74 551 c 1
 79 551 103 560 103 560 c 1
 103 566 l 1
300 574 m 0
 295 573 263 566 263 560 c 2
 263 556 l 1
 293 556 l 1
 289 560 l 1
 302 560 l 1
 302 555 l 1
 306 555 308 557 310 560 c 1
 308 564 302 574 300 574 c 0
578 595 m 1
 592 584 598 582 611 582 c 0
 628 582 637 598 642 612 c 1
 641 612 636 613 636 613 c 2
 635 613 595 601 578 595 c 1
121 612 m 1
 112 605 104 596 99 586 c 1
 147 599 l 2
 145 599 119 599 119 608 c 0
 119 609 120 610 121 612 c 1
289 607 m 1
 284 607 259 595 258 595 c 2
 298 595 l 1
 298 599 290 605 289 607 c 1
255 619 m 1
 255 611 l 1
 255 611 269 617 276 621 c 1
 271 622 236 624 236 636 c 0
 236 638 246 647 250 651 c 1
 241 651 l 2
 232 651 210 643 210 633 c 0
 210 632 211 630 211 629 c 2
 224 638 l 1
 222 634 222 631 222 629 c 0
 222 620 230 618 238 618 c 0
 244 618 251 619 255 619 c 1
203 664 m 1xa626a222e1
 181 664 133 647 133 629 c 1
 154 634 157 645 168 651 c 0
 178 657 201 650 203 664 c 1xa626a222e1
276 643 m 1
 272 643 264 643 263 638 c 1
 276 638 l 1
 276 643 l 1
611 651 m 1
 617 650 641 647 646 647 c 0xa626a208e1
 655 647 664 651 664 662 c 1
 657 662 646 664 642 668 c 1
 590 668 l 1xa626a242e1
 589 669 584 673 582 673 c 0xa626a205e1
 580 673 578 669 578 668 c 0
 580 658 612 663 612 654 c 0
 612 653 612 652 611 651 c 1
EndSplineSet
Validated: 37
EndChar

StartChar: numbersign
Encoding: 35 35 24
Width: 716
Flags: MW
HStem: -53 35 -32 34<104.5 156> -32 70<104.5 167> -32 229<116.5 122.5> -23 21G<340.5 348> -22 21G<159.5 161 352 352> -10 21G<108 112.5> -9 21G 186 71 186 76<503 505.5> 292 22<128 157> 292 57 331 64 377 54 417 82<270 343> 441 20G<383 389> 445 20G<434 441 434 434 614 614> 454 20G<367 375.5> 457 20G<317.5 330> 460 39 462 20G<511 523 523 530> 471 20G<140 142.5 378 399 399 410> 473 26 475 20G 522 22 632 46 639 20G<403 408.5> 673 20G<423 446>
VStem: 54 246<-33.5 24> 554 30 585 68<225 280.5>
LayerCount: 2
Fore
SplineSet
270 -31 m 1x816484ce
 263 -27 261 -20 261 -14 c 1
 273 22 288 29 296 46 c 0
 318 91 329 137 356 180 c 1
 352 185 l 1
 347 184 329 180 326 180 c 0
 311 179 253 180 253 171 c 1
 243 137 240 96 227 63 c 1
 202 26 192 -28 180 -40 c 1
 154 -37 133 -32 112 -32 c 0
 97 -32 83 -34 67 -40 c 1
 60 -40 54 -38 54 -29 c 0
 54 19 98 94 114 141 c 0
 117 148 128 165 128 174 c 0
 128 179 120 181 108 181 c 0
 97 181 82 179 68 179 c 0
 49 179 32 182 28 193 c 1
 32 241 69 307 95 308 c 1
 102 308 l 2
 106 308 128 308 128 314 c 1
 183 314 l 2
 186 314 202 366 209 378 c 1
 154 383 l 2
 151 383 134 382 122 382 c 0
 104 382 101 382 101 392 c 0
 101 398 127 441 136 486 c 1
 140 491 l 1x20a904ce
 145 491 193 495 270 499 c 1
 274 503 l 1
 279 536 299 562 313 598 c 0
 325 629 329 664 347 693 c 1
 369 689 378 688 397 688 c 0
 413 688 428 693 445 693 c 0x81aa00be
 447 693 453 687 455 684 c 1
 420 626 424 548 378 491 c 1
 399 491 l 2
 421 491 445 490 468 486 c 1
 504 545 529 611 537 680 c 1
 545 685 552 685 561 685 c 0
 583 685 594 678 621 678 c 1
 640 658 l 1
 621 626 584 550 584 508 c 0
 584 492 618 480 684 465 c 1
 684 434 669 431 666 404 c 0
 666 403 670 395 670 392 c 0
 670 379 614 377 577 377 c 0
 561 377 548 378 545 378 c 1
 545 357 542 333 533 314 c 1
 593 299 653 292 653 269 c 0
 653 241 617 250 597 180 c 1
 597 180 586 179 582 179 c 0
 551 179 530 186 506 186 c 0
 495 186 483 184 468 180 c 1
 462 170 442 126 437 115 c 1
 437 65 397 19 382 -31 c 0
 382 -32 383 -33 383 -34 c 0
 383 -43 364 -53 359 -53 c 0
 335 -53 295 -34 270 -31 c 1x816484ce
295 -9 m 1x81aa00ce
 303 -9 334 -23 347 -23 c 0x08aa00ce
 349 -23 351 -23 352 -22 c 2x04aa00ce
 369 12 l 1
 369 12 365 12 364 12 c 0
 350 12 295 -1 295 -9 c 1x81aa00ce
161 -22 m 1x04aa00ce
 158 -5 l 1
 149 -8 127 -8 123 -18 c 1
 153 -18 l 1x81aa00ce
 154 -20 158 -22 161 -22 c 1x04aa00ce
89 -5 m 1x04aa00ce
 92 -6 106 -10 110 -10 c 0x82aa00ce
 115 -10 133 3 142 3 c 0
 145 3 147 2 149 2 c 0x40aa00ce
 163 2 177 7 201 68 c 0
 211 93 215 176 244 176 c 1
 244 176 240 177 239 177 c 0
 225 177 220 161 209 154 c 0
 197 147 155 140 145 124 c 1
 162 127 173 133 188 133 c 0
 190 133 194 130 201 128 c 1
 191 101 142 87 123 77 c 1
 166 77 l 2
 169 77 180 68 180 66 c 0
 180 53 117 48 110 34 c 1
 133 37 143 38 164 38 c 0x20aa00ce
 170 38 175 37 175 31 c 1
 167 25 139 22 140 21 c 1
 139 23 138 24 137 24 c 0
 133 24 127 20 126 20 c 1
 126 22 131 29 131 29 c 1
 125 29 110 25 107 25 c 0
 105 25 103 25 102 29 c 1
 92 21 89 15 89 4 c 1
 100 12 105 12 119 12 c 1x81aa00ce
 108 10 96 4 89 -5 c 1x04aa00ce
390 63 m 1
 352 58 300 40 300 8 c 1
 313 12 382 52 390 63 c 1
373 37 m 1
 330 16 l 1
 350 16 370 19 378 37 c 1
 373 37 l 1
131 64 m 0
 118 64 110 61 106 46 c 1
 145 63 l 1
 143 64 134 64 131 64 c 0
338 60 m 1
 334 55 l 1
 390 72 l 2
 403 76 403 81 408 98 c 1
 338 60 l 1
404 112 m 1
 338 86 l 1
 338 83 329 68 329 62 c 1
 344 62 395 104 408 112 c 1
 404 112 l 1
131 112 m 1
 131 105 127 96 127 93 c 1
 136 93 172 116 171 115 c 1
 166 115 156 112 131 112 c 1
427 159 m 1
 409 155 347 138 347 103 c 1
 371 126 402 141 427 159 c 1
420 141 m 1
 406 136 380 122 373 112 c 1
 391 115 414 122 420 141 c 1
224 199 m 1
 160 179 l 1
 155 179 151 161 151 157 c 1
 164 161 224 195 224 199 c 1
503 249 m 1
 399 202 l 2
 379 193 371 170 364 150 c 1
 409 168 493 237 503 249 c 1
63 208 m 0
 63 202 114 197 119 197 c 0x102a00ce
 136 197 216 233 218 249 c 1
 200 244 183 246 166 244 c 1
 140 233 107 211 75 211 c 1
 80 216 92 237 106 248 c 1
 112 248 156 283 166 288 c 1
 157 292 l 1
 98 292 l 2
 93 292 63 219 63 208 c 0
265 202 m 1
 267 201 276 197 279 197 c 0
 314 197 309 213 338 223 c 1
 369 247 371 253 404 279 c 1
 401 279 317 254 300 232 c 1
 308 232 l 1
 308 216 275 216 265 202 c 1
507 206 m 1
 515 203 528 199 533 199 c 0
 562 199 585 206 585 244 c 1
 572 241 513 218 507 206 c 1
455 253 m 1
 451 253 l 2
 438 253 345 211 338 202 c 1
 378 202 l 1
 403 227 424 233 455 253 c 1
257 253 m 0
 257 240 185 216 175 211 c 1
 175 205 l 1
 221 221 283 221 287 253 c 1
 303 260 325 272 338 284 c 1
 337 284 328 285 326 285 c 0
 315 285 307 285 300 275 c 1
 296 283 296 288 296 297 c 0
 296 312 322 381 338 387 c 1
 337 389 328 392 326 392 c 1
 326 390 306 369 300 369 c 1
 296 374 l 1
 278 359 241 360 231 340 c 1
 251 340 269 349 290 349 c 0x815410ce
 296 349 300 345 300 337 c 0
 300 323 232 302 221 302 c 1
 221 302 212 299 205 292 c 1
 205 292 208 292 209 292 c 1
 208 292 245 299 257 301 c 1
 260 298 266 291 266 290 c 0
 241 275 212 264 183 258 c 1
 185 258 194 257 197 257 c 0x81aa00ce
 213 257 229 262 245 262 c 0x816a00ce
 252 262 257 261 257 253 c 0
576 288 m 1
 569 285 569 276 563 270 c 1
 535 250 483 211 472 211 c 1
 473 211 476 210 477 210 c 0
 493 210 522 228 533 237 c 1
 533 235 533 227 528 227 c 1
 541 227 553 249 567 253 c 0
 572 255 596 265 602 266 c 1
 606 275 l 1
 594 276 584 280 576 288 c 1
429 285 m 1
 395 253 l 2
 395 252 398 250 399 250 c 0
 404 250 417 256 451 266 c 1
 460 262 l 1
 467 270 493 284 506 284 c 0
 510 284 512 282 512 279 c 0
 512 275 509 270 503 262 c 1
 508 262 554 274 554 285 c 0
 554 295 487 295 468 305 c 1
 465 305 462 306 460 306 c 0
 444 306 442 294 429 285 c 1
138 250 m 1
 148 250 161 251 166 259 c 1
 166 263 161 269 159 269 c 0
 155 267 141 256 138 250 c 1
175 275 m 1
 177 270 180 270 183 270 c 0
 189 270 192 271 197 275 c 1
 195 279 192 279 188 279 c 0
 182 279 180 278 175 275 c 1
377 305 m 1
 377 304 378 302 378 301 c 2
 373 292 l 2
 379 301 388 309 399 310 c 1
 406 328 421 357 421 377 c 1
 396 377 373 383 349 383 c 0
 344 383 333 331 321 305 c 1
 377 305 l 1
489 331 m 1x81aa00ce
 478 331 l 2
 464 331 433 331 433 311 c 0
 433 310 434 306 434 305 c 1
 449 313 478 316 489 331 c 1x81aa00ce
222 331 m 1
 220 327 212 319 212 313 c 0
 212 312 212 311 213 310 c 1
 218 310 l 1
 270 331 l 1
 249 331 243 326 231 326 c 0
 227 326 224 326 222 331 c 1
498 318 m 1
 477 310 l 2
 478 310 482 309 483 309 c 0
 486 309 499 310 499 315 c 0
 499 316 499 317 498 318 c 1
511 378 m 1
 496 361 476 354 460 340 c 1
 461 340 467 339 468 339 c 0
 486 339 495 343 515 348 c 1
 519 364 529 397 533 400 c 1
 533 400 530 400 526 400 c 0
 516 400 498 398 498 390 c 0
 498 387 501 383 511 378 c 1
464 394 m 0
 464 391 436 358 436 348 c 0
 436 345 436 343 437 343 c 0
 451 343 486 369 486 377 c 0x81a410ce
 486 380 472 380 472 383 c 0
 472 388 495 396 507 417 c 1
 442 417 l 1
 437 421 l 1
 486 443 l 1
 489 451 l 1
 447 439 356 404 356 404 c 1
 373 395 l 1
 460 405 l 2
 462 405 464 397 464 394 c 0
296 387 m 1
 276 387 l 1
 247 386 230 384 222 352 c 1
 237 352 255 367 270 374 c 0
 273 376 292 384 296 387 c 1
188 426 m 1
 157 404 l 1
 161 397 181 395 186 395 c 0
 203 395 276 406 283 421 c 1
 275 419 235 413 233 413 c 0
 230 413 224 414 223 414 c 1
 223 433 318 465 330 477 c 1x81a820ce
 305 477 235 452 205 435 c 1
 201 438 190 441 190 443 c 0
 190 447 259 466 259 473 c 0x81a902ce
 259 474 257 475 254 475 c 0x81a901ce
 244 475 194 474 183 473 c 0x81a902ce
 164 472 163 474 157 460 c 0x81a810ce
 148 438 144 434 144 417 c 0x81aa00ce
 144 416 145 409 145 409 c 1
 153 416 164 431 176 431 c 0
 180 431 184 430 188 426 c 1
550 400 m 1
 555 400 569 395 580 395 c 0
 599 395 644 395 644 426 c 1
 629 413 553 414 550 400 c 1
338 434 m 0
 334 417 288 411 265 400 c 1
 282 400 l 2
 300 400 309 401 321 413 c 0
 326 418 390 461 388 461 c 0x81a902ce
 378 461 334 447 334 443 c 0
 334 442 338 436 338 434 c 0
343 417 m 1x81aa00ce
 343 413 l 1
 347 413 l 2
 348 413 459 451 463 460 c 1x81a810ce
 458 464 449 465 441 465 c 2
 434 465 l 1x81a882ce
 369 434 l 2
 368 434 367 435 366 435 c 0
 363 435 364 424 343 417 c 1x81aa00ce
563 439 m 1x81aa00ce
 541 417 l 1x81aa00ce
 644 439 l 1
 645 438 646 438 647 438 c 0
 652 438 658 447 658 447 c 1
 658 456 646 460 640 460 c 0x81a810ce
 611 460 592 435 563 435 c 1
 563 439 l 1x81aa00ce
374 474 m 0x81a841ce
 360 474 298 447 261 430 c 1
 289 430 313 447 338 456 c 1
 382 469 l 1
 380 473 377 474 374 474 c 0x81a841ce
498 434 m 1
 503 434 531 431 537 430 c 0
 538 430 541 430 541 430 c 1
 556 445 590 460 614 460 c 1x81a810ce
 614 465 l 1
 603 467 590 469 580 473 c 1x81a882ce
 498 434 l 1
550 503 m 1
 542 501 518 493 511 482 c 1
 523 482 l 2x81a908ce
 537 482 551 483 551 499 c 0
 551 500 550 503 550 503 c 1
354 517 m 1
 339 516 311 494 304 495 c 1
 352 495 l 1x81a901ce
 354 517 l 1
528 522 m 0
 513 522 503 510 503 495 c 1
 513 505 527 516 541 521 c 1
 539 521 530 522 528 522 c 0
346 533 m 1
 341 533 l 2
 327 533 302 524 302 518 c 0
 302 517 303 513 303 512 c 1
 318 519 342 526 346 533 c 1
576 568 m 1
 561 555 537 555 524 538 c 1
 541 538 576 540 576 568 c 1
399 583 m 1
 376 580 343 562 330 544 c 1
 373 544 l 2
 383 544 393 576 399 583 c 1
356 590 m 1
 341 590 321 582 321 559 c 1
 335 566 351 573 360 585 c 1
 356 590 l 1
545 576 m 0
 538 576 536 573 536 568 c 0
 536 567 537 564 537 564 c 1
 554 572 l 1
 553 574 547 576 545 576 c 0
591 620 m 1
 577 620 548 590 541 581 c 1
 547 585 561 590 567 590 c 0
 569 590 578 585 580 585 c 1
 587 592 590 610 591 620 c 1
405 632 m 1
 377 632 371 610 347 602 c 1
 352 602 l 2
 373 602 404 604 405 632 c 1
554 667 m 1
 548 650 546 621 545 607 c 1
 576 628 l 1
 571 630 571 634 571 637 c 0
 571 649 610 645 618 658 c 1
 598 663 554 667 554 667 c 1
378 637 m 1
 352 637 l 2
 347 637 346 622 346 614 c 1
 354 614 372 633 378 637 c 1
408 672 m 1
 393 661 367 665 356 649 c 1
 386 649 l 1
 390 646 l 1
 394 656 399 659 407 659 c 0
 410 659 415 659 420 658 c 1
 423 663 426 667 426 673 c 1x81aa00be
 420 673 412 672 408 667 c 1
 408 672 l 1
EndSplineSet
Validated: 37
EndChar

StartChar: thorn
Encoding: 254 254 25
Width: 592
Flags: MW
HStem: -36 116<283.5 313.5 268 330.5> -27 21G -22 102<197.5 313.5> -19 21G<172 172 169 185> -14 21G<129 129 141 142 272.5 282.5 327 327> -10 21G<262 262 306.5 309> -5 21G -2 21G<329.5 337> -1 21G<327 327.5> 78 72 78 88 360 27<305 323> 360 216 434 43<382.5 387> 448 20G<197 199> 466 20G<106 108> 474 20G<106 108> 646 20G<141.5 142> 647 20G<126.5 136> 702 25<154 171.5>
VStem: 53 24<602 616.5> 53 117 69 26<10.5 63.5> 103 118 160 29<-246.5 -185.5> 160 46 194 27 410 20 542 26
LayerCount: 2
Fore
SplineSet
63 -86 m 0x201438b8
 63 -47 69 -9 69 30 c 0
 69 97 63 162 63 230 c 0
 63 320 51 399 51 474 c 0x8012b2b8
 51 520 53 564 53 608 c 0
 53 650 42 712 42 717 c 0
 42 727 52 727 64 727 c 2
 180 727 l 2
 215 727 221 593 221 545 c 0
 221 522 220 499 219 477 c 1x80143918
 224 475 224 473 224 468 c 0x8012b918
 224 463 223 460 219 456 c 1
 236 466 282 477 302 477 c 0
 479 477 528 376 568 206 c 1
 567 152 511 32 460 4 c 0
 390 -34 359 -36 302 -36 c 0x80143918
 265 -36 240 -22 206 -22 c 0x20143858
 189 -22 186 -166 185 -186 c 0
 185 -195 189 -217 189 -221 c 0
 189 -272 116 -260 86 -264 c 1
 63 -264 63 -127 63 -86 c 0x201438b8
94 -206 m 2
 94 -216 l 2
 94 -226 95 -239 103 -243 c 1x80143918
 133 -236 152 -243 154 -229 c 0
 155 -222 160 -201 160 -189 c 0
 160 -182 158 -178 155 -178 c 0
 138 -178 111 -187 95 -191 c 1
 95 -193 94 -203 94 -206 c 2
82 -224 m 0
 79 -224 78 -226 78 -228 c 0
 78 -230 79 -232 82 -232 c 0
 84 -232 85 -230 85 -228 c 0
 85 -226 84 -224 82 -224 c 0
77 -200 m 0
 74 -200 73 -202 73 -204 c 0
 73 -206 74 -208 77 -208 c 0
 79 -208 80 -206 80 -204 c 0
 80 -202 79 -200 77 -200 c 0
172 -182 m 0
 171 -182 170 -184 170 -187 c 0x80143438
 170 -189 171 -191 172 -191 c 0
 173 -190 173 -188 173 -187 c 0
 173 -185 173 -183 172 -182 c 0
90 -130 m 0
 90 -131 90 -135 90 -135 c 2
 90 -141 94 -171 95 -178 c 1
 107 -169 128 -156 137 -144 c 1
 137 -142 130 -139 129 -139 c 0
 128 -139 117 -144 116 -144 c 0
 108 -144 107 -141 107 -136 c 0
 107 -112 127 -108 142 -92 c 1
 136 -94 109 -99 103 -100 c 0
 102 -101 101 -101 99 -101 c 0
 97 -101 95 -101 95 -100 c 1x80143318
 93 -109 90 -129 90 -130 c 0
164 -146 m 1
 152 -146 131 -160 124 -169 c 1
 141 -169 164 -167 164 -146 c 1
168 -96 m 1
 163 -98 115 -121 115 -132 c 0
 115 -133 115 -134 116 -135 c 1
 129 -128 162 -128 168 -128 c 1
 168 -96 l 1
176 -122 m 0
 174 -122 173 -124 173 -126 c 0
 173 -128 174 -130 176 -130 c 0
 178 -130 179 -128 179 -126 c 0
 179 -124 178 -122 176 -122 c 0
176 -45 m 1
 151 -45 124 -70 107 -87 c 1
 126 -87 149 -77 168 -70 c 1
 172 -63 175 -52 176 -45 c 1
89 -72 m 0
 89 -75 89 -83 95 -83 c 0
 97 -83 150 -48 163 -31 c 1
 154 -31 l 1
 142 -38 89 -49 89 -72 c 0
77 -36 m 0x80143918
 74 -36 73 -38 73 -41 c 0
 73 -43 74 -45 77 -45 c 0
 79 -45 80 -43 80 -41 c 0
 80 -38 79 -36 77 -36 c 0x80143918
129 -19 m 1x10543918
 107 -40 l 1
 172 -19 l 2
 176 -17 177 -13 177 -9 c 0
 177 -1 175 2 172 2 c 0x10543918
 166 2 155 -9 142 -14 c 0x08543918
 140 -14 139 -14 139 -13 c 0
 139 -9 172 7 172 13 c 0
 172 15 170 16 165 16 c 0x42543918
 152 16 143 3 125 3 c 0
 121 3 116 3 116 7 c 0
 116 26 186 55 202 77 c 1
 201 77 195 78 194 78 c 0x083438b8
 177 78 167 70 150 59 c 1
 146 63 l 1
 137 52 120 51 107 46 c 1
 106 47 103 54 103 54 c 1x08343918
 103 96 177 106 194 132 c 1
 185 132 l 1
 95 106 l 1
 95 -37 l 1
 103 -37 119 -17 129 -14 c 1x085432b8
 129 -19 l 1x10543918
184 -19 m 0
 182 -19 181 -21 181 -23 c 0
 181 -25 182 -27 184 -27 c 0x42543918
 186 -27 188 -25 188 -23 c 0
 188 -21 186 -19 184 -19 c 0
327 -14 m 1x08543918
 323 -19 l 1x10543918
 346 -8 368 -11 392 -5 c 0x42543918
 401 -3 403 18 413 25 c 0
 413 26 413 27 411 27 c 0
 407 27 390 18 327 -14 c 1x08543918
262 -10 m 1x04543918
 266 -14 270 -14 275 -14 c 0x08543918
 290 -14 332 8 340 33 c 1
 311 21 262 -10 262 -10 c 1x04543918
308 -10 m 0
 305 -10 304 -12 304 -15 c 0
 304 -17 305 -19 308 -19 c 0x10543918
 310 -19 311 -17 311 -15 c 0
 311 -12 310 -10 308 -10 c 0
188 10 m 1
 188 8 216 -6 219 -6 c 0
 220 -6 223 -5 224 -5 c 0x42543918
 249 15 276 31 302 51 c 1
 272 51 217 25 188 10 c 1
310 42 m 1
 297 34 258 10 245 -5 c 1
 319 33 l 1
 316 38 315 42 310 42 c 1
401 80 m 1x80143918
 399 70 377 62 370 46 c 0
 367 41 342 11 327 -1 c 1x40d43918
 328 -1 329 -2 330 -2 c 0x41543918
 344 -2 369 24 377 24 c 0
 381 24 472 64 478 77 c 1
 469 85 l 1
 473 87 475 91 475 95 c 1
 449 95 428 80 401 80 c 1x80143918
232 77 m 0
 219 77 153 29 146 21 c 1
 164 21 178 37 189 37 c 1
 217 48 244 35 267 59 c 1
 258 66 244 77 232 77 c 0
469 54 m 1
 463 54 447 38 434 25 c 1
 439 25 l 1
 474 51 l 1
 469 54 l 1
349 68 m 1
 343 66 331 58 327 54 c 1
 329 50 331 49 334 49 c 0
 339 49 346 56 349 68 c 1
492 94 m 1
 492 82 481 64 478 59 c 1
 487 66 500 81 500 94 c 1
 492 94 l 1
198 120 m 1
 168 105 138 89 116 63 c 1
 120 63 l 2
 126 63 211 89 211 102 c 1
 211 102 209 120 198 120 c 1
418 132 m 1
 361 77 l 1
 370 77 l 2
 392 77 445 120 482 145 c 1
 459 145 440 132 418 132 c 1
215 191 m 0
 215 144 240 80 296 80 c 0
 331 80 350 99 379 128 c 0
 406 155 410 206 410 238 c 0
 410 257 395 274 395 293 c 0
 395 296 395 298 396 301 c 1
 396 345 362 339 323 360 c 1
 254 360 206 302 206 249 c 0x80143858
 206 219 215 216 215 191 c 0
530 162 m 1
 520 150 503 153 495 145 c 0
 475 125 453 107 426 94 c 1
 427 93 429 93 429 93 c 1
 429 95 480 108 495 111 c 0
 499 112 501 112 504 112 c 0
 508 112 510 111 512 111 c 0
 513 111 542 162 542 176 c 0
 542 206 538 230 538 236 c 1
 526 236 483 198 478 184 c 1
 467 170 451 163 439 150 c 1x085432b8
 463 150 488 166 512 166 c 0x08343918
 518 166 524 165 530 162 c 1
159 162 m 0
 141 150 107 124 107 124 c 1
 116 124 l 1
 194 145 l 1
 194 156 194 165 189 176 c 1
 184 176 160 162 159 162 c 0
185 193 m 1
 180 189 178 188 177 188 c 0
 176 188 176 190 174 190 c 0
 173 190 153 180 142 176 c 0
 106 161 88 169 88 127 c 1
 102 127 178 184 185 193 c 1
430 150 m 0
 428 150 427 148 427 145 c 0
 427 143 428 141 430 141 c 0
 432 141 433 143 433 145 c 0
 433 148 432 150 430 150 c 0
521 240 m 1
 462 218 430 222 430 165 c 1
 463 184 496 214 521 240 c 1
189 244 m 1
 158 232 125 203 107 176 c 1
 129 176 187 200 187 221 c 0
 187 224 186 227 186 230 c 0
 186 235 187 240 189 244 c 1
95 219 m 1
 95 180 l 1
 104 186 117 208 124 214 c 0
 132 220 165 233 165 245 c 1
 157 245 104 227 103 227 c 2x80143318
 95 219 l 1
439 232 m 1
 439 227 l 1
 521 253 l 2
 524 254 525 257 525 260 c 0
 525 279 524 286 517 305 c 1
 512 305 504 305 500 301 c 2
 439 232 l 1
103 244 m 1
 98 240 l 1
 118 240 186 253 186 284 c 0
 186 285 185 291 185 292 c 2
 103 244 l 1
137 340 m 1
 123 338 96 329 90 326 c 1
 90 244 l 1
 107 271 151 270 168 296 c 1
 145 296 121 276 95 276 c 1
 95 292 l 1
 125 321 126 321 127 321 c 0
 137 321 154 341 163 343 c 1
 146 349 l 1
 140 349 137 344 137 340 c 1
172 253 m 0
 170 253 169 251 169 248 c 0
 169 246 170 244 172 244 c 0
 174 244 175 246 175 248 c 0
 175 251 174 253 172 253 c 0
430 275 m 0
 430 269 431 264 434 258 c 1
 454 264 483 282 486 305 c 1
 474 297 430 293 430 275 c 0
383 438 m 2
 382 438 254 383 202 357 c 0
 167 340 131 311 107 287 c 1
 121 287 140 294 154 301 c 0
 156 303 187 311 198 318 c 0
 201 320 225 345 228 348 c 0
 257 370 286 387 324 387 c 0
 327 387 330 386 331 386 c 0
 346 407 378 434 387 434 c 1
 383 438 l 2
413 328 m 0
 413 318 418 318 418 305 c 1
 423 311 470 339 470 343 c 1
 461 340 413 343 413 328 c 0
501 339 m 1
 484 335 459 320 448 305 c 1
 465 314 488 310 495 331 c 1
 495 329 499 326 501 326 c 1
 501 339 l 1
297 442 m 1
 241 417 l 2
 230 411 194 369 159 369 c 1
 159 368 118 354 107 343 c 1
 130 349 162 365 185 365 c 0
 186 365 189 362 189 360 c 1x800838b8
 189 373 219 376 228 383 c 0
 253 400 250 403 276 426 c 0
 281 430 297 432 297 442 c 1
185 447 m 1
 163 441 96 416 81 395 c 1
 82 383 85 352 86 352 c 2
 90 348 l 1
 104 360 107 353 120 368 c 1
 121 402 160 414 185 447 c 1
422 357 m 1
 422 347 l 1
 442 347 466 353 482 365 c 1
 477 377 467 398 465 400 c 1
 465 400 412 353 413 352 c 1
 422 357 l 1
361 374 m 1
 365 368 385 357 390 357 c 0
 413 357 429 397 452 397 c 1
 452 409 l 1
 432 397 391 389 391 386 c 0
 391 385 391 384 392 383 c 1
 361 374 l 1
411 434 m 0x801438b8
 397 434 352 400 352 391 c 2
 352 386 l 1
 383 392 410 409 439 417 c 1
 434 424 420 434 411 434 c 0x801438b8
168 395 m 0
 165 395 164 393 164 390 c 0
 164 388 165 386 168 386 c 0
 170 386 171 388 171 390 c 0
 171 393 170 395 168 395 c 0
189 426 m 1
 173 419 154 406 142 395 c 1
 158 395 172 412 189 412 c 1
 189 426 l 1
314 441 m 1
 304 421 280 416 267 400 c 1
 267 400 270 399 271 399 c 0
 292 399 326 431 340 431 c 1
 340 441 l 1
 314 441 l 1
276 452 m 1
 273 452 262 447 211 421 c 1
 226 421 276 430 276 452 c 1
77 430 m 1
 101 433 111 449 133 473 c 0
 143 484 162 492 172 503 c 1
 138 495 111 472 77 464 c 1
 77 430 l 1
189 499 m 1
 175 498 120 444 120 434 c 0
 120 433 121 432 122 432 c 0
 123 432 124 432 125 433 c 0
 158 445 189 458 189 499 c 1
319 452 m 1
 327 450 337 447 346 447 c 0
 354 447 363 450 370 456 c 1
 323 456 l 1
 319 452 l 1
198 477 m 0
 196 477 195 475 195 472 c 0
 195 470 196 468 198 468 c 0x8012b918
 200 468 201 470 201 472 c 0
 201 475 200 477 198 477 c 0
81 590 m 1
 77 544 77 531 77 486 c 1x80113918
 101 494 124 530 146 550 c 1
 127 541 116 537 98 537 c 0
 94 537 85 537 85 544 c 1
 101 570 149 600 172 616 c 1
 172 620 l 1
 141 620 112 593 81 590 c 1
107 494 m 0x8012b918
 105 494 104 492 104 490 c 0
 104 488 105 486 107 486 c 0x80113918
 109 486 111 488 111 490 c 0
 111 492 109 494 107 494 c 0x8012b918
180 564 m 1
 161 545 137 522 120 499 c 1
 146 505 184 517 189 525 c 1
 190 537 190 546 190 555 c 0
 190 573 189 586 185 607 c 1
 160 594 128 576 112 555 c 1
 133 555 154 576 176 576 c 0x800832b8
 181 576 181 570 181 567 c 0
 181 566 180 564 180 564 c 1
202 529 m 0
 200 529 199 527 199 524 c 0
 199 522 200 520 202 520 c 0
 204 520 205 522 205 524 c 0
 205 527 204 529 202 529 c 0
62 585 m 0
 59 585 58 583 58 580 c 0
 58 578 59 576 62 576 c 0
 64 576 65 578 65 580 c 0
 65 583 64 585 62 585 c 0
69 684 m 0
 69 657 77 631 77 602 c 1
 142 666 l 2x80145918
 141 666 136 667 136 667 c 1
 117 667 105 649 87 649 c 0
 82 649 81 654 81 658 c 0
 81 669 119 696 129 701 c 1
 120 706 l 1
 72 706 l 2
 71 706 69 690 69 684 c 0
172 678 m 0
 172 661 120 629 107 611 c 1
 115 615 194 636 194 645 c 0
 194 659 178 702 165 702 c 0
 143 702 129 686 112 671 c 1
 112 671 165 689 166 690 c 0
 167 690 172 679 172 678 c 0
86 715 m 0
 86 716 84 716 81 716 c 0
 79 716 77 716 77 715 c 0x80143918
 78 713 80 713 82 713 c 0
 83 713 85 713 86 715 c 0
EndSplineSet
Validated: 33
EndChar

StartChar: t
Encoding: 116 116 26
Width: 375
Flags: MW
HStem: -18 43 -18 113<227 305 309.5 327> 387 115 441 20G<98 103.5> 449 20G<136 136 229.5 244> 462 20G<297 312> 463 20G<220 227> 465 20G<148 152.5> 471 20G<171.5 176> 474 28 476 20G<96 101> 480 20G<65 78.5 127 133.5 251 251> 484 20G<214 214 349 351> 522 42<131.5 159> 599 21
VStem: 27 28<420.5 454.5> 84 25<344.5 364> 98 26<577 596> 98 47 98 137 98 150<422 590.5 461 590.5 474 590.5 571 590.5 570 596> 219 42 233 28<60 95> 233 123 309 31<19 54>
LayerCount: 2
Fore
SplineSet
153 12 m 0xa0078480
 102 42 85 123 85 178 c 0
 85 206 89 234 89 262 c 0
 89 296 84 328 84 361 c 0
 84 367 85 372 85 378 c 1
 75 380 76 392 69 392 c 1
 61 386 45 375 33 375 c 0
 28 375 28 380 28 384 c 0
 28 393 29 402 37 409 c 1
 29 411 27 429 27 444 c 0
 27 465 28 473 28 491 c 1x90878480
 41 500 58 500 72 500 c 0x90178480
 85 500 91 496 101 496 c 1x90278480
 101 526 98 556 98 586 c 0
 98 606 101 616 140 616 c 0
 156 616 171 611 186 611 c 0
 191 611 198 620 205 620 c 0
 247 620 248 604 248 577 c 0
 248 563 253 547 253 530 c 0
 253 525 251 504 251 500 c 1x90170880
 349 504 l 2
 353 504 356 504 356 495 c 2
 356 401 l 2x920f81
 356 388 347 378 334 378 c 0
 325 378 295 387 283 387 c 0
 277 387 250 384 244 383 c 1
 236 365 235 353 235 337 c 0xa0071080
 235 256 257 179 261 98 c 1
 263 90 270 89 276 89 c 0
 294 89 302 95 317 95 c 0x60078480
 340 95 340 63 340 45 c 0
 340 34 340 -18 327 -18 c 2
 305 -18 l 2
 248 -18 202 -16 153 12 c 0xa0078480
253 8 m 1
 255 7 267 4 270 4 c 0
 297 4 309 4 309 34 c 1
 253 8 l 1
162 25 m 1
 227 25 l 1
 237 35 261 59 261 60 c 2
 261 64 l 1
 253 64 l 2
 244 64 170 35 162 25 c 1
313 68 m 1
 235 17 l 1xa0071080
 240 17 l 2
 255 17 313 46 313 68 c 1
145 60 m 0x60072280
 145 53 153 46 160 46 c 0
 172 46 233 81 233 95 c 1
 227 95 l 1
 150 64 l 2
 148 63 145 61 145 60 c 0x60072280
124 107 m 0xa0074480
 124 97 124 81 136 81 c 0
 143 81 210 128 214 133 c 1
 207 133 202 131 197 131 c 0
 188 131 124 117 124 107 c 0xa0074480
231 128 m 1
 207 120 183 102 167 81 c 1
 179 85 190 90 232 121 c 1
 232 123 232 125 231 128 c 1
179 156 m 1
 175 156 119 139 119 137 c 2
 119 124 l 1
 179 150 l 1
 179 156 l 1
223 159 m 1
 187 143 l 2
 188 143 192 141 193 141 c 1
 192 141 223 144 223 150 c 2
 223 159 l 1
214 215 m 1
 193 187 157 177 132 154 c 1
 162 154 191 180 219 180 c 1
 219 211 l 1
 214 215 l 1
193 216 m 1
 140 189 129 216 110 158 c 1
 139 173 165 192 193 211 c 1
 193 216 l 1
205 271 m 1
 205 297 l 1
 188 296 153 267 140 259 c 0
 124 249 114 239 114 219 c 0
 114 218 115 211 115 211 c 1
 184 250 l 1
 167 250 153 240 136 240 c 0
 135 240 129 241 127 241 c 1
 132 245 l 1
 205 271 l 1
209 250 m 1
 150 219 l 1
 168 219 184 233 203 233 c 0
 207 233 213 233 214 227 c 1
 214 229 215 236 215 236 c 2
 215 243 213 250 209 250 c 1
115 276 m 1
 119 275 120 270 120 266 c 0
 120 262 119 259 119 258 c 2
 136 276 l 1
 136 274 139 271 141 271 c 0
 142 271 148 274 150 276 c 0
 159 281 201 313 201 314 c 2
 145 293 l 1xa0072480
 133 293 120 284 115 276 c 1
201 352 m 1
 193 348 116 322 115 323 c 1
 115 297 l 1
 119 297 l 2
 131 297 202 340 202 349 c 0
 202 350 201 352 201 352 c 1
176 387 m 1
 140 370 109 391 109 346 c 0xa0078480
 109 342 109 337 110 331 c 1
 133 366 161 366 188 387 c 1
 176 387 l 1
210 384 m 1
 194 384 144 352 134 341 c 0
 134 340 135 339 137 339 c 0
 144 339 164 345 171 349 c 1
 176 365 210 358 210 384 c 1
68 401 m 1
 102 401 l 2
 105 401 110 387 110 387 c 1
 158 404 l 1
 173 426 223 421 240 448 c 1
 227 448 l 1
 127 422 l 1
 124 426 l 1
 122 419 118 417 114 417 c 0
 109 417 103 420 98 422 c 1xa0074480
 68 401 l 1
218 404 m 1
 219 404 223 405 227 405 c 0
 235 405 237 403 240 401 c 1
 267 401 297 409 326 409 c 1
 330 456 l 1
 299 449 230 427 218 404 c 1
50 413 m 1
 53 410 52 409 57 409 c 0
 69 409 126 461 127 469 c 1x88478480
 118 463 109 461 98 461 c 1
 98 474 l 1
 54 474 l 2x90474480
 53 474 50 459 50 452 c 0
 50 447 55 433 55 423 c 0
 55 418 54 415 50 413 c 1
220 483 m 1x920f8480
 200 461 157 458 136 434 c 1
 176 443 l 1
 179 448 l 1
 184 443 l 1
 200 456 244 454 244 469 c 1x88478480
 215 469 234 483 220 483 c 1x920f8480
262 454 m 1
 263 455 256 444 253 439 c 1
 325 478 l 1
 322 481 316 482 308 482 c 0x940f8480
 286 482 252 473 252 467 c 0
 252 465 260 458 262 454 c 1
136 469 m 1x880f8480
 136 450 l 1
 214 495 l 1
 214 504 l 1
 191 486 164 479 136 469 c 1x880f8480
224 526 m 1
 213 526 148 497 148 485 c 1x91078480
 157 485 167 491 176 491 c 1x90878480
 218 512 l 1
 218 514 224 521 224 526 c 1
176 521 m 1
 159 522 l 2
 146 522 123 520 123 508 c 1
 123 508 127 502 127 500 c 1x90174480
 140 500 168 508 176 521 c 1
136 533 m 1
 136 526 l 1
 162 526 183 542 207 542 c 0
 217 542 222 555 227 577 c 1
 188 577 170 533 136 533 c 1
124 577 m 1
 129 569 127 564 136 564 c 0
 155 564 173 581 193 581 c 1
 195 583 210 588 214 594 c 1
 208 593 202 593 197 593 c 0
 170 593 153 599 124 599 c 1
 124 577 l 1
EndSplineSet
Validated: 33
EndChar

StartChar: mu
Encoding: 181 181 27
Width: 633
Flags: MW
HStem: -264 21G<92 108.5> -235 215<94.5 226> -28 21G<250 263.5> -27 21G<184 189> -15 21G<497.5 504> -10 74 8 25 8 63 33 31<192.5 241.5> 64 26 64 81<121 206.5> 443 20G<163 168> 448 20G<69 69 98 124 98 98 396 396> 462 20G<478 486> 472 20G<120 124 124 153.5>
VStem: 60 29 82 25<-108 -22 -156 12> 121 74 159 36 192 32 392 26<141 176 205 236> 392 102<124 414 310 414 395 460> 478 30<206 212 206 232 206 232>
LayerCount: 2
Fore
SplineSet
69 -247 m 0xc4051a
 69 -244 68 -227 68 -223 c 0
 68 -178 82 -139 82 -77 c 0xc404ca
 82 101 72 216 60 426 c 1
 60 426 60 428 60 430 c 2
 69 468 l 1
 69 474 68 477 68 481 c 0
 68 491 98 492 120 492 c 2
 124 492 l 2
 183 492 195 491 195 403 c 0xc40b4a
 195 376 193 348 185 331 c 1
 187 281 192 220 206 171 c 1
 219 156 216 133 224 120 c 0
 239 95 279 85 306 85 c 0
 312 85 316 89 361 89 c 0
 376 89 392 111 392 124 c 2
 392 310 l 1
 387 327 383 352 383 371 c 0
 383 374 388 456 392 460 c 1
 396 468 l 1xc40b1a
 478 482 l 1xc4054a
 494 482 500 469 500 454 c 0
 500 437 494 422 494 406 c 0xc40544
 494 384 504 332 504 322 c 0
 504 310 508 218 508 206 c 0
 510 172 504 71 552 71 c 0xc9054a
 575 71 581 90 590 90 c 0
 600 90 604 87 604 77 c 0
 604 75 603 69 603 68 c 0
 587 24 570 -31 564 -31 c 1
 530 -19 l 1
 504 -15 l 1xca454a
 491 -15 478 -15 474 -14 c 0
 454 -12 443 8 424 8 c 0
 410 8 410 -9 401 -14 c 0
 366 -31 346 -36 305 -36 c 1
 295 -34 271 -28 256 -28 c 0xa1054a
 244 -28 232 -20 220 -20 c 1
 220 -74 224 -128 224 -182 c 1
 214 -192 217 -237 215 -247 c 0
 212 -258 116 -264 101 -264 c 0
 83 -264 75 -264 69 -247 c 0xc4051a
89 -214 m 0xc4054a
 89 -223 89 -235 100 -235 c 0
 118 -235 191 -192 194 -186 c 1
 167 -186 141 -201 116 -208 c 0
 114 -208 112 -203 111 -202 c 1
 111 -185 170 -159 180 -144 c 1
 176 -144 l 2
 175 -144 133 -159 116 -165 c 0
 97 -172 89 -196 89 -214 c 0xc4054a
137 -229 m 1
 137 -234 l 1
 189 -234 l 2
 193 -234 195 -215 195 -202 c 1
 177 -202 153 -223 137 -229 c 1
198 -152 m 1
 179 -159 158 -170 146 -186 c 1
 157 -186 184 -175 198 -174 c 1
 198 -152 l 1
107 -22 m 1x92249a
 107 -156 l 1
 111 -153 126 -138 129 -135 c 1
 129 -119 169 -111 185 -92 c 1
 180 -92 l 1
 176 -94 137 -108 133 -109 c 0
 130 -109 119 -107 117 -107 c 1
 117 -87 174 -71 189 -53 c 1
 165 -56 148 -73 123 -73 c 1
 123 -72 120 -66 120 -63 c 1
 134 -36 192 -28 192 8 c 1
 166 8 140 -17 107 -22 c 1x92249a
198 -103 m 1
 177 -103 154 -128 142 -144 c 1
 198 -122 l 1
 198 -103 l 1
194 -70 m 1
 181 -77 178 -79 178 -79 c 1
 188 -79 194 -79 194 -70 c 1
189 -27 m 1
 179 -27 147 -49 147 -53 c 1
 149 -53 189 -49 189 -27 c 1
232 4 m 1
 244 -4 257 -9 271 -10 c 1xc4054a
 284 -1 341 42 352 51 c 0
 353 51 357 54 357 54 c 1
 232 4 l 1
349 29 m 1
 339 16 306 -4 297 -10 c 1
 342 -10 388 1 404 51 c 1
 386 51 365 30 349 29 c 1
116 29 m 1
 112 29 112 24 112 21 c 0
 112 14 113 2 113 -1 c 1
 211 63 l 1
 211 63 207 64 206 64 c 0
 179 64 141 41 116 29 c 1
500 9 m 1
 500 4 l 1
 528 7 552 13 564 42 c 1
 536 42 498 20 469 12 c 1
 475 8 479 7 482 7 c 0
 487 7 491 9 500 9 c 1
250 68 m 1
 245 68 l 1
 208 47 166 24 154 12 c 1
 154 7 l 1
 161 12 219 33 237 33 c 0xc884ca
 246 33 288 57 288 59 c 1
 283 61 255 67 250 68 c 1
439 29 m 1
 440 28 445 25 447 25 c 0
 456 25 502 54 504 68 c 1
 481 58 449 43 439 29 c 1
517 55 m 0
 504 55 488 36 482 29 c 1
 500 29 520 43 538 46 c 1
 531 52 525 55 517 55 c 0
314 59 m 1
 271 33 l 1
 292 34 338 56 340 59 c 1
 314 59 l 1
418 42 m 0
 418 40 420 36 423 36 c 0
 459 47 475 76 486 89 c 1
 486 120 l 1
 464 111 435 95 422 77 c 1
 481 103 l 1
 481 87 449 78 439 72 c 0
 432 68 437 62 430 54 c 0
 425 49 418 54 418 42 c 0
98 124 m 1
 100 117 101 109 101 101 c 0
 101 94 100 86 100 79 c 0
 100 69 101 59 107 51 c 1
 112 54 131 68 135 70 c 1
 135 70 139 67 140 67 c 0
 149 67 190 99 198 115 c 1
 197 115 195 116 194 116 c 0
 187 116 182 111 176 111 c 1
 129 89 l 1
 121 89 l 1
 121 116 186 129 186 147 c 0
 186 148 185 149 185 150 c 2
 98 124 l 1
204 94 m 0
 192 94 142 64 133 51 c 1
 164 54 188 81 220 81 c 1
 220 88 210 94 204 94 c 0
469 128 m 1
 422 111 l 2
 414 108 406 89 404 85 c 1
 415 89 469 118 469 124 c 2
 469 128 l 1
478 171 m 1
 460 161 442 146 430 128 c 1
 469 139 478 145 478 171 c 1
469 184 m 1
 463 184 l 2
 458 184 418 182 418 176 c 2
 418 141 l 1
 439 159 449 161 469 184 c 1
176 180 m 1
 162 171 121 149 121 145 c 1xca254a
 150 145 180 161 180 162 c 0
 180 165 178 178 176 180 c 1
116 184 m 1
 103 179 102 171 102 161 c 0
 102 159 103 152 103 150 c 1
 168 193 l 2
 167 193 162 194 162 194 c 1
 146 194 131 186 116 180 c 1
 116 184 l 1
478 232 m 1
 461 225 446 200 435 197 c 1
 435 193 l 1
 435 193 478 200 478 202 c 2
 478 232 l 1
103 214 m 1
 103 197 l 1
 98 197 l 1
 115 207 138 211 150 227 c 1
 133 227 121 214 103 214 c 1
168 214 m 1
 142 202 l 2
 143 202 146 202 146 202 c 2
 152 202 168 209 168 214 c 1
465 249 m 1
 439 242 418 239 418 236 c 2
 418 205 l 1
 443 206 449 234 465 249 c 1
116 236 m 1
 116 232 l 1
 159 249 l 1
 159 262 l 1xc412aa
 148 262 120 238 116 236 c 1
154 279 m 1
 131 271 98 274 98 240 c 1
 111 258 140 260 154 279 c 1
478 296 m 1
 460 283 427 254 427 253 c 1
 449 253 474 264 478 266 c 1
 462 266 l 1
 462 274 468 276 478 276 c 1
 478 296 l 1
457 301 m 1
 454 297 429 287 414 284 c 1
 414 282 417 271 418 270 c 1
 430 276 457 285 457 301 c 1
133 313 m 0
 120 313 101 309 95 305 c 1
 95 275 l 1
 110 282 130 305 137 313 c 1
 137 313 134 313 133 313 c 0
155 316 m 0
 155 303 149 297 137 287 c 1
 159 292 l 1
 159 353 l 1
 147 353 131 335 124 326 c 1
 128 326 133 327 139 327 c 0
 147 327 155 325 155 316 c 0
442 340 m 1
 429 340 417 335 417 322 c 0
 417 321 417 315 418 313 c 1
 426 324 449 340 448 339 c 0
 447 339 442 340 442 340 c 1
474 339 m 1
 448 313 l 1
 469 313 476 318 478 339 c 1
 474 339 l 1
142 360 m 1
 122 349 91 357 91 328 c 1
 111 328 130 346 142 360 c 1
469 383 m 1
 422 348 424 348 424 348 c 1
 433 348 474 354 474 368 c 0
 474 369 470 381 469 383 c 1
408 393 m 1
 408 383 410 371 413 360 c 1
 422 365 l 1
 469 412 l 1
 441 412 433 393 408 393 c 1
88 383 m 0
 88 380 88 367 95 365 c 1
 97 367 112 371 112 374 c 1
 111 375 106 379 103 383 c 1
 103 387 147 403 154 412 c 1
 150 412 l 1
 90 391 l 2
 89 391 88 385 88 383 c 0
159 395 m 1
 146 391 134 380 124 369 c 1
 134 369 144 378 153 378 c 1
 153 378 159 375 159 374 c 1
 161 376 163 384 163 386 c 0
 163 388 161 394 159 395 c 1
85 422 m 2
 85 418 l 2
 85 414 85 409 90 409 c 1
 104 425 123 435 137 451 c 1
 120 451 125 434 107 434 c 1
 113 437 117 442 117 449 c 1
 106 449 85 433 85 422 c 2
168 463 m 1
 158 463 135 431 116 412 c 1
 163 426 l 1
 165 430 168 453 168 463 c 1
413 447 m 1
 413 424 l 1
 417 424 428 435 435 442 c 1
 413 447 l 1
474 444 m 1
 463 444 443 438 443 425 c 1
 458 425 474 425 474 444 c 1
98 468 m 1xc40b4a
 96 462 89 459 89 451 c 0
 89 450 90 448 90 447 c 1
 101 455 113 460 124 468 c 1
 98 468 l 1xc40b4a
EndSplineSet
Validated: 37
EndChar

StartChar: oe
Encoding: 339 339 28
Width: 903
Flags: MW
HStem: -31 21G -27 22 -27 34 3 72<287 312.5> 26 49 43 32 64 140 77 127 107 97 142 197<493 526> 159 45 186 116<633.5 660> 186 180<644.5 660> 280 22<594.5 664.5> 359 24<280 294.5> 359 45<283.5 287 283.5 310> 441 20G<310 313.5> 448 29 466 20G<260 302.5>
VStem: 25 61 25 138<154.5 219.5 154.5 241> 849 27<227 250 220 267 220 267 276 288.5>
LayerCount: 2
Fore
SplineSet
120 29 m 1x890654
 73 52 25 144 25 216 c 0
 25 223 30 226 30 232 c 0
 30 234 27 240 25 241 c 1
 77 366 l 1x500854
 86 376 102 411 116 422 c 0
 130 433 151 438 164 451 c 1
 196 466 240 486 280 486 c 0
 325 486 418 463 452 439 c 0
 465 429 475 412 487 404 c 1x5105b4
 506 420 511 442 529 456 c 1
 565 469 600 477 637 477 c 0
 674 477 719 472 754 460 c 0
 779 451 852 398 852 366 c 1
 858 366 l 1
 861 353 876 303 876 274 c 0
 876 270 875 267 875 262 c 0
 876 257 876 252 876 248 c 0
 876 192 819 180 767 180 c 0
 732 180 700 186 620 186 c 0
 604 186 559 185 555 185 c 1
 547 180 l 1
 588 142 578 127 629 90 c 1
 629 77 676 72 701 72 c 0
 726 72 741 72 767 81 c 0
 785 87 819 114 843 114 c 1
 843 102 849 95 849 81 c 0
 849 54 847 45 840 12 c 0
 834 -19 685 -27 649 -27 c 0x500854
 609 -27 555 -15 504 4 c 1
 484 6 486 26 467 26 c 0
 465 26 454 9 452 8 c 0
 401 -26 358 -18 306 -31 c 1
 293 -30 232 -24 220 -22 c 0
 208 -21 120 15 120 29 c 1x890654
202 8 m 1
 214 -2 269 -5 287 -5 c 0
 306 -5 445 0 445 43 c 1x450654
 398 43 332 3 293 3 c 0
 281 3 263 3 263 11 c 0
 263 14 273 24 275 25 c 2
 379 68 l 1
 374 68 l 1
 263 29 l 1
 250 29 209 19 202 8 c 1
741 38 m 1
 714 29 679 16 654 -1 c 1
 660 -8 665 -10 670 -10 c 0x910654
 679 -10 689 -3 702 2 c 1
 701 3 700 6 700 7 c 0x290654
 700 22 744 21 744 32 c 0
 744 34 742 37 741 38 c 1
590 8 m 1
 598 4 603 3 612 3 c 0
 622 3 660 28 685 46 c 1
 684 46 679 47 678 47 c 0
 668 47 599 21 590 8 c 1
823 38 m 1
 805 38 774 23 745 8 c 1
 754 8 764 7 775 7 c 0x220654
 797 7 817 11 823 38 c 1
331 38 m 2
 284 16 l 1
 284 16 288 16 289 16 c 0
 296 16 353 31 392 42 c 1
 397 38 l 1
 397 55 438 65 465 68 c 1
 467 77 492 73 500 77 c 1x510654
 514 82 555 104 555 107 c 1x508654
 522 107 463 80 403 59 c 1
 399 59 399 62 397 64 c 1
 376 64 355 37 336 37 c 0
 334 37 332 38 331 38 c 2
517 25 m 1
 517 21 540 16 552 16 c 1
 574 32 604 43 625 64 c 1x420654
 592 50 545 36 517 25 c 1
155 29 m 1
 157 24 168 21 172 21 c 1
 189 28 210 38 223 51 c 1
 223 51 221 52 220 52 c 0
 199 52 173 41 155 29 c 1
762 55 m 1
 725 55 700 49 672 21 c 1
 697 32 738 38 762 55 c 1
771 60 m 1
 773 58 774 56 774 54 c 0
 774 44 754 27 745 21 c 1
 773 23 823 54 823 72 c 1
 820 70 789 63 771 60 c 1
482 42 m 1
 504 21 l 1
 512 38 l 1
 578 77 l 1x510654
 548 77 515 54 487 46 c 1
 482 42 l 1
648 55 m 0
 632 55 602 40 590 25 c 1
 595 25 l 1
 646 46 l 2
 648 46 657 47 663 51 c 1
 658 55 654 55 648 55 c 0
272 52 m 1
 251 52 229 41 211 29 c 1
 220 29 272 37 272 52 c 1
120 51 m 1
 124 44 127 42 133 42 c 0
 136 42 156 52 164 60 c 1
 152 60 135 53 120 51 c 1
86 104 m 0
 86 88 105 64 116 55 c 1
 122 62 151 88 164 94 c 1
 146 94 130 87 111 87 c 1
 111 118 115 97 133 120 c 1
 123 120 86 118 86 104 c 0
611 77 m 0
 598 77 578 71 571 59 c 0
 571 58 572 57 575 57 c 0
 584 57 608 64 616 72 c 0
 616 73 612 77 611 77 c 0
392 133 m 1
 374 112 316 66 315 60 c 1
 322 60 405 90 424 99 c 1
 424 98 430 97 430 94 c 1
 526 142 l 1x50424c
 482 142 452 107 409 107 c 2
 402 107 l 1x508654
 402 110 400 113 400 115 c 0
 400 118 478 159 478 159 c 1
 465 159 l 1
 479 181 517 164 517 194 c 1
 490 188 472 173 448 159 c 1x502654
 452 154 l 1
 448 144 417 132 399 132 c 0
 396 132 394 132 392 133 c 1
573 99 m 0
 566 99 516 72 496 60 c 1
 500 60 l 1
 586 94 l 1
 581 98 578 99 573 99 c 0
181 116 m 1
 202 95 l 1
 207 76 242 75 264 75 c 0
 362 75 380 174 380 249 c 0
 380 326 377 336 322 357 c 1
 322 356 315 353 314 352 c 1
 314 352 311 353 310 353 c 1
 310 359 l 1
 225 359 204 335 172 262 c 0
 165 245 159 218 159 200 c 0
 159 190 163 176 163 162 c 0
 163 147 179 129 181 116 c 1
552 142 m 1
 516 126 477 105 444 86 c 1
 445 86 449 85 450 85 c 0
 476 85 554 126 555 125 c 1
 555 133 552 137 552 142 c 1
65 142 m 1
 77 124 l 1
 91 136 115 150 129 159 c 1x502654
 109 159 87 147 65 142 c 1
142 150 m 1x504254
 132 145 115 138 107 128 c 1
 142 137 l 1
 142 150 l 1x504254
526 168 m 1
 501 168 463 147 444 128 c 1
 452 128 l 1
 508 150 l 1
 517 150 528 154 534 159 c 1x502654
 533 161 527 167 526 168 c 1
409 232 m 1
 401 205 408 177 397 150 c 1
 413 150 510 195 521 211 c 1
 526 215 l 1
 487 204 449 180 409 180 c 1
 417 207 478 211 478 232 c 1
 560 279 l 2
 559 279 553 280 552 280 c 0
 543 280 534 275 526 275 c 0
 524 275 521 278 521 279 c 0
 527 284 532 290 534 296 c 1
 533 296 529 297 528 297 c 0
 519 297 463 268 456 258 c 1
 467 258 472 258 482 267 c 1
 482 266 483 265 483 264 c 0
 483 258 419 232 409 232 c 1
42 189 m 1
 61 189 48 158 66 158 c 1
 66 161 120 193 138 211 c 1
 91 197 l 1
 91 190 82 187 74 187 c 0
 66 187 60 190 60 194 c 0
 60 206 132 251 142 262 c 1
 124 256 47 244 47 218 c 0
 47 210 47 199 51 194 c 1
 42 189 l 1
99 163 m 1
 142 176 l 1
 142 194 l 1
 135 192 115 170 104 170 c 1
 99 163 l 1
627 280 m 0
 562 280 494 235 444 197 c 1
 448 197 l 1
 555 236 l 1
 562 235 636 279 633 279 c 0
 632 279 628 280 627 280 c 0
603 241 m 1
 586 241 554 215 547 206 c 1
 561 206 610 210 625 211 c 1
 641 236 669 244 685 267 c 1
 680 267 l 1
 603 241 l 1
793 245 m 1
 793 222 749 222 736 206 c 1
 738 206 756 204 777 204 c 0
 809 204 849 208 849 227 c 2
 849 267 l 1
 845 258 819 248 802 245 c 1
 800 246 800 248 800 249 c 0
 800 259 849 257 849 295 c 0
 849 301 849 304 844 310 c 1
 788 294 697 274 651 219 c 1
 697 244 739 262 788 279 c 1
 793 284 l 1
 794 283 797 275 797 271 c 0
 797 267 768 253 758 236 c 1
 758 236 767 236 776 241 c 1
 776 236 l 1
 793 245 l 1
138 236 m 1
 125 232 108 219 99 211 c 1
 107 211 138 222 138 223 c 2
 138 236 l 1
758 258 m 1
 752 256 725 244 719 241 c 0
 709 236 667 219 663 211 c 1
 666 211 677 210 678 210 c 0
 712 210 749 248 758 258 c 1
504 301 m 1
 413 267 l 1
 403 261 403 239 403 236 c 1
 425 257 477 276 508 301 c 1
 504 301 l 1
68 262 m 1
 68 256 l 1
 75 256 123 266 150 275 c 1
 157 284 168 312 168 314 c 1
 77 262 l 1
 68 262 l 1
129 310 m 1
 73 288 l 2
 65 284 60 273 60 267 c 1
 138 310 l 1
 129 310 l 1
659 279 m 1
 658 278 642 269 642 267 c 1
 672 275 l 1
 670 277 661 279 659 279 c 1
405 316 m 0
 405 314 407 291 409 279 c 1
 419 289 459 310 487 322 c 1
 469 322 449 311 430 305 c 0
 429 305 420 307 418 307 c 1
 418 314 l 1
 461 340 l 1
 455 340 405 334 405 316 c 0
529 326 m 1
 503 323 471 307 448 293 c 1
 448 293 451 292 452 292 c 0
 453 292 456 293 456 293 c 1
 464 293 530 314 529 318 c 1
 529 326 l 1
754 296 m 1
 754 289 l 1
 835 318 l 2
 842 320 844 328 844 327 c 1
 844 335 840 348 835 348 c 1
 803 327 793 316 754 296 c 1
590 352 m 1
 543 296 l 1
 579 296 615 302 652 302 c 0x501254
 677 302 699 296 724 296 c 1
 686 321 707 366 654 366 c 0x500854
 635 366 610 357 590 352 c 1
750 307 m 1
 750 301 l 1
 764 313 819 332 819 351 c 1
 818 352 741 329 741 318 c 0
 741 310 743 307 750 307 c 1
129 340 m 1
 109 340 84 329 77 305 c 1
 90 324 117 322 129 340 c 1
173 360 m 1
 173 347 124 324 120 318 c 1
 133 321 170 332 168 332 c 1
 173 332 176 331 176 322 c 1
 179 334 198 350 202 352 c 0
 212 360 235 393 241 396 c 0
 245 398 263 403 267 404 c 1
 269 401 271 400 273 400 c 0
 277 400 281 404 286 404 c 0x504154
 288 404 291 403 293 400 c 1
 329 412 350 432 388 439 c 1
 379 443 362 448 353 448 c 0
 324 448 284 422 261 416 c 1
 172 383 l 1
 172 381 129 364 120 352 c 1
 137 352 164 370 164 370 c 1
 166 368 174 359 173 360 c 1
582 389 m 1
 486 343 l 2
 486 342 492 339 494 339 c 0
 501 339 520 348 528 348 c 1
 528 348 539 348 543 340 c 1
 564 361 l 1
 618 387 681 368 724 422 c 1
 676 404 601 374 581 374 c 1
 573 378 l 1
 586 387 l 1
 582 389 l 1
727 346 m 0
 727 341 732 339 736 339 c 0
 751 339 781 368 784 368 c 1
 784 374 l 1
 774 368 727 357 727 346 c 0
420 358 m 0
 409 358 400 351 392 344 c 1
 397 343 l 2
 398 343 418 353 426 357 c 1
 425 357 421 358 420 358 c 0
793 357 m 0
 793 355 795 352 797 352 c 2
 832 366 l 1x500854
 825 380 818 400 799 400 c 0
 793 400 775 389 771 383 c 1x510654
 777 383 789 387 806 387 c 1
 808 386 814 381 814 378 c 1
 811 376 793 366 793 357 c 0
103 361 m 1
 103 357 l 1
 131 383 215 425 254 451 c 1
 253 451 248 452 248 452 c 1
 228 452 123 418 103 361 c 1
461 371 m 0
 459 371 458 359 456 357 c 1
 462 359 466 361 470 366 c 1
 469 366 462 371 461 371 c 0
717 372 m 1
 717 369 715 365 715 362 c 0
 715 360 716 358 719 357 c 1
 724 361 744 383 750 387 c 1
 758 395 785 394 785 409 c 1
 772 409 743 396 741 396 c 1
 745 409 l 1
 776 417 l 1
 773 427 770 431 763 431 c 0
 750 431 726 404 715 400 c 1
 725 400 729 403 735 403 c 1
 735 384 700 394 694 378 c 1
 700 371 703 370 705 370 c 0
 707 370 709 372 717 372 c 1
362 366 m 1
 364 360 367 360 371 360 c 0
 386 360 406 369 413 383 c 1x510654
 396 380 379 371 362 366 c 1
280 383 m 1x510654
 309 383 324 374 348 370 c 1
 355 370 382 400 397 413 c 1
 388 410 348 401 340 400 c 0
 326 398 289 400 280 383 c 1x510654
611 456 m 2
 611 456 608 456 607 456 c 0
 603 455 565 448 560 448 c 0
 527 443 540 434 521 409 c 0
 513 399 495 384 495 368 c 1
 496 368 499 369 500 370 c 0
 532 402 570 431 611 451 c 0
 612 452 616 455 616 456 c 1
 616 456 612 456 611 456 c 2
521 378 m 1
 526 374 l 1
 633 426 l 1
 640 440 681 447 698 451 c 1
 689 456 680 457 670 457 c 0
 644 457 625 439 595 426 c 1
 590 426 l 1
 552 404 l 1x510554
 545 389 527 389 521 378 c 1
461 396 m 1
 444 383 l 1x510654
 451 383 462 383 462 392 c 0
 462 393 462 395 461 396 c 1
430 417 m 1
 424 413 400 398 392 387 c 1
 407 391 437 398 452 409 c 1
 445 412 436 417 430 417 c 1
646 423 m 0
 639 423 623 417 618 410 c 1
 619 410 622 409 624 409 c 0
 633 409 646 415 651 422 c 1
 650 422 647 423 646 423 c 0
659 413 m 1
 659 409 l 1
 688 416 716 428 741 443 c 1
 738 444 727 448 724 448 c 0
 703 445 678 420 659 413 c 1
289 456 m 1
 270 447 241 443 241 417 c 1
 264 433 299 442 322 456 c 1
 322 460 316 461 311 461 c 0x5106b4
 309 461 297 461 297 460 c 2
 293 451 l 1
 289 456 l 1
407 435 m 2
 407 435 378 422 371 417 c 1
 377 417 409 420 413 430 c 1
 413 433 407 434 407 435 c 2
EndSplineSet
Validated: 33
EndChar

StartChar: three
Encoding: 51 51 29
Width: 528
Flags: MW
HStem: -22 34 25 94<79.5 238.5 194.5 284> 98 21<194.5 238.5 194.5 266> 462 20G<383 388 388 391> 475 20G<383 394.5> 547 26 547 65<369 404.5> 594 69<181 258.5> 635 20G<273 277> 653 20G<153.5 157>
VStem: 124 215<42 114.5> 314 25<482 492> 314 99 339 83<112 114.5 108.5 194> 339 109<482 529 508.5 516> 339 144<112 258 192 194>
LayerCount: 2
Fore
SplineSet
33 4 m 1xcd01
 33 8 30 29 30 34 c 0
 30 43 34 49 38 60 c 2
 64 137 l 1
 118 137 167 119 222 119 c 0
 255 119 339 122 339 171 c 0
 339 217 329 252 301 288 c 0
 265 335 124 300 124 339 c 2
 124 344 l 1xad20
 131 356 138 426 155 426 c 0
 164 426 172 416 190 416 c 0
 243 416 314 440 314 490 c 0xcd10
 314 524 257 566 254 568 c 0
 241 573 212 573 198 573 c 0
 172 573 158 573 129 564 c 0
 118 560 102 550 97 550 c 0
 95 550 83 550 83 555 c 2
 83 602 l 1
 81 602 71 605 68 607 c 1
 69 661 120 670 159 689 c 1
 240 682 386 690 435 568 c 0
 442 549 448 538 448 520 c 0xcd02
 448 492 420 400 405 370 c 1
 405 366 l 1
 430 343 483 278 483 238 c 0
 483 146 438 54 357 8 c 0
 323 -11 231 -22 196 -22 c 0
 145 -22 89 -4 38 4 c 1
 38 4 34 4 33 4 c 1xcd01
155 12 m 1
 159 8 l 1
 249 8 l 1
 249 48 368 66 409 120 c 1
 326 84 l 1
 256 47 219 19 155 12 c 1
56 21 m 1
 107 12 l 1
 130 12 176 26 189 46 c 1
 141 38 123 25 82 25 c 0xcd04
 77 25 72 27 72 31 c 0
 72 38 97 41 97 51 c 0
 97 62 151 71 167 77 c 1
 178 80 188 90 199 90 c 0
 203 90 205 87 206 86 c 1
 206 54 124 75 124 42 c 1
 149 60 185 53 211 64 c 0
 226 70 237 86 258 86 c 1
 245 72 l 1
 272 72 308 88 324 102 c 1
 321 99 273 98 266 98 c 2
 163 98 l 1
 130 87 51 60 51 38 c 0
 51 36 54 23 56 21 c 1
422 124 m 0
 422 93 339 65 318 51 c 0
 308 45 284 27 284 25 c 2
 280 12 l 1
 394 12 456 140 465 236 c 1
 453 285 419 326 396 340 c 1
 388 341 334 294 334 286 c 1
 359 286 379 304 405 304 c 1
 409 295 l 1
 344 275 l 1
 370 269 l 2
 370 270 360 256 360 251 c 0
 360 250 360 249 362 249 c 2
 426 271 l 1
 432 271 439 270 439 262 c 0
 439 251 387 221 370 197 c 1
 402 209 417 222 454 222 c 1
 454 194 420 197 413 174 c 1xcd08
 438 174 l 1
 438 174 439 171 439 169 c 0
 439 144 339 117 339 112 c 1xcd04
 344 112 l 1
 413 133 l 1xcd08
 421 133 422 129 422 124 c 0
64 86 m 1
 68 81 l 1
 133 103 l 1
 137 107 l 1
 121 114 103 118 85 120 c 1
 78 113 64 90 64 86 c 1
406 159 m 1
 398 159 357 148 357 133 c 1
 374 133 400 143 406 159 c 1
365 185 m 1
 365 163 l 1
 379 185 426 189 443 215 c 1
 413 215 394 191 365 185 c 1
357 236 m 1
 356 235 356 234 356 233 c 0
 356 228 359 220 362 219 c 1
 386 226 416 242 430 262 c 1
 401 255 357 240 357 236 c 1
306 318 m 1
 306 314 l 2
 306 313 317 304 322 301 c 1
 349 312 372 341 383 344 c 1
 381 349 378 349 374 349 c 0
 363 349 355 342 342 342 c 1
 373 362 401 405 409 434 c 1
 396 434 252 364 245 352 c 1
 280 352 326 392 362 392 c 0
 365 392 375 391 375 385 c 0
 375 367 308 351 300 333 c 1
 300 333 305 338 331 344 c 1
 331 335 l 1
 306 318 l 1
249 340 m 1
 249 335 l 1
 252 333 270 331 272 331 c 0
 277 331 280 332 284 340 c 1
 353 378 l 1
 249 340 l 1
391 439 m 1
 305 413 246 393 172 344 c 1
 206 344 l 1
 267 390 328 400 391 439 c 1
238 401 m 1
 203 401 158 397 149 351 c 1
 177 353 225 380 238 401 c 1
410 486 m 0
 410 479 336 438 322 430 c 1
 343 430 373 449 393 449 c 0
 399 449 405 447 409 443 c 1
 409 443 430 483 430 514 c 0
 430 517 411 576 398 576 c 0
 379 576 344 546 331 529 c 1
 351 538 384 547 401 547 c 0
 408 547 413 545 413 542 c 0xd288
 413 518 339 502 339 482 c 1xd520
 356 484 375 495 391 495 c 0
 398 495 410 495 410 486 c 0
388 482 m 2
 378 482 337 472 337 457 c 0
 337 455 337 453 339 451 c 1xd2a0
 353 463 375 475 391 482 c 1
 388 482 l 2
339 510 m 0
 339 507 342 505 344 503 c 1
 357 515 373 518 388 529 c 1
 387 529 384 530 383 530 c 0
 374 530 339 522 339 510 c 0
313 555 m 1
 315 551 316 546 318 546 c 0
 334 546 357 567 369 581 c 1
 313 555 l 1
377 612 m 0
 361 612 327 583 318 573 c 1xcd20
 341 578 390 600 388 599 c 1
 386 602 382 612 377 612 c 0
278 582 m 1
 287 582 291 576 299 576 c 1
 299 578 331 598 353 611 c 1
 344 611 l 2
 339 611 278 587 278 582 c 1
103 614 m 0
 103 607 110 590 111 585 c 1
 159 595 198 594 237 650 c 1
 129 599 127 598 126 598 c 0
 122 598 120 603 120 607 c 0
 120 615 189 663 189 663 c 1xcd20
 173 663 103 627 103 614 c 0
219 599 m 1
 222 597 240 594 247 594 c 0
 270 594 294 624 307 637 c 1
 281 624 241 620 219 599 c 1
337 638 m 1
 316 631 292 613 280 599 c 1
 284 599 l 1
 353 627 l 1
 354 629 354 630 354 632 c 0
 354 637 342 638 337 638 c 1
275 655 m 0xcaa0
 271 655 231 628 228 620 c 1
 232 620 l 1
 284 641 l 1
 282 655 279 655 275 655 c 0xcaa0
157 673 m 1xca60
 150 673 99 644 99 636 c 1
 100 634 101 634 104 634 c 0
 118 634 154 662 157 673 c 1xca60
208 663 m 0xcd20
 199 663 182 643 167 632 c 1
 172 632 l 1
 173 633 211 649 232 658 c 1
 224 661 218 663 208 663 c 0xcd20
EndSplineSet
Validated: 37
EndChar

StartChar: yen
Encoding: 165 165 30
Width: 692
Flags: MW
HStem: -66 151<232 414.5> 76 22 121 37<533.5 546> 132 26<413 417.5> 205 22<215.5 226.5> 205 48 219 104<274.5 408.5 383 408.5 386.5 490> 237 86 247 41 268 20<159 171> 268 55 268 162 314 34<375 460> 335 47<404 419 419 422.5> 417 57<197 228 219 267> 444 20G<239 240 445.5 447 447 516 543.5 549.5> 452 20G<152 160> 453 20G<460 468.5 548 562> 457 20G<499 520.5> 465 121 470 20G<202.5 215.5 465 465> 482 20G<485 488> 576 73<553 573 553 594 525 573> 638 20G<29.5 42.5>
VStem: 258 25 378 35
LayerCount: 2
Fore
SplineSet
266 -49 m 1xa90606c0
 258 -46 257 -42 257 -36 c 0
 257 -3 262 23 262 63 c 1
 233 67 198 69 166 69 c 0
 148 69 130 68 115 68 c 1
 107 76 l 1
 122 113 143 159 150 162 c 1
 188 161 206 156 232 156 c 0
 245 156 258 159 258 173 c 0
 258 205 249 205 223 205 c 0
 208 205 191 202 180 202 c 0
 169 202 107 202 107 212 c 0
 107 225 123 237 124 252 c 0
 124 257 129 288 135 288 c 1
 136 286 138 285 140 285 c 0
 144 285 150 288 156 288 c 0
 189 288 219 278 253 278 c 1
 245 302 210 334 200 351 c 2
 89 533 l 1
 81 537 65 581 63 581 c 0
 61 581 48 609 33 636 c 1
 25 636 24 640 24 645 c 0
 24 650 26 658 33 658 c 0x688911c0
 52 658 90 648 107 645 c 0
 120 643 137 647 150 636 c 0
 207 587 224 511 279 459 c 0
 314 426 317 396 339 365 c 1
 394 412 421 476 460 537 c 0
 468 550 499 566 499 584 c 2
 499 589 l 1
 529 645 l 1
 533 647 551 649 555 649 c 0
 591 649 634 647 667 628 c 1
 664 619 602 500 559 434 c 1
 525 398 514 357 477 335 c 0
 465 328 458 314 456 309 c 1
 568 292 l 1
 568 292 572 289 572 287 c 0
 570 263 569 205 551 205 c 0xa90606c0
 527 205 503 219 477 219 c 0
 455 219 436 215 413 215 c 1
 413 158 l 2
 413 157 431 154 439 153 c 1
 465 153 510 158 542 158 c 0
 582 158 582 137 582 114 c 0
 582 102 574 76 562 76 c 0
 540 76 518 81 495 81 c 1
 495 79 405 81 400 76 c 2x620606c0
 395 72 l 1
 421 -54 l 1
 421 -63 418 -66 411 -66 c 0
 367 -66 310 -59 266 -49 c 1xa90606c0
378 -45 m 0
 379 -45 385 -49 387 -49 c 0
 388 -49 391 -45 391 -45 c 1
 387 -5 l 2
 386 -2 380 2 377 2 c 0
 375 2 283 2 283 -21 c 0
 283 -36 341 -45 378 -45 c 0
374 39 m 0
 373 39 366 35 365 35 c 0
 362 35 302 15 296 9 c 2
 292 4 l 1
 304 4 378 18 378 28 c 0
 378 30 378 39 374 39 c 0
365 80 m 1
 355 71 343 69 332 69 c 0
 326 69 320 70 315 70 c 0
 300 70 290 67 290 45 c 1
 298 45 365 79 365 80 c 1
369 61 m 1
 357 61 332 59 326 46 c 1
 333 46 369 53 369 54 c 2
 369 61 l 1
202 89 m 1
 232 85 l 1
 246 85 l 2x990606c0
 260 85 280 85 292 89 c 0
 302 92 382 124 383 136 c 1
 359 123 265 105 202 89 c 1
417 132 m 0
 378 114 314 86 314 85 c 1x990606c0
 349 85 356 95 374 98 c 0x690606c0
 403 103 440 96 460 124 c 1
 448 126 438 133 425 133 c 1
 425 133 418 132 417 132 c 0
145 95 m 1
 145 90 158 89 157 89 c 1
 157 92 173 102 206 124 c 1
 206 124 194 120 180 115 c 1
 145 95 l 1
550 120 m 1
 548 120 547 121 545 121 c 0
 522 121 469 99 469 94 c 1
 469 94 470 87 471 87 c 0
 474 87 483 98 498 98 c 0x690606c0
 510 98 522 96 525 93 c 1
 535 93 534 100 550 100 c 1
 550 120 l 1
244 132 m 1x920606c0
 244 130 204 108 188 102 c 1
 190 102 239 106 266 115 c 1
 268 122 274 128 279 132 c 1
 244 132 l 1x920606c0
550 141 m 1
 523 141 471 124 468 118 c 0
 468 117 469 117 471 117 c 0
 487 117 550 134 550 135 c 2
 550 141 l 1
162 141 m 1
 149 137 159 122 150 115 c 1
 163 123 193 136 193 136 c 1
 162 141 l 1
296 128 m 1
 296 124 l 1
 326 134 383 144 383 145 c 2
 383 167 l 1
 335 150 l 1
 332 147 308 133 296 128 c 1
296 150 m 1
 292 141 l 1
 314 141 383 183 383 184 c 2
 383 188 l 1
 367 181 289 169 289 150 c 1
 296 150 l 1
296 176 m 1
 296 171 l 1
 361 193 l 1
 362 192 364 192 366 192 c 0
 374 192 387 195 387 202 c 0
 387 203 384 216 383 219 c 1
 296 176 l 1
378 231 m 1
 365 230 281 202 279 197 c 0
 278 194 276 186 276 183 c 1
 286 183 291 187 301 193 c 1
 301 188 l 1
 319 195 376 227 378 231 c 1
270 223 m 0
 271 222 274 219 275 219 c 0xa20606c0
 300 219 329 253 356 253 c 0xa44a06c0
 359 253 362 253 365 252 c 1
 413 278 l 1
 398 278 361 265 357 261 c 1
 317 244 299 237 256 237 c 1xa90606c0
 257 239 257 240 257 241 c 0
 257 245 254 247 249 247 c 0
 235 247 203 231 188 223 c 1
 189 223 196 227 223 227 c 0xa88a06c0
 230 227 263 224 270 223 c 0
144 232 m 0
 144 230 148 227 150 227 c 1
 152 238 176 260 185 261 c 1
 171 261 l 1
 171 268 l 1xa82606c0
 147 268 145 260 144 232 c 0
486 244 m 1
 493 243 527 238 542 231 c 1
 542 247 l 1xa88a06c0
 534 247 526 252 520 252 c 0
 510 252 499 244 486 244 c 1
232 261 m 1
 219 261 188 250 188 240 c 2
 188 236 l 1
 204 239 214 254 232 254 c 1
 232 261 l 1
461 278 m 1
 365 240 l 1
 384 240 392 244 413 244 c 1
 461 278 l 1
292 252 m 1
 288 249 l 1
 316 249 347 269 374 278 c 1
 348 278 l 1
 292 252 l 1
491 275 m 0
 480 275 445 258 445 253 c 0xa44a06c0
 445 252 447 249 447 249 c 1
 542 270 l 1
 522 273 509 275 491 275 c 0
279 275 m 1
 292 266 l 1
 339 287 l 1
 352 287 l 1
 391 313 l 2
 390 313 384 314 383 314 c 0
 367 314 342 311 335 296 c 1
 326 293 291 287 279 275 c 1
409 301 m 1
 399 296 383 285 383 283 c 1
 395 283 405 289 409 301 c 1
439 335 m 1xa20606c0
 419 335 l 2
 374 335 331 321 305 301 c 1
 296 292 l 2
 297 292 298 291 299 291 c 0
 335 309 367 323 406 323 c 0
 411 323 416 322 421 322 c 1
 425 324 434 329 439 335 c 1xa20606c0
264 417 m 0
 241 417 220 404 197 404 c 1
 197 400 l 2
 197 389 264 303 279 301 c 1
 361 339 l 1
 361 343 l 1
 333 343 311 321 281 321 c 0
 275 321 270 321 270 330 c 0
 270 340 305 350 305 357 c 0
 305 360 304 365 296 369 c 1
 282 369 268 365 253 365 c 0
 249 365 244 365 244 369 c 0
 244 385 262 394 275 400 c 1
 275 404 270 417 264 417 c 0
292 335 m 1
 293 334 299 330 301 330 c 0
 307 332 313 339 322 339 c 1
 320 343 317 343 314 343 c 0
 305 343 301 341 292 335 c 1
417 352 m 1
 413 348 l 1
 460 348 l 2xa88a06c0
 464 348 476 361 476 368 c 0
 476 369 474 370 474 371 c 2
 417 352 l 1
383 369 m 1
 383 360 l 1
 395 360 409 364 421 369 c 1
 383 369 l 1
288 387 m 1
 275 387 266 379 257 373 c 1
 258 373 285 380 288 382 c 1xa90606c0
 288 387 l 1
508 413 m 1
 498 413 408 390 404 382 c 1
 441 382 440 386 447 386 c 1
 447 386 460 382 473 382 c 0
 484 382 508 405 508 413 c 1
468 422 m 2
 468 421 417 416 417 412 c 1
 409 404 l 2
 409 403 410 403 412 403 c 0
 424 403 468 417 468 417 c 1
 468 422 l 2
244 446 m 0
 224 446 204 423 197 417 c 1
 217 417 243 426 262 426 c 1
 260 431 250 446 244 446 c 0
167 451 m 1
 172 443 180 426 185 426 c 1
 202 440 227 446 240 464 c 1
 238 464 229 465 227 465 c 0xa81111c0
 208 465 187 461 167 451 c 1
549 464 m 0
 538 464 456 435 456 430 c 1
 503 430 l 1
 499 434 l 1
 529 434 l 1
 532 437 552 457 552 462 c 1
 552 462 550 464 549 464 c 0
516 464 m 1
 447 464 l 2
 444 464 434 445 434 438 c 1
 466 446 488 457 516 464 c 1
212 490 m 0xa9050ac0
 193 490 179 472 171 464 c 1xa9050ac0
 189 469 210 474 228 474 c 1xa90606c0
 228 474 219 490 212 490 c 0xa9050ac0
141 494 m 1
 142 493 148 472 156 472 c 0xa90486c0
 164 472 199 497 206 508 c 1
 179 508 162 507 141 494 c 1
576 516 m 1
 538 512 491 487 460 473 c 1xa90446c0
 477 473 490 477 508 477 c 0xa90426c0
 533 477 537 473 559 473 c 0xa90446c0
 565 473 572 509 576 516 c 1
494 546 m 1
 479 545 469 487 465 490 c 1xa9050ac0
 488 502 l 1
 482 502 477 504 477 509 c 0
 477 515 519 538 546 550 c 1
 556 556 577 574 594 576 c 1
 525 576 l 1
 494 546 l 1
186 538 m 0
 170 538 146 518 136 508 c 1
 160 517 179 512 202 520 c 1
 201 522 193 538 186 538 c 0
512 520 m 1
 512 516 l 1
 523 519 536 520 542 520 c 1
 542 516 l 1
 550 525 l 1
 594 537 l 1
 601 540 630 603 637 615 c 1
 632 619 l 1
 605 619 525 611 525 589 c 1
 542 586 553 585 563 585 c 0
 575 585 587 586 609 586 c 1xa90511c0
 609 585 611 581 611 581 c 1
 607 576 595 564 594 563 c 2
 512 520 l 1
115 541 m 1
 128 520 l 1
 133 520 153 535 159 541 c 1
 148 546 144 546 135 546 c 0
 127 546 123 546 115 541 c 1
157 581 m 0
 141 581 119 561 111 555 c 1
 120 555 l 2
 128 555 168 558 176 558 c 1
 173 566 164 581 157 581 c 0
84 593 m 1
 84 583 94 569 103 563 c 1
 123 593 132 578 150 598 c 1
 126 598 107 593 84 593 c 1
111 619 m 2
 63 629 l 2
 62 629 73 607 81 607 c 0
 85 607 110 619 111 619 c 2
136 616 m 1
 127 616 113 609 107 607 c 1
 136 607 l 1
 136 616 l 1
EndSplineSet
Validated: 37
EndChar

